<svg width="41" height="32" viewBox="0 0 41 32" fill="none" xmlns="http://www.w3.org/2000/svg">
<g clip-path="url(#clip0)">
<path d="M5.1333 24.308H7.63783C8.00745 24.2813 8.37867 24.3291 8.72947 24.4485C9.08028 24.5679 9.40354 24.7566 9.68009 25.0033C9.88487 25.2224 10.0436 25.4804 10.1469 25.762C10.2502 26.0436 10.2959 26.343 10.2814 26.6426C10.2973 26.9767 10.23 27.3095 10.0857 27.6112C9.94144 27.9129 9.72459 28.1741 9.45459 28.3715C8.91359 28.7415 8.26713 28.9262 7.61227 28.8976H5.71358V31.7539H5.1333V24.308ZM7.66038 24.8063H5.71358V28.4143H7.61829C7.90537 28.4329 8.19331 28.3947 8.46559 28.3018C8.73788 28.2089 8.98916 28.0633 9.20504 27.8731C9.36308 27.7124 9.4863 27.5209 9.567 27.3105C9.6477 27.1001 9.68415 26.8753 9.67407 26.6501C9.68928 26.3833 9.64297 26.1166 9.5387 25.8705C9.43444 25.6245 9.27502 25.4057 9.07275 25.231C8.66722 24.9288 8.16829 24.779 7.66339 24.8078L7.66038 24.8063Z" fill="#00bceb"/>
<path d="M11.6403 27.7769H11.0472C11.0635 27.5386 11.1359 27.3075 11.2584 27.1024C11.381 26.8974 11.5502 26.7241 11.7523 26.5968C12.1676 26.3393 12.6508 26.2126 13.1391 26.233C13.4164 26.2169 13.6942 26.2565 13.956 26.3494C14.2178 26.4424 14.4583 26.5868 14.6634 26.7742C14.8228 26.9362 14.9472 27.1292 15.029 27.3412C15.1107 27.5533 15.148 27.7798 15.1385 28.0069V31.7765H14.683L14.5913 30.8745C14.402 31.2085 14.1236 31.4833 13.7871 31.6681C13.4505 31.8529 13.0692 31.9404 12.6858 31.9208C12.1968 31.95 11.7151 31.7917 11.3388 31.4781C11.19 31.3297 11.0735 31.152 10.9969 30.9562C10.9203 30.7605 10.8852 30.551 10.8939 30.341C10.9025 30.1309 10.9546 29.925 11.047 29.7362C11.1394 29.5474 11.27 29.3798 11.4305 29.2441C11.8827 28.9307 12.4053 28.7337 12.9519 28.6706L14.5913 28.4015V27.9362C14.601 27.7515 14.5654 27.5671 14.4878 27.3992C14.4101 27.2313 14.2926 27.0849 14.1455 26.9726C13.8264 26.7774 13.4582 26.6773 13.0841 26.6843C12.7101 26.6912 12.3458 26.8048 12.0341 27.0117C11.9205 27.1063 11.827 27.2228 11.7593 27.3542C11.6917 27.4857 11.6512 27.6294 11.6403 27.7769V27.7769ZM12.8369 31.445C13.3047 31.451 13.7559 31.2718 14.0922 30.9466C14.2495 30.8082 14.3753 30.6377 14.4613 30.4466C14.5472 30.2555 14.5913 30.0482 14.5905 29.8387V28.8555L13.1413 29.1043C12.6493 29.145 12.1788 29.3237 11.7838 29.62C11.6825 29.7146 11.6031 29.8302 11.5511 29.9588C11.4992 30.0873 11.476 30.2256 11.4832 30.3641C11.4755 30.5314 11.5117 30.6978 11.5882 30.8468C11.6646 30.9958 11.7787 31.1222 11.9191 31.2135C12.1959 31.3785 12.5151 31.4582 12.8369 31.4427V31.445Z" fill="#00bceb"/>
<path d="M16.721 31.7665H16.1641V26.3801H16.6196L16.7015 27.4159C16.7808 27.0751 16.9736 26.7714 17.2483 26.5546C17.523 26.3378 17.8632 26.2209 18.2131 26.223C18.4034 26.2209 18.5927 26.2496 18.7738 26.3079V26.8552C18.5822 26.7979 18.3837 26.7671 18.1838 26.7635C17.9655 26.7634 17.7511 26.8206 17.5618 26.9293C17.3726 27.0379 17.2151 27.1943 17.1051 27.3828C16.8337 27.8135 16.7 28.3167 16.7218 28.8253L16.721 31.7665Z" fill="#00bceb"/>
<path d="M22.1305 26.8651H20.8752V30.6872C20.8752 31.1924 21.1112 31.4442 21.5803 31.4442C21.8014 31.4451 22.0216 31.4175 22.2357 31.3622V31.805C22.0145 31.8713 21.7849 31.9055 21.554 31.9064C21.3783 31.9191 21.202 31.8934 21.0373 31.8311C20.8726 31.7688 20.7234 31.6714 20.6001 31.5456C20.4031 31.2954 20.304 30.982 20.3212 30.6639V26.8651H19.541V26.3802H20.3182L20.3475 25.0693H20.8737V26.3802H22.129L22.1305 26.8651Z" fill="#00bceb"/>
<path d="M23.536 31.7657H22.979V26.3801H23.4375L23.4999 27.3008C23.6821 26.9459 23.9664 26.6538 24.3162 26.462C24.6189 26.3018 24.9569 26.2196 25.2994 26.223C25.563 26.2071 25.8268 26.25 26.0717 26.3487C26.3167 26.4474 26.5366 26.5993 26.7155 26.7935C27.028 27.1564 27.1877 27.6262 27.1612 28.1044V31.7657H26.5975V28.1209C26.6118 27.918 26.5813 27.7145 26.5082 27.5247C26.435 27.3349 26.3211 27.1635 26.1743 27.0227C25.8908 26.793 25.5323 26.6763 25.1678 26.695C24.9453 26.692 24.7247 26.737 24.521 26.8269C24.3174 26.9168 24.1355 27.0495 23.9877 27.2159C23.686 27.5376 23.5225 27.9648 23.5322 28.4058L23.536 31.7657Z" fill="#00bceb"/>
<path d="M32.3417 30.294H32.9483C32.8281 30.7994 32.5201 31.2401 32.0869 31.5267C31.5738 31.8418 30.968 31.9707 30.3711 31.8919C29.7741 31.813 29.2225 31.5312 28.8089 31.0937C28.3542 30.5203 28.1215 29.8021 28.1534 29.071C28.1289 28.6684 28.1871 28.2651 28.3245 27.8859C28.4619 27.5067 28.6756 27.1597 28.9525 26.8664C29.1706 26.651 29.4299 26.482 29.715 26.3693C30.0001 26.2567 30.305 26.2028 30.6114 26.2109C30.959 26.1945 31.3055 26.2609 31.6224 26.4047C31.9393 26.5484 32.2175 26.7654 32.4341 27.0378C32.8741 27.6664 33.0889 28.4253 33.0437 29.1913H28.7044C28.6927 29.5161 28.7471 29.8398 28.8643 30.143C28.9815 30.4461 29.159 30.7222 29.3862 30.9547C29.747 31.2736 30.2156 31.4434 30.6971 31.4297C31.0924 31.4414 31.4799 31.3175 31.7952 31.0787C32.056 30.8812 32.2468 30.6054 32.3394 30.2917L32.3417 30.294ZM30.5911 26.686C30.3372 26.6787 30.0851 26.7291 29.8535 26.8332C29.6219 26.9374 29.4169 27.0926 29.2539 27.2873C28.9251 27.7047 28.7369 28.2154 28.7164 28.7463H32.4439C32.4496 28.4481 32.3961 28.1516 32.2864 27.8742C32.1767 27.5968 32.0131 27.344 31.805 27.1302C31.4734 26.8298 31.0391 26.6684 30.5918 26.6792L30.5911 26.686Z" fill="#00bceb"/>
<path d="M34.6628 31.7665H34.1021V26.3801H34.5576L34.6395 27.4159C34.7195 27.0749 34.9129 26.7712 35.1881 26.5545C35.4633 26.3378 35.8038 26.2209 36.1541 26.223C36.3431 26.2207 36.5313 26.2494 36.7111 26.308V26.8552C36.5195 26.7977 36.321 26.7668 36.121 26.7635C35.9028 26.7638 35.6886 26.8211 35.4994 26.9298C35.3102 27.0384 35.1526 27.1946 35.0424 27.3828C34.7736 27.8145 34.641 28.3172 34.662 28.8253L34.6628 31.7665Z" fill="#00bceb"/>
<path d="M13.8361 14.0642H12.0825V21.0171H13.8361V14.0642Z" fill="#00bceb"/>
<path d="M27.9846 16.0697C27.5318 15.8206 27.0229 15.6912 26.5061 15.6938C26.014 15.6938 25.542 15.8893 25.194 16.2373C24.8461 16.5853 24.6506 17.0572 24.6506 17.5493C24.6506 18.0414 24.8461 18.5134 25.194 18.8613C25.542 19.2093 26.014 19.4048 26.5061 19.4048C27.0232 19.3988 27.5309 19.2659 27.9846 19.0177V20.8833C27.466 21.0419 26.9273 21.1246 26.385 21.1291C25.9017 21.1447 25.4201 21.063 24.969 20.8888C24.5178 20.7146 24.1063 20.4515 23.7589 20.1151C23.4115 19.7787 23.1352 19.3758 22.9465 18.9306C22.7579 18.4853 22.6606 18.0066 22.6606 17.523C22.6606 17.0394 22.7579 16.5607 22.9465 16.1154C23.1352 15.6702 23.4115 15.2673 23.7589 14.9309C24.1063 14.5946 24.5178 14.3314 24.969 14.1572C25.4201 13.983 25.9017 13.9013 26.385 13.9169C26.9277 13.9184 27.4671 14.0023 27.9846 14.1657V16.0697Z" fill="#00bceb"/>
<path d="M9.67305 16.0697C9.22311 15.8195 8.71609 15.69 8.2013 15.6938C7.7092 15.6938 7.23725 15.8893 6.88928 16.2373C6.54131 16.5853 6.34583 17.0572 6.34583 17.5493C6.34583 18.0414 6.54131 18.5134 6.88928 18.8613C7.23725 19.2093 7.7092 19.4048 8.2013 19.4048C8.71633 19.3993 9.22198 19.2663 9.67305 19.0177V20.8833C9.1548 21.0432 8.61586 21.126 8.07352 21.1291C7.59016 21.1447 7.10861 21.063 6.65746 20.8888C6.20632 20.7146 5.79481 20.4515 5.44737 20.1151C5.09994 19.7787 4.82368 19.3758 4.63501 18.9306C4.44634 18.4853 4.34912 18.0066 4.34912 17.523C4.34912 17.0394 4.44634 16.5607 4.63501 16.1154C4.82368 15.6702 5.09994 15.2673 5.44737 14.9309C5.79481 14.5946 6.20632 14.3314 6.65746 14.1572C7.10861 13.983 7.59016 13.9013 8.07352 13.9169C8.61627 13.9177 9.15569 14.0016 9.67305 14.1657V16.0697Z" fill="#00bceb"/>
<path d="M37.1772 17.5415C37.1905 18.271 36.9863 18.988 36.5907 19.601C36.1951 20.2141 35.6259 20.6955 34.9557 20.9839C34.2854 21.2724 33.5445 21.3548 32.8273 21.2206C32.1101 21.0865 31.4491 20.7418 30.9284 20.2307C30.4078 19.7195 30.0511 19.0649 29.9038 18.3503C29.7565 17.6357 29.8253 16.8934 30.1013 16.218C30.3774 15.5426 30.8483 14.9646 31.454 14.5578C32.0597 14.151 32.7727 13.9337 33.5024 13.9335C33.9833 13.9189 34.4622 14.0017 34.9102 14.177C35.3583 14.3523 35.7663 14.6164 36.1096 14.9535C36.4529 15.2905 36.7245 15.6936 36.908 16.1383C37.0915 16.5831 37.183 17.0604 37.1772 17.5415ZM33.5024 15.7127C33.14 15.71 32.7849 15.815 32.4823 16.0144C32.1796 16.2138 31.943 16.4986 31.8025 16.8327C31.6619 17.1667 31.6238 17.535 31.6928 17.8908C31.7619 18.2466 31.9351 18.5739 32.1904 18.8311C32.4457 19.0883 32.7717 19.2639 33.1269 19.3356C33.4822 19.4073 33.8507 19.3718 34.1858 19.2338C34.5209 19.0957 34.8075 18.8612 35.0091 18.5601C35.2107 18.2589 35.3184 17.9047 35.3184 17.5423C35.3228 17.3019 35.279 17.0631 35.1895 16.84C35.1 16.617 34.9666 16.4141 34.7972 16.2435C34.6279 16.0729 34.426 15.938 34.2036 15.8468C33.9812 15.7557 33.7427 15.7101 33.5024 15.7127V15.7127Z" fill="#00bceb"/>
<path d="M20.4918 15.648C20.045 15.5234 19.5851 15.452 19.1216 15.4352C18.4165 15.4352 18.0362 15.6713 18.0362 16.0057C18.0362 16.4289 18.5511 16.5763 18.8389 16.6612L19.3238 16.8115C19.7816 16.9091 20.1929 17.1589 20.4907 17.5203C20.7884 17.8816 20.9549 18.3331 20.9631 18.8012C20.9631 20.545 19.429 21.1313 18.085 21.1313C17.4501 21.1265 16.817 21.0628 16.1938 20.9411V19.3484C16.7386 19.5083 17.3018 19.5965 17.8693 19.6107C18.7412 19.6107 19.1471 19.3551 19.1471 18.9553C19.1471 18.5554 18.7999 18.4013 18.3639 18.2637L17.9881 18.1427C17.0049 17.8345 16.1946 17.261 16.1946 16.1132C16.1946 14.8023 17.1778 13.9402 18.7841 13.9402C19.3611 13.9482 19.9353 14.0218 20.4956 14.1597L20.4918 15.648Z" fill="#00bceb"/>
<path d="M2.51045 6.59653C2.51045 6.36528 2.41859 6.14351 2.25507 5.97999C2.09155 5.81647 1.86978 5.72461 1.63853 5.72461C1.40728 5.72461 1.1855 5.81647 1.02198 5.97999C0.858465 6.14351 0.766602 6.36528 0.766602 6.59653V8.41931C0.766602 8.65056 0.858465 8.87233 1.02198 9.03585C1.1855 9.19937 1.40728 9.29123 1.63853 9.29123C1.86978 9.29123 2.09155 9.19937 2.25507 9.03585C2.41859 8.87233 2.51045 8.65056 2.51045 8.41931V6.59653Z" fill="#00bceb"/>
<path d="M7.29313 4.20014C7.28007 3.97813 7.18268 3.76951 7.02088 3.61694C6.85908 3.46437 6.64509 3.37939 6.42271 3.37939C6.20032 3.37939 5.98633 3.46437 5.82453 3.61694C5.66273 3.76951 5.56534 3.97813 5.55228 4.20014V8.4192C5.54531 8.53781 5.56265 8.65659 5.60324 8.76826C5.64383 8.87992 5.70681 8.98211 5.78833 9.06856C5.86984 9.155 5.96815 9.22387 6.07724 9.27095C6.18633 9.31802 6.30389 9.34231 6.42271 9.34231C6.54152 9.34231 6.65908 9.31802 6.76817 9.27095C6.87726 9.22387 6.97558 9.155 7.05709 9.06856C7.1386 8.98211 7.20158 8.87992 7.24217 8.76826C7.28276 8.65659 7.3001 8.53781 7.29313 8.4192V4.20014Z" fill="#00bceb"/>
<path d="M12.0793 0.922218C12.0793 0.690969 11.9874 0.469191 11.8239 0.305674C11.6604 0.142156 11.4386 0.050293 11.2074 0.050293C10.9761 0.050293 10.7543 0.142156 10.5908 0.305674C10.4273 0.469191 10.3354 0.690969 10.3354 0.922218V10.1676C10.3354 10.3989 10.4273 10.6207 10.5908 10.7842C10.7543 10.9477 10.9761 11.0396 11.2074 11.0396C11.4386 11.0396 11.6604 10.9477 11.8239 10.7842C11.9874 10.6207 12.0793 10.3989 12.0793 10.1676V0.922218Z" fill="#00bceb"/>
<path d="M16.863 4.20014C16.8499 3.97813 16.7525 3.76951 16.5907 3.61694C16.4289 3.46437 16.2149 3.37939 15.9925 3.37939C15.7701 3.37939 15.5562 3.46437 15.3944 3.61694C15.2326 3.76951 15.1352 3.97813 15.1221 4.20014V8.4192C15.1151 8.53781 15.1325 8.65659 15.1731 8.76826C15.2137 8.87992 15.2766 8.98211 15.3581 9.06856C15.4397 9.155 15.538 9.22387 15.6471 9.27095C15.7562 9.31802 15.8737 9.34231 15.9925 9.34231C16.1113 9.34231 16.2289 9.31802 16.338 9.27095C16.4471 9.22387 16.5454 9.155 16.6269 9.06856C16.7084 8.98211 16.7714 8.87992 16.812 8.76826C16.8526 8.65659 16.8699 8.53781 16.863 8.4192V4.20014Z" fill="#00bceb"/>
<path d="M21.6418 6.59638C21.6452 6.48017 21.6252 6.36445 21.5831 6.25609C21.541 6.14773 21.4776 6.04891 21.3966 5.96551C21.3156 5.8821 21.2187 5.81579 21.1116 5.77051C21.0046 5.72523 20.8895 5.7019 20.7732 5.7019C20.657 5.7019 20.5419 5.72523 20.4348 5.77051C20.3277 5.81579 20.2308 5.8821 20.1498 5.96551C20.0688 6.04891 20.0054 6.14773 19.9633 6.25609C19.9212 6.36445 19.9013 6.48017 19.9047 6.59638V8.41915C19.9113 8.64508 20.0057 8.85953 20.1679 9.01698C20.3301 9.17444 20.5472 9.26251 20.7732 9.26251C20.9992 9.26251 21.2164 9.17444 21.3785 9.01698C21.5407 8.85953 21.6351 8.64508 21.6418 8.41915V6.59638Z" fill="#00bceb"/>
<path d="M26.4275 4.20323C26.4209 3.9773 26.3264 3.76285 26.1643 3.60539C26.0021 3.44794 25.785 3.35986 25.559 3.35986C25.3329 3.35986 25.1158 3.44794 24.9537 3.60539C24.7915 3.76285 24.6971 3.9773 24.6904 4.20323V8.42229C24.6971 8.64822 24.7915 8.86267 24.9537 9.02012C25.1158 9.17758 25.3329 9.26566 25.559 9.26566C25.785 9.26566 26.0021 9.17758 26.1643 9.02012C26.3264 8.86267 26.4209 8.64822 26.4275 8.42229V4.20323Z" fill="#00bceb"/>
<path d="M31.214 0.919197C31.2218 0.800535 31.2052 0.681532 31.1651 0.569554C31.1251 0.457577 31.0625 0.355009 30.9812 0.268201C30.9 0.181392 30.8017 0.112192 30.6926 0.0648829C30.5835 0.017574 30.4659 -0.00683594 30.3469 -0.00683594C30.228 -0.00683594 30.1104 0.017574 30.0013 0.0648829C29.8922 0.112192 29.7939 0.181392 29.7127 0.268201C29.6314 0.355009 29.5688 0.457577 29.5287 0.569554C29.4887 0.681532 29.4721 0.800535 29.4799 0.919197V10.1646C29.4721 10.2833 29.4887 10.4023 29.5287 10.5142C29.5688 10.6262 29.6314 10.7288 29.7127 10.8156C29.7939 10.9024 29.8922 10.9716 30.0013 11.0189C30.1104 11.0662 30.228 11.0906 30.3469 11.0906C30.4659 11.0906 30.5835 11.0662 30.6926 11.0189C30.8017 10.9716 30.9 10.9024 30.9812 10.8156C31.0625 10.7288 31.1251 10.6262 31.1651 10.5142C31.2052 10.4023 31.2218 10.2833 31.214 10.1646V0.919197Z" fill="#00bceb"/>
<path d="M35.9971 4.20016C35.9857 3.97609 35.8887 3.76495 35.7261 3.61039C35.5635 3.45582 35.3477 3.36963 35.1233 3.36963C34.899 3.36963 34.6832 3.45582 34.5206 3.61039C34.3579 3.76495 34.2609 3.97609 34.2495 4.20016V8.41922C34.2609 8.64329 34.3579 8.85442 34.5206 9.00899C34.6832 9.16356 34.899 9.24975 35.1233 9.24975C35.3477 9.24975 35.5635 9.16356 35.7261 9.00899C35.8887 8.85442 35.9857 8.64329 35.9971 8.41922V4.20016Z" fill="#00bceb"/>
<path d="M40.778 6.59638C40.7814 6.48017 40.7615 6.36445 40.7194 6.25609C40.6773 6.14773 40.6138 6.04891 40.5328 5.96551C40.4518 5.8821 40.3549 5.81579 40.2479 5.77051C40.1408 5.72523 40.0257 5.7019 39.9094 5.7019C39.7932 5.7019 39.6781 5.72523 39.571 5.77051C39.464 5.81579 39.3671 5.8821 39.2861 5.96551C39.2051 6.04891 39.1416 6.14773 39.0995 6.25609C39.0574 6.36445 39.0375 6.48017 39.0409 6.59638V8.41915C39.0375 8.53536 39.0574 8.65107 39.0995 8.75944C39.1416 8.8678 39.2051 8.96661 39.2861 9.05002C39.3671 9.13343 39.464 9.19973 39.571 9.24501C39.6781 9.29029 39.7932 9.31362 39.9094 9.31362C40.0257 9.31362 40.1408 9.29029 40.2479 9.24501C40.3549 9.19973 40.4518 9.13343 40.5328 9.05002C40.6138 8.96661 40.6773 8.8678 40.7194 8.75944C40.7615 8.65107 40.7814 8.53536 40.778 8.41915V6.59638Z" fill="#00bceb"/>
</g>
<defs>
<clipPath id="clip0">
<rect width="40.0131" height="31.9237" fill="white" transform="translate(0.766602)"/>
</clipPath>
</defs>
</svg>
