<?xml version="1.0" encoding="UTF-8"?>
<!-- Generator: Adobe Illustrator 27.0.1, SVG Export Plug-In . SVG Version: 6.00 Build 0)  -->
<svg xmlns="http://www.w3.org/2000/svg" xmlns:xlink="http://www.w3.org/1999/xlink" version="1.1" id="Layer_1" x="0px" y="0px" viewBox="0 0 1000 372" style="enable-background:new 0 0 1000 372;" xml:space="preserve">
<style type="text/css">
	.st0{opacity:0.85;fill:#6DBE4F;}
	.st1{fill:#6DBE4F;}
</style>
<g>
	<path class="st0" d="M0.5,347.2h161.2c86.3,0,156.8-67.9,161-153.2H0.5V347.2z"></path>
	<path class="st1" d="M161.7,24.8H0.5v153.2h322.2C318.6,92.6,248.1,24.8,161.7,24.8z"></path>
	<path class="st1" d="M838.9,24.8c-86.3,0-156.8,67.9-161,153.2h322C995.7,92.6,925.2,24.8,838.9,24.8z"></path>
	<path class="st0" d="M838.9,347.2c86.3,0,156.8-67.9,161-153.2h-322C682.1,279.3,752.6,347.2,838.9,347.2z"></path>
	<path class="st1" d="M339.1,24.8V186c0,86.3,67.9,156.8,153.2,161V24.8H339.1z"></path>
	<polygon class="st0" points="508.4,24.8 508.4,347.2 661.5,347.2 661.5,186 661.5,24.8  "></polygon>
</g>
</svg>
