<?xml version="1.0" encoding="utf-8"?>
<!-- Generator: Adobe Illustrator 26.0.2, SVG Export Plug-In . SVG Version: 6.00 Build 0)  -->
<svg version="1.1" id="Layer_1" xmlns:dc="http://purl.org/dc/elements/1.1/" xmlns:xl="http://www.w3.org/1999/xlink"
	 xmlns="http://www.w3.org/2000/svg" xmlns:xlink="http://www.w3.org/1999/xlink" x="0px" y="0px" viewBox="0 0 92.9 100.9"
	 style="enable-background:new 0 0 92.9 100.9;" xml:space="preserve">
<style type="text/css">
	.st0{display:none;}
	.st1{display:inline;}
	.st2{fill:#E06832;}
	.st3{fill:url(#SVGID_1_);}
	.st4{fill:url(#SVGID_00000150813420362397291180000009066799181690851246_);}
	.st5{display:none;fill:#307FE2;}
	.st6{fill:#307FE2;}
	.st7{fill:url(#SVGID_00000057849428851440539910000002353595970555872150_);}
	.st8{fill:url(#SVGID_00000101816798660638022400000001035577663908560019_);}
	.st9{fill:#FFDF00;}
</style>
<g id="Canvas_1">
	<g id="Canvas_x5F_1:_Layer_1">
		<g id="Group_2">
			<g id="Group_3">
				<g id="Group_4">
					<g id="Group_59" class="st0">
						<g id="Graphic_60" class="st1">
							<path class="st2" d="M0,0.2v35.3l0.3,7.7l0.2,5.9c2.2,31.5,18.1,35.4,46,51.7c27.9-16.4,38.2-17.6,44.8-51.3l0.6-6.4l0.4-7.1
								l0.6-36c-1.2,0.5-2.4,1-3.8,1.5c-23.6,8.8-61.9,8.8-85.5,0C2.4,1.2,1.1,0.7,0,0.2z"/>
						</g>
					</g>
					<g id="Group_4_1_" class="st0">
						<g id="Group_59_1_" class="st1">
							<g id="Graphic_60_1_">
								
									<linearGradient id="SVGID_1_" gradientUnits="userSpaceOnUse" x1="83.7746" y1="-616.9304" x2="51.3491" y2="-560.7675" gradientTransform="matrix(1 0 0 -1 0 -521.8)">
									<stop  offset="9.848528e-02" style="stop-color:#307FE2"/>
									<stop  offset="0.7601" style="stop-color:#5D8EF0"/>
									<stop  offset="1" style="stop-color:#6A96F1"/>
								</linearGradient>
								<path class="st3" d="M5.2,69.1c3.4,11.1,26.6,25,41.3,31.8C98.1,78.2,91.7,49.5,92.9,0.2C93,0.2,47.9,69.8,5.2,69.1z"/>
							</g>
						</g>
					</g>
					<g id="Group_4_00000027603336765935532860000013587368894695307153_" class="st0">
						<g id="Group_59_00000145759421916431434730000012184305015592682400_" class="st1">
							<g id="Graphic_60_00000027592866030318689840000009845115579735417751_">
								
									<linearGradient id="SVGID_00000009557787786053023050000004737268417092889257_" gradientUnits="userSpaceOnUse" x1="83.7746" y1="-616.9304" x2="51.3491" y2="-560.7675" gradientTransform="matrix(1 0 0 -1 0 -521.8)">
									<stop  offset="9.848500e-02" style="stop-color:#E06832"/>
									<stop  offset="0.7601" style="stop-color:#5D8EF0"/>
									<stop  offset="1" style="stop-color:#E06832"/>
								</linearGradient>
								<path style="fill:url(#SVGID_00000009557787786053023050000004737268417092889257_);" d="M5.2,69.1
									c3.4,11.1,26.6,25,41.3,31.8C98.1,78.2,91.7,49.5,92.9,0.2C93,0.2,47.9,69.8,5.2,69.1z"/>
							</g>
						</g>
					</g>
					<path class="st5" d="M-0.1,0C13,5.5,29.6,8.2,46.3,8.2c0,4.1,0,87.8,0,92.6l0,0h-0.1C-0.2,81.3-0.1,69-0.1,0z"/>
					<g id="Shield">
						<g>
							<path class="st6" d="M0,0c13.1,5.5,29.7,8.2,46.4,8.2c0,4.1,0,92.6,0,92.6l0,0h-0.1C-0.1,81.3,0,69,0,0z"/>
						</g>
						<g>
							<path class="st6" d="M92.8,0C79.7,5.5,63.1,8.2,46.4,8.2c-6.6,9.5,0,92.6,0,92.6l0,0h0.1C92.9,81.3,92.8,69,92.8,0z"/>
						</g>
					</g>
					<g id="Shield_Gradient_Overlay">
						
							<linearGradient id="SVGID_00000109737093383975325960000011303837319694204040_" gradientUnits="userSpaceOnUse" x1="92.1648" y1="97.5083" x2="91.1596" y2="99.2494" gradientTransform="matrix(1 0 0 -1 0 100.2)">
							<stop  offset="9.848500e-02" style="stop-color:#307FE2"/>
							<stop  offset="0.7601" style="stop-color:#5D8EF0"/>
							<stop  offset="1" style="stop-color:#6A96F1"/>
						</linearGradient>
						<path style="fill:url(#SVGID_00000109737093383975325960000011303837319694204040_);" d="M92.8,0c-0.7,1.1-1.5,2.4-2.3,3.6
							C91.3,2.4,92.1,1.2,92.8,0z"/>
						
							<linearGradient id="SVGID_00000165934283553057372940000007936989752901989525_" gradientUnits="userSpaceOnUse" x1="77.9088" y1="15.715" x2="45.0486" y2="72.6308" gradientTransform="matrix(1 0 0 -1 0 100.2)">
							<stop  offset="9.848500e-02" style="stop-color:#307FE2"/>
							<stop  offset="0.7601" style="stop-color:#5D8EF0"/>
							<stop  offset="1" style="stop-color:#6A96F1"/>
						</linearGradient>
						<path style="fill:url(#SVGID_00000165934283553057372940000007936989752901989525_);" d="M92.8,0c-0.8,1.2-1.5,2.4-2.3,3.6
							C91.3,2.4,92.1,1.1,92.8,0c-39.7,59.4-71.3,67.5-87,69.1c5.7,14,17.6,22.1,40.6,31.7l0,0l0,0C92.8,81.4,92.8,69,92.8,0z"/>
					</g>
					<g id="Group_57" class="st0">
						<g id="Graphic_58" class="st1">
							<path class="st9" d="M39.1,41.3l14.3,0.5l4.7-8.3L48,33.2l12.4-12.8l-0.5-1.3c-0.1,0-0.2,0-0.3,0.1h-0.4h-0.6
								c-2.8,0-5.4-0.4-7.9-1.1c-3.7-1-6.7-2.3-9.1-3.8l-17.3,14v20.9c0,0.7,0,1.3,0,1.8s-0.1,1-0.1,1.4c-0.3,1.6-1.3,3.2-3.1,4.9
								c-3.2-4.9-4.8-10.6-4.8-16.9c0-7.7,4.2-14.6,12.6-20.7l-0.8-1.4c-6.2,3.4-10.8,7.2-13.7,11.4c-3.5,4.8-5.2,10.5-5.2,17.1
								c0,8.2,2.7,15.2,8,20.9c5.4,5.7,12,8.6,19.9,8.6c5,0,9.8-1.4,14.4-4.3c4.1-2.8,7.5-6.5,10.3-11.3l-0.7-0.6
								c-7,5.3-14.4,7.9-21.9,7.7L39.1,41.3L39.1,41.3z M37.3,21.2v46.5c-6.2-1-11.2-3.9-15.1-8.8c4.6-4,7-6.1,7.2-6.3
								c2.2-2.5,3.3-5.5,3.3-9.2V25.1L37.3,21.2z M39.1,39.6V22.3c3.8,2.3,8,3.8,12.5,4.5L39.1,39.6z"/>
						</g>
					</g>
				</g>
			</g>
		</g>
	</g>
</g>
</svg>
