<?xml version="1.0" encoding="utf-8"?>
<!-- Generator: Adobe Illustrator 25.3.1, SVG Export Plug-In . SVG Version: 6.00 Build 0)  -->
<svg version="1.1" id="Layer_1" xmlns:dc="http://purl.org/dc/elements/1.1/" xmlns:xl="http://www.w3.org/1999/xlink"
	 xmlns="http://www.w3.org/2000/svg" xmlns:xlink="http://www.w3.org/1999/xlink" x="0px" y="0px" viewBox="0 0 516.4 123"
	 style="enable-background:new 0 0 516.4 123;" xml:space="preserve">
<style type="text/css">
	.st0{fill:#307FE2;}
	.st1{fill:url(#SVGID_1_);}
	.st2{display:none;}
	.st3{display:inline;}
	.st4{fill:#FFDF00;}
</style>
<g id="Canvas_1">
	<g id="Canvas_x5F_1:_Layer_1">
		<g id="Group_2">
			<g id="Group_3">
				<g id="Group_4">
					<g id="Group_59">
						<g id="Graphic_60">
							<path class="st0" d="M7.4,12.1v35.3l0.3,7.7L7.9,61c2.2,31.5,18.1,35.4,46,51.7c27.9-16.4,38.2-17.6,44.8-51.3l0.6-6.4
								l0.4-7.1l0.6-36c-1.2,0.5-2.4,1-3.8,1.5c-23.6,8.8-61.9,8.8-85.5,0C9.8,13.1,8.5,12.6,7.4,12.1z"/>
						</g>
					</g>
					<g id="Group_4_1_">
						<g id="Group_59_1_">
							<g id="Graphic_60_1_">
								
									<linearGradient id="SVGID_1_" gradientUnits="userSpaceOnUse" x1="90.7264" y1="-650.2539" x2="58.6716" y2="-594.7332" gradientTransform="matrix(1 0 0 -1 0 -544)">
									<stop  offset="9.848528e-02" style="stop-color:#307FE2"/>
									<stop  offset="0.7601" style="stop-color:#5D8EF0"/>
									<stop  offset="1" style="stop-color:#6A96F1"/>
								</linearGradient>
								<path class="st1" d="M12.6,81c3.4,11.1,26.6,25,41.3,31.8c27.9-16.4,38.2-17.6,44.8-51.3l0.6-6.4l1-43
									C100.4,12.1,55.3,81.7,12.6,81z"/>
							</g>
						</g>
					</g>
					<g id="Group_57" class="st2">
						<g id="Graphic_58" class="st3">
							<path class="st4" d="M46.5,53.2l14.3,0.5l4.7-8.3l-10.1-0.3l12.4-12.8L67.3,31c-0.1,0-0.2,0-0.3,0.1h-0.4H66
								c-2.8,0-5.4-0.4-7.9-1.1c-3.7-1-6.7-2.3-9.1-3.8l-17.3,14v20.9c0,0.7,0,1.3,0,1.8s-0.1,1-0.1,1.4c-0.3,1.6-1.3,3.2-3.1,4.9
								c-3.2-4.9-4.8-10.6-4.8-16.9c0-7.7,4.2-14.6,12.6-20.7l-0.8-1.4c-6.2,3.4-10.8,7.2-13.7,11.4c-3.5,4.8-5.2,10.5-5.2,17.1
								c0,8.2,2.7,15.2,8,20.9c5.4,5.7,12,8.6,19.9,8.6c5,0,9.8-1.4,14.4-4.3c4.1-2.8,7.5-6.5,10.3-11.3L68.5,72
								c-7,5.3-14.4,7.9-21.9,7.7L46.5,53.2L46.5,53.2z M44.7,33.1v46.5c-6.2-1-11.2-3.9-15.1-8.8c4.6-4,7-6.1,7.2-6.3
								c2.2-2.5,3.3-5.5,3.3-9.2V37L44.7,33.1z M46.5,51.5V34.2c3.8,2.3,8,3.8,12.5,4.5L46.5,51.5z"/>
						</g>
					</g>
					<g id="Group_34">
						<g id="Group_55">
							<g id="Graphic_56">
								<path d="M155.3,66v-9l-18.9-0.1c-0.7,0-1.5-0.1-2.4-0.4c-0.8-0.3-1.5-0.7-2.1-1.2l-1.8-1.9c-0.5-0.7-0.9-1.3-1.1-1.8
									c-0.3-0.7-0.5-1.4-0.6-2.2c-0.3-1.4-0.5-3.1-0.5-5.2h27.4v-9h-27.4c0-8.1,3.7-12.1,11.1-12.1h16.2v-9
									c-12.6,0-19.9,0.1-21.8,0.4c-2.2,0.4-3.9,0.9-5,1.4c-2.9,1.1-5.3,3.1-7.2,5.9c-1.7,2.4-2.8,5.4-3.5,8.7s-1,7.3-1,12
									c0,2.5,0.3,4.8,0.9,7c0.5,2.3,1.3,4.4,2.4,6.3c2.5,4.8,6.1,7.8,10.7,9.1c0.1,0,0.3,0.1,0.6,0.1c0,0,0.2,0.1,0.5,0.2
									c0.5,0.1,0.9,0.2,1.2,0.2l1.5,0.1l4.2,0.2L155.3,66L155.3,66z"/>
							</g>
						</g>
						<g id="Group_53">
							<g id="Graphic_54">
								<path d="M202.8,66l-14.9-22.1l13.9-21h-10.4l-8.8,13.7l-8.9-13.7H163l14.5,21.6l-15,21.5h10.7l9.6-15l9.1,15H202.8z"/>
							</g>
						</g>
						<g id="Group_51">
							<g id="Graphic_52">
								<path d="M237.1,66v-7.5l-16.3-0.1l-1-0.1l-0.9-0.2c-2.2-0.6-3.8-2.3-4.7-5c-0.7-2-1-4.5-1-7.3c0-2.6,0.3-5.2,0.8-7.6
									c0.5-2.4,1.4-4.2,2.7-5.6c1.6-1.6,3.8-2.4,6.5-2.4h14v-7.4c-11,0-17.2,0.1-18.8,0.4c-1.4,0.2-2.9,0.6-4.3,1.1
									c-2.5,0.9-4.6,2.6-6.2,4.9c-1.4,2-2.4,4.5-3,7.3c-0.6,2.7-0.9,6.1-0.9,10.1c0,3.9,0.9,7.6,2.8,11c2.1,4,5.2,6.5,9.3,7.6
									c0.1,0,0.3,0.1,0.5,0.1c0,0,0.2,0.1,0.5,0.2c0.4,0.1,0.8,0.2,1.1,0.2l1.3,0.1l3.6,0.2L237.1,66L237.1,66z"/>
							</g>
						</g>
						<g id="Group_49">
							<g id="Graphic_50">
								<path d="M286.2,66l-18.4-43.1h-9.6L240,66h9.6l3.7-10.3h18.8l4,10.3H286.2z M269.2,48.1h-12.9l6.4-16.5L269.2,48.1z"/>
							</g>
						</g>
						<g id="Group_47">
							<g id="Graphic_48">
								<path d="M317.5,66v-7.1c-9.8,0-15.5-0.4-17-1.3c-1.9-1-3-2.8-3.3-5.3l-0.1-3.1l-0.1-2.6V22.9h-8.9c0,23,1.3,35.9,3.9,38.8
									c2.6,2.9,6.8,4.3,12.6,4.3H317.5L317.5,66z"/>
							</g>
						</g>
						<g id="Group_45">
							<g id="Graphic_46">
								<path d="M362.8,23.4v-9h-44.6v9h16.6V66h11.3V23.4H362.8z"/>
							</g>
						</g>
						<g id="Group_43">
							<g id="Graphic_44">
								<path d="M396.6,66v-7.5l-15.8-0.1c-0.6,0-1.3-0.1-2-0.4c-0.7-0.2-1.3-0.6-1.7-1l-1.5-1.6c-0.4-0.6-0.7-1.1-0.9-1.5
									c-0.2-0.6-0.4-1.2-0.5-1.8c-0.3-1.2-0.4-2.6-0.4-4.3h22.8v-7.5h-22.8c0-6.7,3.1-10.1,9.3-10.1h13.5v-7.5
									c-10.5,0-16.6,0.1-18.2,0.4c-1.8,0.4-3.2,0.7-4.2,1.1c-2.4,0.9-4.4,2.6-6,4.9c-1.4,2-2.4,4.5-2.9,7.3
									c-0.6,2.7-0.9,6.1-0.9,10c0,2.1,0.2,4,0.7,5.8c0.4,1.9,1.1,3.7,2,5.3c2.1,4,5.1,6.5,8.9,7.6c0.1,0,0.3,0.1,0.5,0.1
									c0,0,0.2,0.1,0.4,0.2c0.4,0.1,0.7,0.2,1,0.2l1.3,0.1l3.5,0.2L396.6,66L396.6,66z"/>
							</g>
						</g>
						<g id="Group_41">
							<g id="Graphic_42">
								<path d="M438.3,66v-7.5L422,58.4l-1-0.1l-0.9-0.2c-2.2-0.6-3.8-2.3-4.7-5c-0.7-2-1-4.5-1-7.3c0-2.6,0.3-5.2,0.8-7.6
									c0.5-2.4,1.4-4.2,2.7-5.6c1.6-1.6,3.8-2.4,6.5-2.4h14v-7.4c-11,0-17.2,0.1-18.8,0.4c-1.4,0.2-2.9,0.6-4.3,1.1
									c-2.5,0.9-4.6,2.6-6.2,4.9c-1.4,2-2.4,4.5-3,7.3c-0.6,2.7-0.9,6.1-0.9,10.1c0,3.9,0.9,7.6,2.8,11c2.1,4,5.2,6.5,9.3,7.6
									c0.1,0,0.3,0.1,0.5,0.1c0,0,0.2,0.1,0.5,0.2c0.4,0.1,0.8,0.2,1.1,0.2l1.3,0.1l3.6,0.2L438.3,66L438.3,66L438.3,66z"/>
							</g>
						</g>
						<g id="Group_39">
							<g id="Graphic_40">
								<path d="M481.7,66V22.9h-9v17.5h-16.6V22.9H447V66h9.1V47.9h16.6V66H481.7z"/>
							</g>
						</g>
					</g>
					<g id="Group_5">
						<g id="Group_32">
							<g id="Graphic_33">
								<path d="M154.3,109V87.4h-6.6l-5.5,16.5l-5.5-16.5H130V109h4.6l-0.5-16.9l5.6,16.9h4.8l5.5-16.8l-0.4,16.8H154.3z"/>
							</g>
						</g>
						<g id="Group_30">
							<g id="Graphic_31">
								<path d="M172,109c0-8.7-0.5-13.5-1.5-14.4s-2.4-1.4-4.3-1.4h-7.7v3.3c5.3,0,8.2,0.2,8.7,0.5c0.6,0.5,1,1.3,1,2.4
									c-5,0-8,0.3-8.9,1c-1.1,0.8-1.7,2.1-1.7,3.7c0,1.7,0.4,2.9,1.2,3.7c0.8,0.8,1.9,1.2,3.2,1.2L172,109L172,109z M168.2,105.8
									h-4.7c-0.6,0-1.1-0.1-1.4-0.3c-0.4-0.3-0.6-0.7-0.6-1.4c0-0.7,0.2-1.1,0.7-1.4c0.4-0.2,0.9-0.3,1.5-0.3h4.4L168.2,105.8
									L168.2,105.8z"/>
							</g>
						</g>
						<g id="Group_28">
							<g id="Graphic_29">
								<path d="M193.7,109l-7.4-8.1l7.4-7.7h-5.3l-6.8,7.6V87.4h-4.2V109h4.2v-7.7l6.4,7.7H193.7z"/>
							</g>
						</g>
						<g id="Group_26">
							<g id="Graphic_27">
								<path d="M199.8,91.4v-3.9h-4.3v3.9H199.8L199.8,91.4z M199.8,109V93.2h-4.3V109H199.8z"/>
							</g>
						</g>
						<g id="Group_24">
							<g id="Graphic_25">
								<path d="M216.4,109c0-8.8-0.5-13.7-1.6-14.6c-0.9-0.8-2.3-1.2-4.3-1.2h-7V109h3.7V96.7c3,0,4.7,0.2,5,0.5
									c0.3,0.4,0.5,1.2,0.5,2.3v9.5H216.4z"/>
							</g>
						</g>
						<g id="Group_22">
							<g id="Graphic_23">
								<path d="M234.8,108.4V93.2h-6.9c-1.4,0-2.5,0.2-3.4,0.5c-0.9,0.4-1.8,1.1-2.7,2.1c-0.5,0.6-0.9,1.3-1.1,2.2
									c-0.2,1-0.3,2.2-0.3,3.7s0.4,3,1.3,4.5c1,1.6,2.4,2.6,4,2.7c0,0,0.1,0,0.3,0.1c0.1,0,0.2,0,0.3,0.1h1.2h0.3h0.5h2.8
									c0,1.6-0.8,2.5-2.3,2.5H222v3.2c6.8,0,10.7-0.5,11.6-1.6C234.4,112,234.8,110.5,234.8,108.4z M231,105.7h-2.4h-0.8l-0.8-0.1
									c-0.9-0.2-1.5-0.7-2-1.5c-0.4-0.9-0.6-2-0.6-3.4s0.4-2.5,1.1-3.1c0.7-0.7,1.9-1,3.5-1h1.8h0.2V105.7L231,105.7z"/>
							</g>
						</g>
						<g id="Group_20">
							<g id="Graphic_21">
								<rect x="249" y="87.4" width="4.7" height="21.6"/>
							</g>
						</g>
						<g id="Group_18">
							<g id="Graphic_19">
								<path d="M274.6,91.2v-3.8H256v3.8h6.9V109h4.7V91.2H274.6z"/>
							</g>
						</g>
						<g id="Group_16">
							<g id="Graphic_17">
								<path d="M303.3,103.6c0-1.5-0.1-2.7-0.3-3.5c-0.2-0.9-0.5-1.5-1-1.9l-0.6-0.5l-0.5-0.4c-0.4-0.3-0.9-0.4-1.3-0.5l-0.6-0.1
									l-0.7-0.1h-1.6c-4.5,0-7.1-0.2-7.6-0.6s-0.8-1.1-0.8-1.9c0-0.9,0.3-1.6,0.9-2s1.4-0.6,2.4-0.6h10.6v-3.9h-11.3
									c-2.3,0-4,0.5-5.2,1.4c-1.3,1.1-2,2.9-2,5.6s1.1,4.3,3.2,5.2c1,0.4,2.5,0.6,4.7,0.6h1.4h1c2.3,0,3.7,0.3,4.2,0.8
									c0.1,0.1,0.2,0.2,0.2,0.4c0.1,0.1,0.1,0.3,0.2,0.5s0.1,0.7,0.1,1.4c0,0.6-0.4,1.1-1.1,1.5c-0.5,0.3-1.2,0.4-2.3,0.4h-10.7
									v3.9c9.9,0,15.4-0.5,16.6-1.4C302.7,106.6,303.3,105.2,303.3,103.6z"/>
							</g>
						</g>
						<g id="Group_14">
							<g id="Graphic_15">
								<path d="M311.8,91.4v-3.9h-4.3v3.9H311.8L311.8,91.4z M311.8,109V93.2h-4.3V109H311.8z"/>
							</g>
						</g>
						<g id="Group_12">
							<g id="Graphic_13">
								<path d="M336.2,109c0-8.8-0.5-13.6-1.6-14.6c-1-0.8-2.5-1.3-4.4-1.3h-14.7V109h3.8V96.7h4.5V109h4V96.7l1.2-0.1h1.5
									c0.6,0,1.1,0.2,1.4,0.7c0.4,0.4,0.5,1.2,0.5,2.2v9.5C332.4,109,336.2,109,336.2,109z"/>
							</g>
						</g>
						<g id="Group_10">
							<g id="Graphic_11">
								<path d="M356.8,101.2v-0.9l-0.1-1c-0.1-0.4-0.1-0.7-0.3-1l-0.2-0.7c-0.6-1.5-1.5-2.6-2.6-3.3c-1.2-0.7-2.5-1.1-4.1-1.1h-7.6
									v21.5h4V109h3.3c0.5,0,0.8,0,0.9,0c0,0,0.1,0,0.3,0c0.3,0,0.5-0.1,0.6-0.1l1.6-0.4c1.2-0.4,2.1-1.1,2.7-1.9
									c0.7-0.9,1.1-1.8,1.3-2.8c0-0.1,0.1-0.3,0.1-0.5c0-0.1,0-0.1,0-0.1c0-0.1,0-0.3,0.1-0.7L356.8,101.2z M352.6,101.2
									c0,1.8-0.5,3-1.4,3.7c-0.7,0.5-2,0.8-4,0.8h-1.5v-9l1.3-0.1h2.1c1,0,1.7,0.3,2.4,1C352.2,98.2,352.6,99.4,352.6,101.2z"/>
							</g>
						</g>
						<g id="Group_8">
							<g id="Graphic_9">
								<rect x="360" y="87.4" width="4.3" height="21.6"/>
							</g>
						</g>
						<g id="Group_6">
							<g id="Graphic_7">
								<path d="M380.2,109v-3.3c-4.7,0-7.4-0.2-7.9-0.4c-0.7-0.5-1-1.3-1-2.5h8.9v-3.3h-8.9c0-1.2,0.4-2.1,1-2.5
									c0.5-0.3,1.4-0.5,2.6-0.5h5.2v-3.3c-6.3,0-10,0.7-11.3,2c-1.3,1.4-1.9,3.3-1.9,5.9s0.7,4.6,2,5.9c1.3,1.4,3.2,2,5.5,2
									L380.2,109L380.2,109z"/>
							</g>
						</g>
					</g>
				</g>
			</g>
		</g>
		<g id="Graphic_63">
			<path d="M496.4,31.6v-3.2h2c0.3,0,0.6,0,0.9,0.1c0.3,0,0.6,0.1,0.8,0.2c0.2,0.1,0.4,0.3,0.6,0.4c0.2,0.2,0.2,0.5,0.2,0.8
				c0,0.7-0.2,1.2-0.7,1.4s-1,0.3-1.7,0.3L496.4,31.6L496.4,31.6z M494,26.5v12.2h2.4v-5.2h1.5l3,5.2h2.5l-3.2-5.3
				c0.4,0,0.9-0.1,1.2-0.3c0.4-0.1,0.7-0.3,1-0.6s0.5-0.6,0.7-1s0.2-0.9,0.2-1.4c0-1.3-0.4-2.2-1.2-2.8c-0.8-0.5-2-0.8-3.5-0.8
				L494,26.5L494,26.5L494,26.5z M490.1,32.6c0-1.2,0.2-2.4,0.6-3.4s1-1.9,1.7-2.7c0.7-0.8,1.6-1.3,2.6-1.8c1-0.4,2.1-0.6,3.2-0.6
				s2.2,0.2,3.2,0.6s1.9,1,2.6,1.8s1.3,1.6,1.8,2.7c0.4,1,0.7,2.2,0.7,3.4c0,1.2-0.2,2.4-0.7,3.4c-0.4,1-1,1.9-1.8,2.7
				c-0.7,0.8-1.6,1.4-2.6,1.8c-1,0.4-2.1,0.6-3.2,0.6s-2.2-0.2-3.2-0.6c-1-0.4-1.9-1-2.6-1.8s-1.3-1.7-1.7-2.7
				S490.1,33.9,490.1,32.6z M487.1,32.6c0,1.7,0.3,3.2,0.9,4.5s1.4,2.5,2.5,3.4c1,0.9,2.2,1.7,3.6,2.2s2.8,0.8,4.2,0.8
				c1.5,0,2.9-0.3,4.2-0.8s2.5-1.2,3.6-2.2s1.8-2.1,2.5-3.4c0.6-1.3,0.9-2.8,0.9-4.5c0-1.6-0.3-3.1-0.9-4.5
				c-0.6-1.3-1.4-2.5-2.5-3.4c-1-0.9-2.2-1.7-3.6-2.2c-1.3-0.5-2.8-0.8-4.2-0.8c-1.5,0-2.9,0.3-4.2,0.8c-1.3,0.5-2.5,1.2-3.6,2.2
				c-1,0.9-1.8,2.1-2.5,3.4C487.5,29.5,487.1,31,487.1,32.6z"/>
		</g>
	</g>
</g>
</svg>
