<?xml version="1.0" encoding="UTF-8"?>
<!-- Generator: Adobe Illustrator 27.0.1, SVG Export Plug-In . SVG Version: 6.00 Build 0)  -->
<svg xmlns:dc="http://purl.org/dc/elements/1.1/" xmlns:xl="http://www.w3.org/1999/xlink" xmlns="http://www.w3.org/2000/svg" xmlns:xlink="http://www.w3.org/1999/xlink" version="1.1" id="Layer_1" x="0px" y="0px" viewBox="0 0 63.1 68.5" style="enable-background:new 0 0 63.1 68.5;" xml:space="preserve">
<style type="text/css">
	.st0{display:none;}
	.st1{display:inline;}
	.st2{fill:#307FE2;}
	.st3{fill:url(#SVGID_1_);}
	.st4{fill:#FFDF00;}
	.st5{fill:url(#SVGID_00000013151637441335907780000016293266673482493109_);}
	.st6{fill:url(#SVGID_00000036211025227046903800000014683326731233983163_);}
	.st7{fill:#FFFFFF;}
	.st8{fill:#FBDF2E;}
</style>
<g id="Canvas_1">
	<g id="Canvas_x5F_1:_Layer_1">
		<g id="Group_2">
			<g id="Group_3">
				<g id="Group_4">
					<g id="Group_59" class="st0">
						<g id="Graphic_60" class="st1">
							<path class="st2" d="M0,0.1v24l0.2,5.2l0.1,4c1.5,21.4,12.3,24,31.2,35.1c19-11.1,25.9-12,30.4-34.8l0.4-4.3l0.3-4.8L63.1,0         c-0.8,0.3-1.6,0.7-2.6,1c-16,6-42,6-58.1,0C1.6,0.8,0.7,0.5,0,0.1z"></path>
						</g>
					</g>
					<g id="Group_4_1_" class="st0">
						<g id="Group_59_1_" class="st1">
							<g id="Graphic_60_1_">
								
									<linearGradient id="SVGID_1_" gradientUnits="userSpaceOnUse" x1="56.5963" y1="1400.0863" x2="34.8243" y2="1362.376" gradientTransform="matrix(1 0 0 1 0 -1336)">
									<stop offset="9.848528e-02" style="stop-color:#307FE2"></stop>
									<stop offset="0.7601" style="stop-color:#5D8EF0"></stop>
									<stop offset="1" style="stop-color:#6A96F1"></stop>
								</linearGradient>
								<path class="st3" d="M3.5,46.9c2.3,7.5,18.1,17,28.1,21.6c19-11.1,25.9-12,30.4-34.8l0.4-4.3l0.7-29.2          C63.2,0.1,32.5,47.4,3.5,46.9z"></path>
							</g>
						</g>
					</g>
					<g id="Group_57" class="st0">
						<g id="Graphic_58" class="st1">
							<path class="st4" d="M26.6,28.1l9.7,0.3l3.2-5.6l-6.9-0.2l8.4-8.7L40.7,13c-0.1,0-0.1,0-0.2,0.1h-0.3h-0.4         c-1.9,0-3.7-0.3-5.4-0.7c-2.5-0.7-4.6-1.6-6.2-2.6l-11.8,9.5v14.2c0,0.5,0,0.9,0,1.2c0,0.3-0.1,0.7-0.1,1         c-0.2,1.1-0.9,2.2-2.1,3.3c-2.2-3.3-3.3-7.2-3.3-11.5c0-5.2,2.9-9.9,8.6-14.1l-0.5-1c-4.2,2.3-7.3,4.9-9.3,7.7         c-2.4,3.3-3.5,7.1-3.5,11.6c0,5.6,1.8,10.3,5.4,14.2c3.7,3.9,8.2,5.8,13.5,5.8c3.4,0,6.7-1,9.8-2.9c2.8-1.9,5.1-4.4,7-7.7         l-0.5-0.4c-4.8,3.6-9.8,5.4-14.9,5.2L26.6,28.1L26.6,28.1z M25.3,14.4V46c-4.2-0.7-7.6-2.6-10.3-6c3.1-2.7,4.8-4.1,4.9-4.3         c1.5-1.7,2.2-3.7,2.2-6.2V17L25.3,14.4z M26.6,26.9V15.1c2.6,1.6,5.4,2.6,8.5,3.1L26.6,26.9z"></path>
						</g>
					</g>
					<g id="Shield">
						<g>
							<path class="st2" d="M0.2,0c8.9,3.7,20.1,5.6,31.4,5.6c0,2.8,0,62.7,0,62.7l0,0h-0.1C0.2,55.1,0.2,46.7,0.2,0z"></path>
						</g>
						<g>
							<path class="st2" d="M63.1,0C54.2,3.7,43,5.6,31.7,5.6c-4.5,6.4,0,62.7,0,62.7l0,0h0.1C63.2,55.1,63.1,46.7,63.1,0z"></path>
						</g>
					</g>
					<g id="Shield_Gradient_Overlay">
						
							<linearGradient id="SVGID_00000154423469613249444620000012690702509389712279_" gradientUnits="userSpaceOnUse" x1="62.6684" y1="-332.5008" x2="61.9874" y2="-331.3212" gradientTransform="matrix(1 0 0 -1 0 -330.6771)">
							<stop offset="9.848500e-02" style="stop-color:#307FE2"></stop>
							<stop offset="0.7601" style="stop-color:#5D8EF0"></stop>
							<stop offset="1" style="stop-color:#6A96F1"></stop>
						</linearGradient>
						<path style="fill:url(#SVGID_00000154423469613249444620000012690702509389712279_);" d="M63.1,0c-0.5,0.7-1,1.6-1.6,2.4        C62.1,1.6,62.6,0.8,63.1,0z"></path>
						
							<linearGradient id="SVGID_00000066476571111258669600000016444057760988102574_" gradientUnits="userSpaceOnUse" x1="53.0098" y1="-387.9167" x2="30.7466" y2="-349.3556" gradientTransform="matrix(1 0 0 -1 0 -330.6771)">
							<stop offset="9.848500e-02" style="stop-color:#307FE2"></stop>
							<stop offset="0.7601" style="stop-color:#5D8EF0"></stop>
							<stop offset="1" style="stop-color:#6A96F1"></stop>
						</linearGradient>
						<path style="fill:url(#SVGID_00000066476571111258669600000016444057760988102574_);" d="M63.1,0c-0.5,0.8-1,1.6-1.6,2.4        C62.1,1.6,62.6,0.7,63.1,0C36.2,40.2,14.8,45.7,4.2,46.8c3.9,9.5,11.9,15,27.5,21.5l0,0l0,0C63.1,55.1,63.1,46.7,63.1,0z"></path>
					</g>
				</g>
			</g>
		</g>
	</g>
</g>
<g>
	<path class="st7" d="M49.1,13.8c-1.5-1.5-3.5-2.3-6-2.3c-2.3,0-4.3,0.7-6.1,2c-1.8,1.3-3.2,3.1-4.2,5.4c-0.9,2.1-1.4,4.5-1.5,7   c-0.2-0.3-0.4-0.6-0.6-0.9c-0.9-1-2.1-1.7-3.7-2l6.3-5.9l0.6-3.4H18.1l-0.9,4.2h9.6l-5.6,5.3l-0.7,3.5h2.4c1.3,0,2.2,0.2,2.8,0.6   c0.6,0.4,0.9,1,0.9,1.8c0,1-0.4,1.8-1.3,2.4c-0.8,0.6-2,0.9-3.6,0.9c-1.2,0-2.3-0.2-3.4-0.6c-1.1-0.4-2-0.9-2.7-1.5l-2.5,3.9   c1,0.8,2.2,1.5,3.6,1.9c1.4,0.5,3,0.7,4.7,0.7c2,0,3.8-0.3,5.4-1c1.6-0.7,2.8-1.6,3.7-2.8c0.6-0.9,1-1.8,1.2-2.8   c0.4,1,0.9,1.9,1.6,2.7c1.5,1.5,3.5,2.3,6,2.3c2.3,0,4.3-0.7,6.1-2c1.8-1.3,3.2-3.1,4.2-5.4c1-2.3,1.5-4.8,1.5-7.5   C51.3,17.4,50.5,15.3,49.1,13.8z M45.3,24.9c-0.5,1.6-1.2,3-2.1,4c-0.9,1.1-2,1.6-3.3,1.6c-1.1,0-1.9-0.4-2.5-1.1   c-0.6-0.7-0.9-1.8-0.9-3.2c0-1.5,0.2-3,0.7-4.6c0.5-1.6,1.2-3,2.1-4c0.9-1.1,2-1.6,3.3-1.6c1.1,0,1.9,0.4,2.5,1.1   c0.6,0.7,0.9,1.8,0.9,3.2C46,21.7,45.8,23.3,45.3,24.9z"></path>
	<path class="st7" d="M52.3,37.2c-3.5-0.7-8.3-1.3-12.8-0.8c-8.8,0.8-13.9,3.4-16.1,4.7c0,0,7.1-2.9,14.8-2.9c3.8,0,6.9,0.6,8.9,1.1   L52.3,37.2z"></path>
	<path class="st8" d="M51.9,36.4c0,0-8.8-1.9-17.9,0s-13.8,6-13.8,6l-9-0.8c0,0,9.5-6.7,20.2-7.7S49,35,51.9,36.4z"></path>
	<g>
		<path class="st7" d="M33.5,32.7c-1.5-1.5-2.2-3.6-2.2-6.3c0-2.7,0.5-5.2,1.5-7.5c1-2.3,2.4-4.1,4.2-5.4c1.8-1.3,3.8-2,6.1-2    c2.5,0,4.5,0.8,6,2.3c1.5,1.5,2.2,3.6,2.2,6.3c0,2.7-0.5,5.2-1.5,7.5c-1,2.3-2.4,4.1-4.2,5.4c-1.8,1.3-3.8,2-6.1,2    C36.9,35,34.9,34.2,33.5,32.7z M43.2,28.9c0.9-1.1,1.6-2.4,2.1-4c0.5-1.6,0.7-3.2,0.7-4.6c0-1.4-0.3-2.5-0.9-3.2    c-0.6-0.7-1.4-1.1-2.5-1.1c-1.3,0-2.3,0.5-3.3,1.6c-0.9,1.1-1.6,2.4-2.1,4c-0.5,1.6-0.7,3.2-0.7,4.6c0,1.4,0.3,2.5,0.9,3.2    c0.6,0.7,1.4,1.1,2.5,1.1C41.2,30.5,42.3,30,43.2,28.9z"></path>
	</g>
</g>
<g>
	<path class="st7" d="M15.8,52.3l0.6-3l0.2,1.2l-2.1-5.2h2l1.5,3.8l-1.2,0l3.1-3.8h2l-4.2,5.2l0.7-1.2l-0.6,3H15.8z"></path>
	<path class="st7" d="M23.2,50.8h3.7l-0.3,1.5h-5.6l1.4-7h5.5l-0.3,1.5H24L23.2,50.8z M23.6,48h3.2l-0.3,1.5h-3.2L23.6,48z"></path>
	<path class="st7" d="M26.8,52.3l4.5-7h1.9l1.7,7h-2l-1.2-6.1h0.8l-3.6,6.1H26.8z M28.8,51l0.8-1.5H33l0.2,1.5H28.8z"></path>
	<path class="st7" d="M35.5,52.3l1.4-7h3c0.9,0,1.6,0.2,2.1,0.6c0.5,0.4,0.7,0.9,0.7,1.6c0,0.6-0.1,1.1-0.4,1.5   c-0.3,0.4-0.7,0.8-1.2,1c-0.5,0.2-1.1,0.4-1.8,0.4H37l1.1-0.8l-0.5,2.7H35.5z M38,49.9l-0.7-0.9h2.1c0.4,0,0.8-0.1,1-0.3   c0.2-0.2,0.4-0.5,0.4-0.9c0-0.3-0.1-0.5-0.3-0.7c-0.2-0.1-0.5-0.2-0.8-0.2h-1.9l1.1-0.9L38,49.9z M39.9,52.3l-1.4-2.5h2l1.5,2.5   H39.9z"></path>
	<path class="st7" d="M45.5,52.5c-0.4,0-0.8,0-1.1-0.1c-0.4-0.1-0.7-0.2-1-0.3c-0.3-0.1-0.6-0.2-0.8-0.4l0.8-1.5   c0.2,0.1,0.5,0.3,0.7,0.4c0.3,0.1,0.5,0.2,0.8,0.2c0.3,0.1,0.5,0.1,0.8,0.1c0.3,0,0.5,0,0.6-0.1c0.2-0.1,0.3-0.1,0.4-0.2   c0.1-0.1,0.1-0.2,0.1-0.3c0-0.1-0.1-0.3-0.2-0.3c-0.1-0.1-0.3-0.2-0.5-0.2c-0.2-0.1-0.4-0.1-0.7-0.2c-0.2-0.1-0.5-0.1-0.7-0.2   c-0.2-0.1-0.5-0.2-0.7-0.3c-0.2-0.1-0.4-0.3-0.5-0.5c-0.1-0.2-0.2-0.5-0.2-0.8c0-0.5,0.1-0.9,0.4-1.3s0.7-0.7,1.2-0.9   c0.5-0.2,1.1-0.3,1.8-0.3c0.5,0,1,0.1,1.4,0.2c0.4,0.1,0.8,0.3,1.1,0.4l-0.7,1.5c-0.3-0.2-0.6-0.3-0.9-0.4s-0.7-0.1-1-0.1   c-0.3,0-0.5,0-0.7,0.1c-0.2,0.1-0.3,0.1-0.4,0.2s-0.1,0.2-0.1,0.3c0,0.1,0.1,0.2,0.2,0.3s0.3,0.2,0.5,0.2c0.2,0.1,0.4,0.1,0.7,0.2   c0.2,0.1,0.5,0.1,0.7,0.2c0.2,0.1,0.5,0.2,0.7,0.3c0.2,0.1,0.4,0.3,0.5,0.5c0.1,0.2,0.2,0.5,0.2,0.8c0,0.5-0.1,0.9-0.4,1.3   s-0.7,0.7-1.2,0.9C46.8,52.4,46.2,52.5,45.5,52.5z"></path>
</g>
</svg>
