<?xml version="1.0" encoding="utf-8"?>
<!-- Generator: Adobe Illustrator 26.0.2, SVG Export Plug-In . SVG Version: 6.00 Build 0)  -->
<svg version="1.1" id="Livello_1" xmlns="http://www.w3.org/2000/svg" xmlns:xlink="http://www.w3.org/1999/xlink" x="0px" y="0px"
	 viewBox="0 0 1133.9 1133.9" style="enable-background:new 0 0 1133.9 1133.9;" xml:space="preserve">
<style type="text/css">
	.st0{display:none;fill:#EBF1F2;}
	.st1{display:none;fill:#E0E0E0;}
	.st2{fill:#3D4A4C;}
	.st3{fill:#418FDE;}
</style>
<rect x="0" y="0" class="st0" width="1133.9" height="1133.9"/>
<path class="st1" d="M1133.9,1133.9V589.4c-0.1-0.1-0.3-0.3-0.4-0.4c-0.3-0.3-0.6-0.7-1-1c-0.3-0.3-0.6-0.6-1-1
	c-0.3-0.3-0.6-0.7-1-1c-0.3-0.3-0.6-0.6-1-1c-0.3-0.3-0.6-0.7-1-1c-0.3-0.3-0.6-0.6-1-1c-0.3-0.3-0.6-0.7-1-1c-0.3-0.3-0.6-0.7-1-1
	c-0.3-0.3-0.6-0.6-1-1c-0.3-0.3-0.6-0.6-1-1c-0.3-0.3-0.6-0.6-1-1c-0.3-0.3-0.6-0.7-1-1c-0.3-0.3-0.6-0.6-1-1c-0.3-0.3-0.6-0.6-1-1
	c-0.3-0.3-0.6-0.6-1-1c-0.3-0.3-0.6-0.7-1-1c-0.3-0.3-0.6-0.6-1-1c-0.3-0.3-0.6-0.6-1-1c-0.3-0.3-0.6-0.6-1-1c-0.3-0.3-0.6-0.7-1-1
	c-0.3-0.3-0.6-0.6-1-1c-0.3-0.3-0.6-0.6-1-1c-0.3-0.3-0.6-0.6-1-1c-0.3-0.3-0.6-0.7-1-1c-0.3-0.3-0.6-0.7-1-1c-0.3-0.3-0.6-0.6-1-1
	c-0.3-0.3-0.6-0.6-1-1c-0.3-0.3-0.6-0.6-1-1c-0.3-0.3-0.6-0.7-1-1c-0.3-0.3-0.6-0.6-1-1c-0.3-0.3-0.6-0.6-1-1c-0.3-0.3-0.6-0.6-1-1
	c-0.3-0.3-0.6-0.7-1-1c-0.3-0.3-0.6-0.6-1-1c-0.3-0.3-0.6-0.6-1-1c-0.3-0.3-0.6-0.6-1-1c-0.3-0.3-0.6-0.7-1-1c-0.3-0.3-0.6-0.7-1-1
	c-0.3-0.3-0.6-0.6-1-1c-0.3-0.3-0.6-0.6-1-1c-0.3-0.3-0.6-0.6-1-1c-0.3-0.3-0.6-0.7-1-1c-0.3-0.3-0.6-0.6-1-1c-0.3-0.3-0.6-0.7-1-1
	c-0.3-0.3-0.6-0.6-1-1c-0.3-0.3-0.6-0.7-1-1c-0.3-0.3-0.6-0.6-1-1c-0.3-0.3-0.6-0.7-1-1c-0.3-0.3-0.6-0.6-1-1c-0.3-0.3-0.6-0.6-1-1
	c-0.3-0.3-0.6-0.7-1-1c-0.3-0.3-0.6-0.6-1-1c-0.3-0.3-0.6-0.6-1-1c-0.3-0.3-0.6-0.6-1-1c-0.3-0.3-0.6-0.7-1-1c-0.3-0.3-0.6-0.6-1-1
	c-0.3-0.3-0.6-0.7-1-1c-0.3-0.3-0.6-0.6-1-1c-0.3-0.3-0.6-0.7-1-1c-0.3-0.3-0.6-0.6-1-1c-0.3-0.3-0.6-0.6-1-1c-0.3-0.3-0.6-0.6-1-1
	c-0.3-0.3-0.6-0.7-1-1c-0.3-0.3-0.6-0.6-1-1c-0.3-0.3-0.6-0.6-1-1c-0.3-0.3-0.6-0.6-1-1c-0.3-0.3-0.6-0.6-1-1c-0.3-0.3-0.6-0.7-1-1
	c-0.3-0.3-0.6-0.6-1-1c-0.3-0.3-0.6-0.6-1-1c-0.3-0.3-0.6-0.6-1-1c-0.3-0.3-0.6-0.7-1-1c-0.3-0.3-0.6-0.6-1-1c-0.3-0.3-0.6-0.6-1-1
	c-0.3-0.3-0.6-0.6-1-1c-0.3-0.3-0.6-0.7-1-1c-0.3-0.3-0.6-0.6-1-1c-0.3-0.3-0.6-0.6-1-1c-0.3-0.3-0.6-0.6-1-1c-0.3-0.3-0.6-0.7-1-1
	c-0.3-0.3-0.6-0.7-1-1c-0.3-0.3-0.6-0.6-1-1c-0.3-0.3-0.6-0.6-1-1c-0.3-0.3-0.6-0.6-1-1c-0.3-0.3-0.6-0.7-1-1c-0.3-0.3-0.6-0.6-1-1
	c-0.3-0.3-0.6-0.6-1-1c-0.3-0.3-0.6-0.6-1-1c-0.3-0.3-0.6-0.7-1-1c-0.3-0.3-0.6-0.6-1-1c-0.3-0.3-0.6-0.6-1-1c-0.3-0.3-0.6-0.6-1-1
	c-0.3-0.3-0.6-0.7-1-1c-0.3-0.3-0.6-0.7-1-1c-0.3-0.3-0.6-0.6-1-1c-0.3-0.3-0.6-0.6-1-1c-0.3-0.3-0.6-0.6-1-1c-0.3-0.3-0.6-0.7-1-1
	c-0.3-0.3-0.6-0.6-1-1c-0.3-0.3-0.6-0.6-1-1c-0.3-0.3-0.6-0.6-1-1c-0.3-0.3-0.6-0.7-1-1c-0.3-0.3-0.6-0.6-1-1c-0.3-0.3-0.6-0.6-1-1
	c-0.3-0.3-0.6-0.6-1-1c-0.3-0.3-0.6-0.6-1-1c-0.3-0.3-0.6-0.7-1-1c-0.3-0.3-0.6-0.6-1-1c-0.3-0.3-0.6-0.6-1-1c-0.3-0.3-0.6-0.6-1-1
	c-0.3-0.3-0.6-0.7-1-1c-0.3-0.3-0.6-0.6-1-1c-0.3-0.3-0.6-0.6-1-1c-0.3-0.3-0.6-0.6-1-1c-0.3-0.3-0.6-0.7-1-1c-0.3-0.3-0.6-0.6-1-1
	c-0.3-0.3-0.6-0.6-1-1c-0.3-0.3-0.6-0.6-1-1c-0.3-0.3-0.6-0.7-1-1c-0.3-0.3-0.6-0.6-1-1c-0.3-0.3-0.6-0.6-1-1c-0.3-0.3-0.6-0.6-1-1
	c-0.3-0.3-0.6-0.7-1-1c-0.3-0.3-0.6-0.7-1-1c-0.3-0.3-0.6-0.6-1-1c-0.3-0.3-0.6-0.6-1-1c-0.3-0.3-0.6-0.6-1-1c-0.3-0.3-0.6-0.7-1-1
	c-0.3-0.3-0.6-0.6-1-1c-0.3-0.3-0.6-0.6-1-1c-0.3-0.3-0.6-0.6-1-1c-0.3-0.3-0.6-0.7-1-1c-0.3-0.3-0.6-0.6-1-1c-0.3-0.3-0.6-0.6-1-1
	c-0.3-0.3-0.6-0.6-1-1c-0.3-0.3-0.6-0.6-1-1c-0.3-0.3-0.6-0.7-1-1c-0.3-0.3-0.6-0.6-1-1c-0.3-0.3-0.6-0.6-1-1c-0.3-0.3-0.6-0.6-1-1
	c-0.3-0.3-0.6-0.7-1-1c-0.3-0.3-0.6-0.6-1-1c-0.3-0.3-0.6-0.7-1-1c-0.3-0.3-0.6-0.6-1-1c-0.3-0.3-0.6-0.7-1-1c-0.3-0.3-0.6-0.7-1-1
	c-0.3-0.3-0.6-0.6-1-1c-0.3-0.3-0.6-0.6-1-1c-0.3-0.3-0.6-0.6-1-1c-0.3-0.3-0.6-0.7-1-1c-0.3-0.3-0.6-0.6-1-1c-0.3-0.3-0.6-0.6-1-1
	c-0.3-0.3-0.6-0.6-1-1c-0.3-0.3-0.6-0.7-1-1c-0.3-0.3-0.6-0.6-1-1c-0.3-0.3-0.6-0.6-1-1c-0.3-0.3-0.6-0.6-1-1c-0.3-0.3-0.6-0.7-1-1
	c-0.3-0.3-0.6-0.6-1-1c-0.3-0.3-0.6-0.6-1-1c-0.3-0.3-0.6-0.6-1-1c-0.3-0.3-0.6-0.7-1-1c-0.3-0.3-0.6-0.7-1-1c-0.3-0.3-0.6-0.6-1-1
	c-0.3-0.3-0.6-0.6-1-1c-0.3-0.3-0.6-0.6-1-1c-0.3-0.3-0.6-0.7-1-1c-0.3-0.3-0.6-0.6-1-1c-0.3-0.3-0.6-0.6-1-1c-0.3-0.3-0.6-0.6-1-1
	c-0.3-0.3-0.6-0.7-1-1c-0.3-0.3-0.6-0.6-1-1c-0.3-0.3-0.6-0.6-1-1c-0.3-0.3-0.6-0.6-1-1c-0.3-0.3-0.6-0.7-1-1c-0.3-0.3-0.6-0.6-1-1
	c-0.3-0.3-0.6-0.6-1-1c-0.3-0.3-0.6-0.6-1-1c-0.3-0.3-0.6-0.6-1-1c-0.3-0.3-0.6-0.7-1-1c-0.3-0.3-0.6-0.6-1-1c-0.3-0.3-0.6-0.6-1-1
	c-0.3-0.3-0.6-0.6-1-1c-0.3-0.3-0.6-0.7-1-1c-0.3-0.3-0.6-0.6-1-1c-0.3-0.3-0.6-0.6-1-1c-0.3-0.3-0.6-0.6-1-1c-0.3-0.3-0.6-0.7-1-1
	c-0.3-0.3-0.6-0.7-1-1c-0.3-0.3-0.6-0.6-1-1c-0.3-0.3-0.6-0.6-1-1c-0.3-0.3-0.6-0.6-1-1c-0.3-0.3-0.6-0.7-1-1c-0.3-0.3-0.6-0.6-1-1
	c-0.3-0.3-0.6-0.6-1-1c-0.3-0.3-0.6-0.6-1-1c-0.3-0.3-0.6-0.7-1-1c-0.3-0.3-0.6-0.6-1-1c-0.3-0.3-0.6-0.6-1-1c-0.3-0.3-0.6-0.6-1-1
	c-0.3-0.3-0.6-0.7-1-1c-0.3-0.3-0.6-0.7-1-1c-0.3-0.3-0.6-0.6-1-1c-0.3-0.3-0.6-0.6-1-1c-0.3-0.3-0.6-0.7-1-1c-0.3-0.3-0.6-0.7-1-1
	c-0.3-0.3-0.6-0.6-1-1c-0.3-0.3-0.6-0.6-1-1c-0.3-0.3-0.6-0.6-1-1c-0.3-0.3-0.6-0.7-1-1c-0.3-0.3-0.6-0.6-1-1c-0.3-0.3-0.6-0.6-1-1
	c-0.3-0.3-0.6-0.6-1-1c-0.3-0.3-0.6-0.7-1-1c-0.3-0.3-0.6-0.6-1-1c-0.3-0.3-0.6-0.6-1-1c-0.3-0.3-0.6-0.6-1-1c-0.3-0.3-0.6-0.7-1-1
	c-0.3-0.3-0.6-0.7-1-1c-0.3-0.3-0.6-0.6-1-1c-0.3-0.3-0.6-0.6-1-1c-0.3-0.3-0.6-0.6-1-1c-0.3-0.3-0.6-0.7-1-1c-0.3-0.3-0.6-0.6-1-1
	c-0.3-0.3-0.6-0.6-1-1c-0.3-0.3-0.6-0.6-1-1c-0.3-0.3-0.6-0.7-1-1c-0.3-0.3-0.6-0.6-1-1c-0.3-0.3-0.6-0.6-1-1c-0.3-0.3-0.6-0.6-1-1
	c-0.3-0.3-0.6-0.6-1-1c-0.3-0.3-0.6-0.7-1-1c-0.3-0.3-0.6-0.6-1-1c-0.3-0.3-0.6-0.6-1-1c-0.3-0.3-0.6-0.6-1-1c-0.3-0.3-0.6-0.7-1-1
	c-0.3-0.3-0.6-0.6-1-1c-0.3-0.3-0.6-0.7-1-1c-0.3-0.3-0.6-0.6-1-1c-0.3-0.3-0.6-0.7-1-1c-0.3-0.3-0.6-0.7-1-1c-0.3-0.3-0.6-0.6-1-1
	c-0.3-0.3-0.6-0.6-1-1c-0.3-0.3-0.6-0.7-1-1c-0.3-0.3-0.6-0.7-1-1c-0.3-0.3-0.6-0.6-1-1c-0.3-0.3-0.6-0.6-1-1c-0.3-0.3-0.6-0.6-1-1
	c-0.3-0.3-0.6-0.7-1-1c-0.3-0.3-0.6-0.6-1-1c-0.3-0.3-0.6-0.6-1-1c-0.3-0.3-0.6-0.6-1-1c-0.3-0.3-0.6-0.7-1-1c-0.3-0.3-0.6-0.6-1-1
	c-0.3-0.3-0.6-0.6-1-1c-0.3-0.3-0.6-0.6-1-1c-0.3-0.3-0.6-0.7-1-1c-0.3-0.3-0.6-0.7-1-1c-0.3-0.3-0.6-0.6-1-1c-0.3-0.3-0.6-0.6-1-1
	c-0.3-0.3-0.6-0.7-1-1c-0.3-0.3-0.6-0.7-1-1c-0.3-0.3-0.6-0.6-1-1c-0.3-0.3-0.6-0.6-1-1c-0.3-0.3-0.6-0.6-1-1c-0.3-0.3-0.6-0.7-1-1
	c-0.3-0.3-0.6-0.6-1-1c-0.3-0.3-0.6-0.6-1-1c-0.3-0.3-0.6-0.6-1-1c-0.3-0.3-0.6-0.7-1-1c-0.3-0.3-0.6-0.6-1-1c-0.3-0.3-0.6-0.6-1-1
	c-0.3-0.3-0.6-0.6-1-1c-0.3-0.3-0.6-0.6-1-1c-0.3-0.3-0.6-0.7-1-1c-0.3-0.3-0.6-0.6-1-1c-0.3-0.3-0.6-0.6-1-1c-0.3-0.3-0.6-0.6-1-1
	c-0.3-0.3-0.6-0.7-1-1c-0.3-0.3-0.6-0.6-1-1c-0.3-0.3-0.6-0.7-1-1c-0.3-0.3-0.6-0.6-1-1c-0.3-0.3-0.6-0.7-1-1c-0.3-0.3-0.6-0.7-1-1
	c-0.3-0.3-0.6-0.6-1-1c-0.3-0.3-0.6-0.6-1-1c-0.3-0.3-0.6-0.7-1-1c-0.3-0.3-0.6-0.7-1-1c-0.3-0.3-0.6-0.6-1-1c-0.3-0.3-0.6-0.6-1-1
	c-0.3-0.3-0.6-0.6-1-1c-0.3-0.3-0.6-0.7-1-1c-0.3-0.3-0.6-0.6-1-1c-0.3-0.3-0.6-0.6-1-1c-0.3-0.3-0.6-0.6-1-1c-0.3-0.3-0.6-0.7-1-1
	c-0.3-0.3-0.6-0.6-1-1c-0.3-0.3-0.6-0.6-1-1c-0.3-0.3-0.6-0.6-1-1c-0.3-0.3-0.6-0.7-1-1c-0.3-0.3-0.6-0.7-1-1c-0.3-0.3-0.6-0.6-1-1
	c-0.3-0.3-0.6-0.6-1-1c-0.3-0.3-0.6-0.7-1-1c-0.3-0.3-0.6-0.7-1-1c-0.3-0.3-0.6-0.6-1-1c-0.3-0.3-0.6-0.6-1-1c-0.3-0.3-0.6-0.6-1-1
	c-0.3-0.3-0.6-0.7-1-1c-0.3-0.3-0.6-0.6-1-1c-0.3-0.3-0.6-0.6-1-1c-0.3-0.3-0.6-0.6-1-1c-0.3-0.3-0.6-0.7-1-1c-0.3-0.3-0.6-0.7-1-1
	c-0.3-0.3-0.6-0.6-1-1c-0.3-0.3-0.6-0.6-1-1c-0.3-0.3-0.6-0.6-1-1c-0.3-0.3-0.6-0.7-1-1c-0.3-0.3-0.6-0.6-1-1c-0.3-0.3-0.6-0.6-1-1
	c-0.3-0.3-0.6-0.6-1-1c-0.3-0.3-0.6-0.7-1-1c-0.3-0.3-0.6-0.6-1-1c-0.3-0.3-0.6-0.6-1-1c-0.3-0.3-0.6-0.6-1-1c-0.3-0.3-0.6-0.7-1-1
	c-0.3-0.3-0.6-0.7-1-1c-0.3-0.3-0.6-0.6-1-1c-0.3-0.3-0.6-0.6-1-1c-0.3-0.3-0.6-0.6-1-1c-0.3-0.3-0.6-0.7-1-1c-0.3-0.3-0.6-0.6-1-1
	c-0.3-0.3-0.6-0.6-1-1c-0.3-0.3-0.6-0.6-1-1c-0.3-0.3-0.6-0.7-1-1c-0.3-0.3-0.6-0.6-1-1c-0.3-0.3-0.6-0.7-1-1c-0.3-0.3-0.6-0.6-1-1
	c-0.3-0.3-0.6-0.7-1-1c-0.3-0.3-0.6-0.7-1-1c-0.3-0.3-0.6-0.6-1-1c-0.3-0.3-0.6-0.6-1-1c-0.3-0.3-0.6-0.7-1-1c-0.3-0.3-0.6-0.7-1-1
	c-0.3-0.3-0.6-0.6-1-1c-1.4-1.4-2.9-2.8-4.5-4c-7.3-5.6-15.9-8.3-24.4-8.3c-7.1,0-14.1,1.9-20.3,5.5c-4.4,2.6-8.3,6-11.6,10.3
	L719,285.9l-3.1,4.1c-0.2-0.1-0.3-0.2-0.5-0.3l0.2-0.2c-0.4-0.2-0.8-0.5-1.1-0.7l0.2-0.2c-0.4-0.2-0.8-0.5-1.1-0.7l0.2-0.2
	c-0.4-0.2-0.8-0.5-1.1-0.7l0.2-0.2c-0.4-0.2-0.8-0.5-1.1-0.7l0.2-0.2c-0.4-0.2-0.8-0.5-1.1-0.7l0.2-0.2c-0.4-0.2-0.8-0.5-1.1-0.7
	l0.2-0.2c-0.4-0.2-0.8-0.5-1.1-0.7l0.2-0.2c-0.4-0.2-0.8-0.5-1.1-0.7l0.2-0.2c-0.4-0.2-0.8-0.5-1.1-0.7l0.2-0.2
	c-0.4-0.2-0.8-0.5-1.1-0.7l0.2-0.2c-0.4-0.2-0.8-0.5-1.1-0.7l0.2-0.2c-0.4-0.2-0.8-0.5-1.1-0.7l0.2-0.2c-0.4-0.2-0.8-0.5-1.1-0.7
	l0.2-0.2c-0.4-0.2-0.8-0.5-1.1-0.7l0.2-0.2c-0.4-0.2-0.8-0.5-1.1-0.7l0.2-0.2c-0.4-0.2-0.8-0.5-1.1-0.7l0.2-0.2
	c-0.4-0.2-0.8-0.5-1.1-0.7l0.2-0.2c-0.4-0.2-0.8-0.5-1.1-0.7l0.2-0.2c-0.4-0.2-0.8-0.5-1.1-0.7l0.2-0.2c-0.4-0.2-0.8-0.5-1.1-0.7
	l0.2-0.2c-0.4-0.2-0.8-0.5-1.1-0.7l0.2-0.2c-0.4-0.2-0.8-0.5-1.1-0.7l0.2-0.2c-0.4-0.2-0.8-0.5-1.1-0.7l0.2-0.2
	c-0.4-0.2-0.8-0.5-1.1-0.7l0.2-0.2c-0.4-0.2-0.8-0.5-1.1-0.7l0.2-0.2c-36-22.9-78.7-36.3-124.5-36.3
	C438.7,229,334.8,333,334.8,461.1c0,64.4,26.2,122.6,68.5,164.6c0.3,0.3,0.6,0.6,0.9,0.9c0.3,0.3,0.7,0.7,1,1
	c0.3,0.3,0.6,0.6,0.9,0.9c0.3,0.3,0.7,0.7,1,1c0.3,0.3,0.6,0.6,0.9,0.9c0.3,0.3,0.6,0.6,0.9,0.9c0.3,0.3,0.7,0.7,1,1
	c0.3,0.3,0.7,0.7,1,1c0.3,0.3,0.6,0.6,0.9,0.9c0.3,0.3,0.6,0.6,0.9,0.9c0.3,0.3,0.7,0.7,1,1c0.3,0.3,0.6,0.6,1,1
	c0.3,0.3,0.7,0.7,1,1c0.3,0.3,0.6,0.6,0.9,0.9c0.3,0.3,0.6,0.6,1,1c0.3,0.3,0.7,0.7,1,1c0.3,0.3,0.6,0.6,1,1
	c0.3,0.3,0.6,0.6,0.9,0.9c0.3,0.3,0.6,0.6,0.9,0.9c0.3,0.3,0.7,0.7,1,1c0.3,0.3,0.7,0.7,1,1c0.3,0.3,0.6,0.6,0.9,0.9
	c0.3,0.3,0.6,0.6,0.9,0.9c0.3,0.3,0.7,0.7,1,1c0.3,0.3,0.6,0.6,1,1c0.3,0.3,0.7,0.7,1,1c0.3,0.3,0.6,0.6,0.9,0.9
	c0.3,0.3,0.7,0.7,1,1c0.3,0.3,0.6,0.6,1,1c0.3,0.3,0.7,0.7,1,1c0.3,0.3,0.6,0.6,0.9,0.9c0.3,0.3,0.6,0.6,0.9,0.9
	c0.3,0.3,0.7,0.7,1,1c0.3,0.3,0.7,0.7,1,1c0.3,0.3,0.6,0.6,0.9,0.9c0.3,0.3,0.6,0.6,1,1c0.3,0.3,0.7,0.7,1,1c0.3,0.3,0.6,0.6,1,1
	c0.3,0.3,0.7,0.7,1,1c0.3,0.3,0.6,0.6,0.9,0.9c0.3,0.3,0.7,0.7,1,1c0.3,0.3,0.6,0.6,1,1c0.3,0.3,0.7,0.7,1,1
	c0.3,0.3,0.6,0.6,0.9,0.9c0.3,0.3,0.6,0.6,1,1c0.3,0.3,0.6,0.6,0.9,0.9c0.3,0.3,0.7,0.7,1,1c0.3,0.3,0.6,0.6,0.9,0.9
	c0.3,0.3,0.6,0.6,0.9,0.9c0.3,0.3,0.7,0.7,1,1c0.3,0.3,0.6,0.6,1,1c0.3,0.3,0.7,0.7,1,1c0.3,0.3,0.6,0.6,0.9,0.9
	c0.3,0.3,0.7,0.7,1,1c0.3,0.3,0.6,0.6,1,1c0.3,0.3,0.7,0.7,1,1c0.3,0.3,0.6,0.6,0.9,0.9c0.3,0.3,0.7,0.7,1,1c0.3,0.3,0.6,0.6,1,1
	c0.3,0.3,0.7,0.7,1,1c0.3,0.3,0.6,0.6,0.9,0.9c0.3,0.3,0.6,0.6,0.9,0.9c0.3,0.3,0.7,0.7,1,1c0.3,0.3,0.6,0.6,1,1
	c0.3,0.3,0.7,0.7,1,1c0.3,0.3,0.6,0.6,0.9,0.9c0.3,0.3,0.7,0.7,1,1c0.3,0.3,0.6,0.6,1,1c0.3,0.3,0.7,0.7,1,1
	c0.3,0.3,0.6,0.6,0.9,0.9c0.3,0.3,0.7,0.7,1,1c0.3,0.3,0.6,0.6,0.9,0.9c0.3,0.3,0.7,0.7,1,1c0.3,0.3,0.6,0.6,0.9,0.9
	c0.3,0.3,0.6,0.6,0.9,0.9c0.3,0.3,0.7,0.7,1,1c0.3,0.3,0.7,0.7,1,1c0.3,0.3,0.6,0.6,0.9,0.9c0.3,0.3,0.6,0.6,0.9,0.9
	c0.3,0.3,0.7,0.7,1,1c0.3,0.3,0.6,0.6,1,1c0.3,0.3,0.7,0.7,1,1c0.3,0.3,0.6,0.6,0.9,0.9c0.3,0.3,0.7,0.7,1,1c0.3,0.3,0.6,0.6,1,1
	c0.3,0.3,0.7,0.7,1,1c0.3,0.3,0.6,0.6,0.9,0.9c0.3,0.3,0.6,0.6,1,1c0.3,0.3,0.7,0.7,1,1c0.3,0.3,0.7,0.7,1,1
	c0.3,0.3,0.6,0.6,0.9,0.9c0.3,0.3,0.6,0.6,0.9,0.9c0.3,0.3,0.7,0.7,1,1c0.3,0.3,0.6,0.6,1,1c0.3,0.3,0.7,0.7,1,1
	c0.3,0.3,0.6,0.6,0.9,0.9c0.3,0.3,0.7,0.7,1,1c0.3,0.3,0.6,0.6,1,1c0.3,0.3,0.7,0.7,1,1c0.3,0.3,0.6,0.6,0.9,0.9
	c0.3,0.3,0.6,0.6,1,1c0.3,0.3,0.6,0.6,1,1c0.3,0.3,0.7,0.7,1,1c0.3,0.3,0.6,0.6,0.9,0.9c0.3,0.3,0.6,0.6,0.9,0.9
	c0.3,0.3,0.7,0.7,1,1c0.3,0.3,0.6,0.6,1,1c0.3,0.3,0.7,0.7,1,1c0.3,0.3,0.6,0.6,0.9,0.9c0.3,0.3,0.7,0.7,1,1c0.3,0.3,0.6,0.6,1,1
	c0.3,0.3,0.7,0.7,1,1c0.3,0.3,0.6,0.6,0.9,0.9c0.3,0.3,0.7,0.7,1,1c0.3,0.3,0.6,0.6,1,1c0.3,0.3,0.7,0.7,1,1
	c0.3,0.3,0.6,0.6,0.9,0.9c0.3,0.3,0.6,0.6,0.9,0.9c0.3,0.3,0.7,0.7,1,1c0.3,0.3,0.6,0.6,1,1c0.3,0.3,0.7,0.7,1,1
	c0.3,0.3,0.6,0.6,0.9,0.9c0.3,0.3,0.7,0.7,1,1c0.3,0.3,0.6,0.6,1,1c0.3,0.3,0.7,0.7,1,1c0.3,0.3,0.6,0.6,0.9,0.9
	c0.3,0.3,0.7,0.7,1,1c0.3,0.3,0.6,0.6,1,1c0.3,0.3,0.7,0.7,1,1c0.3,0.3,0.6,0.6,0.9,0.9c0.3,0.3,0.6,0.6,1,1c0.3,0.3,0.7,0.7,1,1
	c0.3,0.3,0.7,0.7,1,1c0.3,0.3,0.6,0.6,0.9,0.9c0.3,0.3,0.6,0.6,0.9,0.9c0.3,0.3,0.6,0.6,0.9,0.9c0,0,0.1,0.1,0.1,0.1
	c0.3,0.3,0.6,0.6,1,1c0.3,0.3,0.7,0.7,1,1c0.3,0.3,0.6,0.6,0.9,0.9c0.3,0.3,0.6,0.6,0.9,0.9c0.3,0.3,0.7,0.7,1,1
	c0.3,0.3,0.7,0.7,1,1c0.3,0.3,0.6,0.6,0.9,0.9c0.3,0.3,0.6,0.6,0.9,0.9c0.3,0.3,0.7,0.7,1,1c0.3,0.3,0.7,0.7,1,1
	c0.3,0.3,0.6,0.6,0.9,0.9c0.3,0.3,0.6,0.6,0.9,0.9c0.3,0.3,0.7,0.7,1,1c0.3,0.3,0.6,0.6,1,1c0.3,0.3,0.7,0.7,1,1
	c0.3,0.3,0.6,0.6,0.9,0.9c0.3,0.3,0.7,0.7,1,1c0.3,0.3,0.6,0.6,1,1c0.3,0.3,0.7,0.7,1,1c0.3,0.3,0.6,0.6,0.9,0.9
	c0.3,0.3,0.6,0.6,0.9,0.9c0.3,0.3,0.7,0.7,1,1c0.3,0.3,0.7,0.7,1,1c0.3,0.3,0.6,0.6,0.9,0.9c0.3,0.3,0.6,0.6,0.9,0.9
	c0.3,0.3,0.7,0.7,1,1c0.2,0.2,0.4,0.4,0.6,0.6l-14.5,31.9l-50.7,5.7l1,1l-0.1,0l1,1l-0.1,0l1,1l-0.1,0l1,1l-0.1,0l1,1l-0.1,0l1,1
	l-0.1,0l1,1l-0.1,0l1,1l-0.1,0l1,1l-0.1,0l1,1l-0.1,0l1,1l-0.1,0l1,1l-0.1,0l1,1l-0.1,0l1,1l-0.1,0l1,1l-0.1,0l1,1l-0.1,0l1,1
	l-0.1,0l1,1l-0.1,0l1,1l-0.1,0l1,1l-0.1,0l1,1l-0.1,0l1,1l-0.1,0l1,1l-0.1,0l1,1l-0.1,0l1,1l-0.1,0l1,1l-0.1,0l1,1l-0.1,0l1,1
	l-0.1,0l1,1l-0.1,0l1,1l-0.1,0l1,1l-0.1,0l1,1l-0.1,0l1,1l-0.1,0l1,1l-0.1,0l1,1l-0.1,0l1,1l-0.1,0l1,1l-0.1,0l1,1l-0.1,0l0.4,0.3
	l-3.6,17.9l-0.7-0.1l0.8-0.8l-1.8-0.2l0.8-0.8l-1.8-0.2l0.8-0.8l-1.8-0.2l0.8-0.8l-1.8-0.2l0.8-0.8l-1.8-0.2l0.8-0.8l-1.8-0.2
	l0.8-0.8l-1.8-0.2l0.8-0.8l-1.8-0.2l0.8-0.8l-1.8-0.2l0.8-0.8l-1.8-0.2l0.8-0.8l-1.8-0.2l0.8-0.8l-1.8-0.2l0.8-0.8l-1.8-0.2l0.8-0.8
	l-1.8-0.2l0.8-0.8l-1.8-0.2l0.8-0.8l-1.8-0.2l0.8-0.8l-1.8-0.2l0.8-0.8l-1.8-0.2l0.8-0.8l-1.8-0.2l0.8-0.8l-1.8-0.2l0.8-0.8
	l-1.8-0.2l0.8-0.8l-1.8-0.2l0.8-0.8l-1.8-0.2l0.8-0.8l-1.8-0.2l0.8-0.8l-1.8-0.2l0.8-0.8l-1.8-0.2l0.8-0.8l-1.8-0.2l0.8-0.8
	l-1.8-0.2l0.8-0.8l-1.8-0.2l0.8-0.8l-1.8-0.2l0.8-0.8l-1.8-0.2l0.8-0.8l-1.8-0.2l0.8-0.8l-1.8-0.2l0.8-0.8l-1.8-0.2l0.8-0.8
	l-1.8-0.2l0.8-0.8l-1.8-0.2l0.8-0.8l-1.8-0.2l0.8-0.8l-1.8-0.2l0.8-0.8l-1.8-0.2l0.8-0.8l-1.8-0.2l0.8-0.8l-1.8-0.2l0.8-0.8
	l-1.8-0.2l0.8-0.8l-1.8-0.2l0.8-0.8l-1.8-0.2l0.8-0.8l-1.8-0.2l0.8-0.8l-1.8-0.2l0.8-0.8l-1.8-0.2l0.8-0.8l-1.8-0.2l0.8-0.8
	l-1.8-0.2l0.8-0.8l-1.8-0.2l0.8-0.8l-1.8-0.2l0.8-0.8l-1.8-0.2l0.8-0.8l-1.8-0.2l0.8-0.8l-1.8-0.2l0.8-0.8l-1.8-0.2l0.8-0.8
	l-1.8-0.2l0.8-0.8l-22.3-2.5l-0.2-0.3l-0.1,0.3l-0.3,0l-0.6-1.2l-0.3,0.6l-0.7-1.5l-0.3,0.6l-0.7-1.5l-0.3,0.6l-0.7-1.5l-0.3,0.6
	l-0.7-1.5l-0.3,0.6l-0.7-1.5l-0.3,0.6l-0.7-1.5l-0.3,0.6l-0.7-1.5l-0.3,0.6l-0.7-1.5l-0.3,0.6l-0.7-1.5l-0.3,0.6l-0.7-1.5l-0.3,0.6
	l-0.7-1.5l-0.3,0.6l-0.7-1.5l-0.3,0.6l-0.7-1.5l-0.3,0.6l-0.7-1.5l-0.3,0.6l-0.7-1.5l-0.3,0.6l-0.7-1.5l-0.3,0.6l-0.7-1.5l-0.3,0.6
	l-0.7-1.5l-0.3,0.6l-0.7-1.5l-0.3,0.6l-0.7-1.5l-0.3,0.6l-0.7-1.5l-0.3,0.6l-0.7-1.5l-0.3,0.6l-0.7-1.5l-0.3,0.6l-0.7-1.5l-0.3,0.6
	l-0.7-1.5l-0.3,0.6l-0.7-1.5l-0.3,0.6l-0.7-1.5l-0.3,0.6l-0.7-1.5l-0.3,0.6l-0.7-1.5l-0.3,0.6l-0.7-1.5l-0.3,0.6l-0.7-1.5l-0.3,0.6
	l-0.7-1.5l-0.3,0.6l-0.7-1.5l-0.3,0.6l-0.7-1.5l-0.3,0.6l-0.7-1.5l-0.3,0.6l-0.7-1.5l-0.3,0.6l-0.7-1.5l-0.3,0.6l-0.7-1.5l-0.3,0.6
	l-0.7-1.5l-0.3,0.6l-0.7-1.5l-0.3,0.6l-0.7-1.5l-0.3,0.6l-0.7-1.5l-0.3,0.6l-0.7-1.5l-0.3,0.6l-0.7-1.5l-0.3,0.6l-0.7-1.5l-0.3,0.6
	l-0.7-1.5l-0.3,0.6l-0.7-1.5l-0.3,0.6l-0.7-1.5l-0.3,0.6l-0.7-1.5l-0.3,0.6l-0.7-1.5l-21.2,46.4l-50.6,5.7l1,1l-0.1,0l1,1l-0.1,0
	l1,1l-0.1,0l1,1l-0.1,0l1,1l-0.1,0l1,1l-0.1,0l1,1l-0.1,0l1,1l-0.1,0l1,1l-0.1,0l1,1l-0.1,0l1,1l-0.1,0l1,1l-0.1,0l1,1l-0.1,0l1,1
	l-0.1,0l1,1l-0.1,0l1,1l-0.1,0l1,1l-0.1,0l1,1l-0.1,0l1,1l-0.1,0l1,1l-0.1,0l1,1l-0.1,0l1,1l-0.1,0l1,1l-0.1,0l1,1l-0.1,0l1,1
	l-0.1,0l1,1l-0.1,0l1,1l-0.1,0l1,1l-0.1,0l1,1l-0.1,0l1,1l-0.1,0l1,1l-0.1,0l1,1l-0.1,0l1,1l-0.1,0l1,1l-0.1,0l1,1l-0.1,0l1,1
	l-0.1,0l1,1l-0.1,0l1,1l-0.1,0l0.4,0.3l-3.7,17.9l-0.8-0.1l0.8-0.8l-1.8-0.2l0.8-0.8l-1.8-0.2l0.8-0.8l-1.8-0.2l0.8-0.8l-1.8-0.2
	l0.8-0.8l-1.8-0.2l0.8-0.8l-1.8-0.2l0.8-0.8l-1.8-0.2l0.8-0.8l-1.8-0.2l0.8-0.8l-1.8-0.2l0.8-0.8l-1.8-0.2l0.8-0.8l-1.8-0.2l0.8-0.8
	l-1.8-0.2l0.8-0.8l-1.8-0.2l0.8-0.8l-1.8-0.2l0.8-0.8l-1.8-0.2l0.8-0.8l-1.8-0.2l0.8-0.8l-1.8-0.2l0.8-0.8l-1.8-0.2l0.8-0.8
	l-1.8-0.2l0.8-0.8l-1.8-0.2l0.8-0.8l-1.8-0.2l0.8-0.8l-1.8-0.2l0.8-0.8l-1.8-0.2l0.8-0.8l-1.8-0.2l0.8-0.8l-1.8-0.2l0.8-0.8
	l-1.8-0.2l0.8-0.8l-1.8-0.2l0.8-0.8l-1.8-0.2l0.8-0.8l-1.8-0.2l0.8-0.8l-1.8-0.2l0.8-0.8l-1.8-0.2l0.8-0.8l-1.8-0.2l0.8-0.8
	l-1.8-0.2l0.8-0.8l-1.8-0.2l0.8-0.8l-1.8-0.2l0.8-0.8l-1.8-0.2l0.8-0.8l-1.8-0.2l0.8-0.8l-1.8-0.2l0.8-0.8l-1.8-0.2l0.8-0.8
	l-1.8-0.2l0.8-0.8l-1.8-0.2l0.8-0.8l-1.8-0.2l0.8-0.8l-1.8-0.2l0.8-0.8l-1.8-0.2l0.8-0.8l-1.8-0.2l0.8-0.8l-1.8-0.2l0.8-0.8
	l-1.8-0.2l0.8-0.8l-1.8-0.2l0.8-0.8l-1.8-0.2l0.8-0.8l-1.8-0.2l0.8-0.8l-1.8-0.2l0.8-0.8l-1.8-0.2l0.8-0.8l-1.8-0.2l0.8-0.8
	l-1.8-0.2l0.8-0.8l-1.8-0.2l0.8-0.8l-1.8-0.2l0.8-0.8l-22.3-2.5l-0.2-0.3l-0.1,0.3l-0.3,0l-0.6-1.2l-0.3,0.6l-0.7-1.5l-0.3,0.6
	l-0.7-1.5l-0.3,0.6l-0.7-1.5l-0.3,0.6l-0.7-1.5l-0.3,0.6l-0.7-1.5l-0.3,0.6l-0.7-1.5l-0.3,0.6l-0.7-1.5l-0.3,0.6l-0.7-1.5l-0.3,0.6
	l-0.7-1.5l-0.3,0.6l-0.7-1.5l-0.3,0.6l-0.7-1.5l-0.3,0.6l-0.7-1.5l-0.3,0.6l-0.7-1.5l-0.3,0.6l-0.7-1.5l-0.3,0.6l-0.7-1.5l-0.3,0.6
	l-0.7-1.5l-0.3,0.6l-0.7-1.5l-0.3,0.6l-0.7-1.5l-0.3,0.6l-0.7-1.5l-0.3,0.6l-0.7-1.5l-0.3,0.6l-0.7-1.5l-0.3,0.6l-0.7-1.5l-0.3,0.6
	l-0.7-1.5l-0.3,0.6l-0.7-1.5l-0.3,0.6l-0.7-1.5l-0.3,0.6l-0.7-1.5l-0.3,0.6l-0.7-1.5l-0.3,0.6l-0.7-1.5l-0.3,0.6l-0.7-1.5l-0.3,0.6
	l-0.7-1.5l-0.3,0.6l-0.7-1.5l-0.3,0.6l-0.7-1.5l-0.3,0.6l-0.7-1.5l-0.3,0.6l-0.7-1.5l-0.3,0.6l-0.7-1.5l-0.3,0.6l-0.7-1.5l-0.3,0.6
	l-0.7-1.5l-0.3,0.6l-0.7-1.5l-0.3,0.6l-0.7-1.5l-0.3,0.6l-0.7-1.5l-0.3,0.6l-0.7-1.5l-0.3,0.6l-0.7-1.5l-0.3,0.6l-0.7-1.5l-0.3,0.6
	l-0.7-1.5l-0.3,0.6l-0.7-1.5l-0.3,0.6l-0.7-1.5l-0.3,0.6l-0.7-1.5l-0.3,0.6l-0.7-1.5l-0.3,0.6l-0.7-1.5l-0.3,0.6l-0.7-1.5
	l-21.1,46.4l-50.7,5.7l1,1l-0.1,0l1,1l-0.1,0l1,1l-0.1,0l1,1l-0.1,0l1,1l-0.1,0l1,1l-0.1,0l1,1l-0.1,0l1,1l-0.1,0l1,1l-0.1,0l1,1
	l-0.1,0l1,1l-0.1,0l1,1l-0.1,0l1,1l-0.1,0l1,1l-0.1,0l1,1l-0.1,0l1,1l-0.1,0l1,1l-0.1,0l1,1l-0.1,0l1,1l-0.1,0l1,1l-0.1,0l1,1
	l-0.1,0l1,1l-0.1,0l1,1l-0.1,0l1,1l-0.1,0l1,1l-0.1,0l1,1l-0.1,0l1,1l-0.1,0l1,1l-0.1,0l1,1l-0.1,0l1,1l-0.1,0l1,1l-0.1,0l1,1
	l-0.1,0l1,1l-0.1,0l1,1l-0.1,0l1,1l-0.1,0l1,1l-0.1,0l1,1l-0.1,0l1,1l-0.1,0l0.4,0.3l-9.7,47.3l1.3-0.7l-0.3,1.7l1.3-0.7l-0.3,1.7
	l1.3-0.7l-0.3,1.7l1.3-0.7l-0.3,1.7l1.3-0.7l-0.3,1.7l1.3-0.7l-0.3,1.7l1.3-0.7l-0.3,1.7l1.3-0.7l-0.3,1.7l1.3-0.7l-0.3,1.7l1.3-0.7
	l-0.3,1.7l1.3-0.7l-0.3,1.7l1.3-0.7l-0.3,1.7l1.3-0.7l-0.3,1.7l1.3-0.7l-0.3,1.7l1.3-0.7l-0.3,1.7l1.3-0.7l-0.3,1.7l1.3-0.7
	l-0.3,1.7l1.3-0.7l-0.3,1.7l1.3-0.7l-0.3,1.7l1.3-0.7l-0.3,1.7l1.3-0.7l-0.3,1.7l1.3-0.7l-0.3,1.7l1.3-0.7l-0.3,1.7l1.3-0.7
	l-0.3,1.7l1.3-0.7l-0.3,1.7l1.3-0.7l-0.3,1.7l1.3-0.7l-0.3,1.7l1.3-0.7l-0.3,1.7l1.3-0.7l-0.3,1.7l1.3-0.7l-0.3,1.7l1.3-0.7
	l-0.3,1.7l1.3-0.7l-0.3,1.7l1.3-0.7l-0.3,1.7l1.3-0.7l-0.3,1.7l1.3-0.7l-0.3,1.7l1.3-0.7l-0.3,1.7l1.3-0.7l-0.3,1.7l1.3-0.7
	l-0.3,1.7l1.3-0.7l-0.3,1.7l1.3-0.7l-0.3,1.7l1.3-0.7l-0.3,1.7l1.3-0.7l-0.3,1.7l1.3-0.7l-0.3,1.7l1.3-0.7l-0.3,1.7l1.3-0.7
	l-0.3,1.7l1.3-0.7l-0.3,1.7l1.3-0.7l-0.3,1.7l1.3-0.7l-0.3,1.7l1.3-0.7l-0.3,1.7l1.3-0.7l-0.3,1.7l1.3-0.7l-0.3,1.7l1.3-0.7
	l-0.3,1.7l1.3-0.7l-0.3,1.7l1.3-0.7l-0.3,1.7l1.3-0.7l-0.3,1.7l1.3-0.7l-0.3,1.7l1.3-0.7l-0.3,1.7l1.3-0.7l-0.3,1.7l1.3-0.7
	l-0.3,1.7l1.3-0.7l-0.3,1.7l1.3-0.7l-0.3,1.7l1.3-0.7l-0.3,1.7l1.3-0.7l-0.3,1.7l1.3-0.7l-0.3,1.7l1.3-0.7l-0.3,1.7l1.3-0.7
	l-0.3,1.7l1.3-0.7l-0.3,1.7l1.3-0.7l-0.3,1.7l1.3-0.7l-0.3,1.7l1.3-0.7l-0.3,1.7l1.3-0.7l-0.3,1.7l1.3-0.7l-0.3,1.7l1.3-0.7
	l-0.3,1.7l1.3-0.7l-0.3,1.7l1.3-0.7l-0.3,1.7l1.3-0.7l-0.3,1.7l1.3-0.7l-0.3,1.7l1.3-0.7l-0.3,1.7l1.3-0.7l-0.3,1.7l1.3-0.7
	l-0.3,1.7l1.3-0.7l-0.3,1.7l1.3-0.7l-0.3,1.7l1.3-0.7l-0.3,1.7l1.3-0.7l-0.3,1.7l1.3-0.7l-0.3,1.7l1.3-0.7l-0.3,1.7l1.3-0.7
	l-0.3,1.7l1.3-0.7l-0.3,1.7l1.3-0.7l-0.3,1.7l1.3-0.7l-0.3,1.7l1.3-0.7l-0.3,1.7l1.3-0.7l-0.3,1.7l1.3-0.7l-0.3,1.7l1.3-0.7
	l-0.3,1.7l1.3-0.7l-0.3,1.7l1.3-0.7l-0.3,1.7l1.3-0.7l-0.3,1.7l1.3-0.7l-0.3,1.7l1.3-0.7l-0.3,1.7l1.3-0.7l-0.3,1.7l1.3-0.7
	l-0.3,1.7l1.3-0.7l-0.3,1.7l1.3-0.7l-0.3,1.7l1.3-0.7l-0.3,1.7l1.3-0.7l-0.3,1.7l1.3-0.7l-0.3,1.7l1.3-0.7l-0.3,1.7l1.3-0.7
	l-0.3,1.7l1.3-0.7l-0.3,1.7l1.3-0.7l-0.3,1.7l1.3-0.7l-0.3,1.7l1.3-0.7l-0.3,1.7l1.3-0.7l-0.3,1.7l1.3-0.7l-0.3,1.7l1.3-0.7
	l-0.3,1.7l1.3-0.7l-0.3,1.7l1.3-0.7l-0.3,1.7l1.3-0.7l-0.3,1.7l1.3-0.7l-0.3,1.7l1.3-0.7l-0.3,1.7l1.3-0.7l-0.3,1.7l1.3-0.7
	l-0.3,1.7l1.3-0.7l-0.3,1.7l1.3-0.7l-0.3,1.7l1.3-0.7l-0.3,1.7l1.3-0.7l-0.3,1.7l1.3-0.7l-0.3,1.7l1.3-0.7l-0.3,1.7l1.3-0.7
	l-0.3,1.7l1.3-0.7l-0.3,1.7l1.3-0.7l-0.3,1.7l1.3-0.7l-0.3,1.7l1.3-0.7l-0.3,1.7l1.3-0.7l-0.3,1.7l1.3-0.7l-0.3,1.7l1.3-0.7
	l-0.3,1.7l1.3-0.7l-0.3,1.7l1.3-0.7l-0.3,1.7l1.3-0.7l-0.3,1.7l1.3-0.7l-0.3,1.7l1.3-0.7l-0.3,1.7l1.3-0.7l-0.3,1.7l1.3-0.7
	l-0.3,1.7l1.3-0.7l-0.3,1.7l1.3-0.7l-0.3,1.7l1.3-0.7l-0.3,1.7l1.3-0.7l-0.3,1.7l1.3-0.7l-0.3,1.7l1.3-0.7l-0.3,1.7l1.3-0.7
	l-0.3,1.7l1.3-0.7l-0.3,1.7l1.3-0.7l-0.3,1.7l1.3-0.7l-0.3,1.7l1.3-0.7l-0.3,1.7l1.3-0.7l-0.3,1.7l1.3-0.7l-0.3,1.7l1.3-0.7
	l-0.3,1.7l1.3-0.7l-0.3,1.7l1.3-0.7l-0.3,1.7l1.3-0.7l-0.3,1.7l1.3-0.7l-0.3,1.7l1.3-0.7l-0.3,1.7l1.3-0.7l-0.3,1.7l1.3-0.7
	l-0.3,1.7l1.3-0.7l-0.3,1.7l1.3-0.7l-0.3,1.7l1.3-0.7l-0.3,1.7l1.3-0.7l-0.3,1.7l1.3-0.7l-0.3,1.7l1.3-0.7l-0.3,1.7l1.3-0.7
	l-0.3,1.7l1.3-0.7l-0.3,1.7l1.3-0.7l-0.3,1.7l1.3-0.7l-0.3,1.7l1.3-0.7l-0.3,1.7l1.3-0.7l-0.3,1.7l1.3-0.7l-0.3,1.7l1.3-0.7
	l-0.3,1.7l1.3-0.7l-0.3,1.7l1.3-0.7l-0.3,1.7l1.3-0.7l-0.3,1.7l1.3-0.7l-0.3,1.7l1.3-0.7l-0.3,1.7l1.3-0.7l-0.3,1.7l1.3-0.7
	l-0.3,1.7l1.3-0.7l-0.3,1.7l1.3-0.7l-0.3,1.7l1.3-0.7l-0.3,1.7l1.3-0.7l-0.3,1.7l1.3-0.7l-0.3,1.7l1.3-0.7l-0.3,1.7l1.3-0.7
	l-0.3,1.7l1.3-0.7l-0.3,1.7l1.3-0.7l-0.3,1.7l1.3-0.7l-0.3,1.7l1.3-0.7l-0.3,1.7l1.3-0.7l-0.3,1.7l1.3-0.7l-0.3,1.7l1.3-0.7
	l-0.3,1.7l1.3-0.7l-0.3,1.7l1.3-0.7l-0.3,1.7l1.3-0.7l-0.3,1.7l1.3-0.7l-0.3,1.7l1.3-0.7l-0.3,1.7l1.3-0.7l-0.3,1.7l1.3-0.7
	l-0.3,1.7l1.3-0.7l-0.3,1.7l1.3-0.7l-0.3,1.7l1.3-0.7l-0.3,1.7l1.3-0.7l-0.3,1.7l1.3-0.7l-0.3,1.7l1.3-0.7l-0.3,1.7l1.3-0.7
	l-0.3,1.7l1.3-0.7l-0.3,1.7l1.3-0.7l-0.3,1.7l1.3-0.7l-0.3,1.7l1.3-0.7l-0.3,1.7l1.3-0.7l-0.3,1.7l1.3-0.7l-0.3,1.7l1.3-0.7
	l-0.3,1.7l1.3-0.7l-0.3,1.7l1.3-0.7l-0.3,1.7l1.3-0.7l-0.3,1.7l1.3-0.7l-0.3,1.7l1.3-0.7l-0.3,1.7l1.3-0.7l-0.3,1.7l1.3-0.7
	l-0.3,1.7l1.3-0.7l-0.3,1.7l1.3-0.7l-0.3,1.7l1.3-0.7l-0.3,1.7l1.3-0.7l-0.3,1.7l1.3-0.7l-0.3,1.7l1.3-0.7l-0.3,1.7l1.3-0.7
	l-0.3,1.7l1.3-0.7l-0.3,1.7l1.3-0.7l-0.3,1.7l1.3-0.7l-0.3,1.7l1.3-0.7l-0.2,0.8H1133.9z"/>
<g>
	<path class="st2" d="M795.7,251.7c-17.6-13.5-42.8-10.1-56.3,7.5L719,285.9l-31.4,41L565.7,486.1l-59.1-72.8
		c-14-17.2-39.2-19.8-56.4-5.9c-17.2,14-19.8,39.3-5.9,56.4l91.2,112.3c7.7,9.4,19,14.8,31.1,14.8h0.6c12.3-0.2,23.8-5.9,31.3-15.7
		l137-178.9l35.4-46.2l32.3-42.2C816.6,290.4,813.3,265.2,795.7,251.7z"/>
	<polygon class="st3" points="588.1,814.7 566.9,768.3 545.8,814.7 495.1,820.5 532.8,854.9 522.6,904.8 566.9,879.7 611.3,904.8 
		601.1,854.9 638.7,820.5 	"/>
	<polygon class="st3" points="752.2,814.7 731,768.3 709.9,814.7 659.3,820.5 696.9,854.9 686.7,904.8 731,879.7 775.4,904.8 
		765.2,854.9 802.8,820.5 	"/>
	<path class="st2" d="M566.9,693.3c128.2,0,232.1-103.9,232.1-232.1c0-26.3-4.4-51.4-12.4-75l-40.5,52.9c0.9,7.2,1.4,14.6,1.4,22.1
		c0,49.9-20.2,94.9-52.9,127.7c-32.7,32.7-77.7,52.9-127.7,52.9c-49.9,0-94.9-20.1-127.7-52.9c-32.7-32.8-52.8-77.7-52.9-127.7
		c0-50,20.2-94.9,52.9-127.7c32.8-32.7,77.7-52.9,127.7-52.9c34.1,0,65.9,9.4,93.1,25.8l31.5-41.1c-36-22.9-78.7-36.3-124.5-36.3
		C438.7,229,334.8,333,334.8,461.1C334.8,589.4,438.7,693.3,566.9,693.3z"/>
	<polygon class="st3" points="423.9,814.7 402.8,768.3 381.7,814.7 331,820.5 368.7,854.9 358.5,904.8 402.8,879.7 447.2,904.8 
		437,854.9 474.6,820.5 	"/>
	<polygon class="st3" points="259.8,814.7 238.7,768.3 217.6,814.7 166.9,820.5 204.5,854.9 194.3,904.8 238.7,879.7 283,904.8 
		272.9,854.9 310.5,820.5 	"/>
	<polygon class="st3" points="966.9,820.5 916.3,814.7 895.2,768.3 874.1,814.7 823.4,820.5 861,854.9 850.8,904.8 895.2,879.7 
		939.5,904.8 929.3,854.9 	"/>
</g>
</svg>
