<?xml version="1.0" encoding="utf-8"?>
<!-- Generator: Adobe Illustrator 24.3.0, SVG Export Plug-In . SVG Version: 6.00 Build 0)  -->
<svg version="1.1" id="Layer_1" xmlns="http://www.w3.org/2000/svg" xmlns:xlink="http://www.w3.org/1999/xlink" x="0px" y="0px"
	 viewBox="0 0 57 18.7" style="enable-background:new 0 0 57 18.7;" xml:space="preserve">
<style type="text/css">
	.st0{fill-rule:evenodd;clip-rule:evenodd;fill:#E2231B;}
</style>
<path class="st0" d="M0,0h57v18.7H0V0z M22.5,7.5C23,6.7,24,6.3,24.8,6.3c1.8,0,3,1.2,3,2.9v4.5h-2V9.5c0-1-0.9-1.5-1.7-1.5
	c-1.1,0-1.7,0.8-1.7,1.5v4.1h-2V6.4h2V7.5z M42.1,6.4l-1.8,4.9l-1.8-4.9h-2.3l3,7.2h2.2l3-7.2H42.1z M16.2,12.2
	c0.8,0,1.3-0.1,2.1-0.8l1.3,1c-0.7,0.7-2,1.4-3.4,1.4c-2.4,0-4.1-1.5-4.1-3.7c0-2.1,1.7-3.7,3.9-3.7c1.2,0,2.2,0.4,2.9,1.2
	c0.5,0.5,0.8,1.2,0.9,2l-5.1,2.1C15,12,15.5,12.2,16.2,12.2z M16,7.9c-0.7,0-1.2,0.3-1.5,0.7C14.1,9,14,9.6,14,10.3l3.5-1.4
	C17.3,8.3,16.7,7.9,16,7.9z M11.9,11.8H7.3V4.3h-2v9.4h6.6V11.8z M44.1,10c0,2.1,1.7,3.7,3.9,3.7c2.2,0,3.9-1.6,3.9-3.7
	c0-2.1-1.7-3.7-3.9-3.7C45.8,6.3,44.1,7.9,44.1,10z M46.1,10c0-1.2,0.8-2,1.9-2c1.1,0,2,0.9,2,2c0,1.2-0.8,2-1.9,2
	C46.9,12.1,46.1,11.2,46.1,10z M32.5,13.8c-2.2,0-3.9-1.6-3.9-3.7c0-2.1,1.7-3.7,3.9-3.7c2.2,0,3.9,1.6,3.9,3.7
	C36.5,12.1,34.7,13.8,32.5,13.8z M32.5,8c-1.1,0-1.9,0.8-1.9,2c0,1.1,0.9,2,2,2c1.1,0,1.9-0.9,1.9-2C34.5,8.9,33.6,8,32.5,8z
	 M51.9,12.8h0.3v0.9h0.2v-0.9h0.3v-0.2h-0.9V12.8z M53.2,12.6H53h0v1h0.2v-0.7l0.3,0.5h0l0.3-0.5v0.7H54v-1h-0.2l-0.3,0.5L53.2,12.6
	z"/>
</svg>
