<?xml version="1.0" encoding="utf-8"?>
<!-- Generator: Adobe Illustrator 24.3.0, SVG Export Plug-In . SVG Version: 6.00 Build 0)  -->
<svg version="1.1" id="Layer_1" xmlns="http://www.w3.org/2000/svg" xmlns:xlink="http://www.w3.org/1999/xlink" x="0px" y="0px"
	 viewBox="0 0 63 20" style="enable-background:new 0 0 63 20;" xml:space="preserve">
<style type="text/css">
	.st0{fill:#5A5B5E;}
	.st1{fill:#FE5000;}
</style>
<path class="st0" d="M26.8,16.4c0.3,0.2,1,0.6,1.7,0.6c0.6,0,1.3-0.2,1.3-1.2c0-0.8-0.7-1-1.4-1.2c-0.9-0.2-1.8-0.6-1.8-1.8
	c0-1.1,0.8-1.8,2-1.8c0.9,0,1.6,0.4,2,0.9l-0.4,0.5c-0.5-0.4-1-0.7-1.6-0.7c-0.5,0-1.2,0.2-1.2,1s0.6,1,1.4,1.2
	c0.9,0.3,1.8,0.6,1.8,1.8s-0.8,1.9-2.1,1.9c-0.9,0-1.7-0.4-2-0.6L26.8,16.4z"/>
<path class="st0" d="M35.9,11v0.7H34v5.8h-0.7v-5.8h-1.9v-0.6L35.9,11L35.9,11L35.9,11z"/>
<path class="st0" d="M38.9,17.6c-1.6,0-2.6-1.1-2.6-3.3c0-2.5,1.4-3.3,2.7-3.3c1.4,0,2.5,0.9,2.5,3.3C41.5,16.5,40.5,17.6,38.9,17.6
	z M39,16.9c1.4,0,1.8-1.3,1.8-2.6c0-1.1-0.4-2.7-1.8-2.7c-1.4,0-1.9,1.3-1.9,2.7C37.1,15.5,37.4,16.9,39,16.9z"/>
<path class="st0" d="M47.6,17.5l2.2-6.4h0.9l2.3,6.4h-0.8l-0.7-2H49l-0.7,2C48.4,17.5,47.6,17.5,47.6,17.5z M49.2,14.9h2.1
	c-1.1-3.1-1.1-3.1-1.1-3.1L49.2,14.9z"/>
<path class="st0" d="M58,17c-0.5,0.3-1.3,0.6-2.1,0.6c-1.6,0-2.7-1.1-2.7-3.3c0-2.5,1.4-3.3,2.7-3.3c0.6,0,1.5,0.2,2.1,1l-0.5,0.4
	c-0.4-0.5-0.9-0.8-1.6-0.8c-1.2,0-1.9,1-1.9,2.6c0,1.7,0.6,2.8,2,2.8c0.5,0,1-0.2,1.3-0.3v-1.9h-1.4v-0.6H58V17z"/>
<path class="st0" d="M59.3,11.1h3.5v0.7H60V14h2.4v0.6H60v2.3h2.8v0.6h-3.6L59.3,11.1L59.3,11.1z"/>
<path class="st0" d="M46.1,15.4c-0.1-0.3-0.2-0.5-0.4-0.6c0.7-0.3,1.1-1,1.1-1.9c0-1.3-0.8-1.9-2.1-1.9h-2v6.4h0.7V15h1.1
	c0.1,0,0.2,0,0.2,0c0.4,0,0.6,0.2,0.7,0.6l0.8,1.8H47L46.1,15.4z M44.3,14.5h-0.9v-2.8h0.8c1.1,0,1.8,0.1,1.8,1.4
	C46,14.1,45.3,14.5,44.3,14.5z"/>
<path d="M28.1,8.3h-1.6V1.8h2.3c1.5,0,2.4,0.7,2.4,2c0,1.5-1.1,2.2-2.6,2.2h-0.5L28.1,8.3L28.1,8.3z M28.4,4.8c0.6,0,1-0.2,1-0.9
	c0-0.6-0.3-0.8-0.9-0.8H28v1.7C28.1,4.8,28.4,4.8,28.4,4.8z"/>
<path d="M33.7,1.8V6c0,0.7,0.4,1,0.9,1s0.8-0.3,0.8-0.9V1.8H37v4.5c0,1.3-1,2.1-2.5,2.1c-1.6,0-2.5-0.7-2.5-2.2V1.8H33.7z"/>
<path d="M44,1.8h4.1v1.5h-2.5v1h2.1v1.5h-2.1v1.1h2.6v1.5H44V1.8z"/>
<path d="M42.3,6.1c-0.1-0.3-0.3-0.4-0.4-0.5c0.6-0.4,0.9-1,0.9-1.8c0-1.3-0.9-2-2.4-2h-2.3v6.4h1.6V6h0.4c0.2,0,0.4,0.1,0.5,0.4
	l0.8,1.8h1.7L42.3,6.1z M39.8,4.7V3h0.5c0.6,0,0.9,0.2,0.9,0.8c0,0.7-0.4,0.9-1,0.9C40.1,4.7,39.8,4.7,39.8,4.7z"/>
<path class="st1" d="M12.4,20H7.6c-1,0-1.9-0.5-2.4-1.4l-4-7.1c-0.5-0.9-0.5-2,0-2.8l4-7.2C5.7,0.6,6.6,0,7.6,0h8.1
	c1,0,1.9,0.5,2.4,1.4l4,7.2c0.5,0.9,0.5,2,0,2.8l-1,1.7c-0.5,0.9-1.4,1.4-2.4,1.4h-4.8l2.6-4.5L14,5.7H9.2L6.8,10L12.4,20z"/>
</svg>
