<?xml version="1.0" encoding="UTF-8"?>
<!-- Generator: Adobe Illustrator 27.0.1, SVG Export Plug-In . SVG Version: 6.00 Build 0)  -->
<svg xmlns:dc="http://purl.org/dc/elements/1.1/" xmlns:xl="http://www.w3.org/1999/xlink" xmlns="http://www.w3.org/2000/svg" xmlns:xlink="http://www.w3.org/1999/xlink" version="1.1" id="Layer_1" x="0px" y="0px" viewBox="0 0 341 69.9" style="enable-background:new 0 0 341 69.9;" xml:space="preserve">
<style type="text/css">
	.st0{display:none;}
	.st1{display:inline;}
	.st2{fill:#307FE2;}
	.st3{fill:url(#SVGID_1_);}
	.st4{fill:#FFDF00;}
	.st5{fill:url(#SVGID_00000023274513586239186580000015779664075287279032_);}
	.st6{fill:url(#SVGID_00000100347067669403439140000016503671487744169890_);}
	.st7{fill:#FFFFFF;}
	.st8{fill:#FBDF2E;}
</style>
<g id="Canvas_1">
	<g id="Canvas_x5F_1:_Layer_1">
		<g id="Group_2">
			<g id="Group_3">
				<g id="Group_4">
					<g id="Group_59" class="st0">
						<g id="Graphic_60" class="st1">
							<path class="st2" d="M0,0.1v24l0.2,5.2l0.1,4c1.5,21.4,12.3,24,31.2,35.1c19-11.1,25.9-12,30.4-34.8l0.4-4.3l0.3-4.8L63.1,0         c-0.8,0.3-1.6,0.7-2.6,1c-16,6-42,6-58.1,0C1.6,0.8,0.7,0.5,0,0.1z"></path>
						</g>
					</g>
					<g id="Group_4_1_" class="st0">
						<g id="Group_59_1_" class="st1">
							<g id="Graphic_60_1_">
								
									<linearGradient id="SVGID_1_" gradientUnits="userSpaceOnUse" x1="56.5963" y1="1400.0863" x2="34.8243" y2="1362.376" gradientTransform="matrix(1 0 0 1 0 -1336)">
									<stop offset="9.848528e-02" style="stop-color:#307FE2"></stop>
									<stop offset="0.7601" style="stop-color:#5D8EF0"></stop>
									<stop offset="1" style="stop-color:#6A96F1"></stop>
								</linearGradient>
								<path class="st3" d="M3.5,46.9c2.3,7.5,18.1,17,28.1,21.6c19-11.1,25.9-12,30.4-34.8l0.4-4.3l0.7-29.2          C63.2,0.1,32.5,47.4,3.5,46.9z"></path>
							</g>
						</g>
					</g>
					<g id="Group_57" class="st0">
						<g id="Graphic_58" class="st1">
							<path class="st4" d="M26.6,28.1l9.7,0.3l3.2-5.6l-6.9-0.2l8.4-8.7L40.7,13c-0.1,0-0.1,0-0.2,0.1h-0.3h-0.4         c-1.9,0-3.7-0.3-5.4-0.7c-2.5-0.7-4.6-1.6-6.2-2.6l-11.8,9.5v14.2c0,0.5,0,0.9,0,1.2c0,0.3-0.1,0.7-0.1,1         c-0.2,1.1-0.9,2.2-2.1,3.3c-2.2-3.3-3.3-7.2-3.3-11.5c0-5.2,2.9-9.9,8.6-14.1l-0.5-1c-4.2,2.3-7.3,4.9-9.3,7.7         c-2.4,3.3-3.5,7.1-3.5,11.6c0,5.6,1.8,10.3,5.4,14.2c3.7,3.9,8.2,5.8,13.5,5.8c3.4,0,6.7-1,9.8-2.9c2.8-1.9,5.1-4.4,7-7.7         l-0.5-0.4c-4.8,3.6-9.8,5.4-14.9,5.2L26.6,28.1L26.6,28.1z M25.3,14.4V46c-4.2-0.7-7.6-2.6-10.3-6c3.1-2.7,4.8-4.1,4.9-4.3         c1.5-1.7,2.2-3.7,2.2-6.2V17L25.3,14.4z M26.6,26.9V15.1c2.6,1.6,5.4,2.6,8.5,3.1L26.6,26.9z"></path>
						</g>
					</g>
					<g id="Group_34">
						<g id="Group_55">
							<g id="Graphic_56">
								<path d="M100.5,36.7v-6.1l-12.8-0.1c-0.5,0-1-0.1-1.6-0.3c-0.5-0.2-1-0.5-1.4-0.8l-1.2-1.3c-0.3-0.5-0.6-0.9-0.7-1.2          c-0.2-0.5-0.3-1-0.4-1.5c-0.2-1-0.3-2.1-0.3-3.5h18.6v-6.1H81.8c0-5.5,2.5-8.2,7.5-8.2h11V1.5c-8.6,0-13.5,0.1-14.8,0.3          c-1.5,0.3-2.6,0.6-3.4,1c-2,0.7-3.6,2.1-4.9,4c-1.2,1.6-1.9,3.7-2.4,5.9c-0.5,2.2-0.7,5-0.7,8.2c0,1.7,0.2,3.3,0.6,4.8          c0.3,1.6,0.9,3,1.6,4.3c1.7,3.3,4.1,5.3,7.3,6.2c0.1,0,0.2,0.1,0.4,0.1c0,0,0.1,0.1,0.3,0.1c0.3,0.1,0.6,0.1,0.8,0.1l1,0.1          l2.9,0.1L100.5,36.7L100.5,36.7z"></path>
							</g>
						</g>
						<g id="Group_53">
							<g id="Graphic_54">
								<path d="M132.7,36.7l-10.1-15L132,7.5H125l-6,9.3l-6-9.3h-7.3l9.8,14.7l-10.2,14.6h7.3l6.5-10.2l6.2,10.2H132.7z"></path>
							</g>
						</g>
						<g id="Group_51">
							<g id="Graphic_52">
								<path d="M156,36.7v-5.1l-11.1-0.1l-0.7-0.1l-0.6-0.1c-1.5-0.4-2.6-1.6-3.2-3.4c-0.5-1.4-0.7-3.1-0.7-5          c0-1.8,0.2-3.5,0.5-5.2c0.3-1.6,1-2.9,1.8-3.8c1.1-1.1,2.6-1.6,4.4-1.6h9.5v-5c-7.5,0-11.7,0.1-12.8,0.3          c-1,0.1-2,0.4-2.9,0.7c-1.7,0.6-3.1,1.8-4.2,3.3c-1,1.4-1.6,3.1-2,5c-0.4,1.8-0.6,4.1-0.6,6.9c0,2.6,0.6,5.2,1.9,7.5          c1.4,2.7,3.5,4.4,6.3,5.2c0.1,0,0.2,0.1,0.3,0.1c0,0,0.1,0.1,0.3,0.1c0.3,0.1,0.5,0.1,0.7,0.1l0.9,0.1l2.4,0.1L156,36.7          L156,36.7z"></path>
							</g>
						</g>
						<g id="Group_49">
							<g id="Graphic_50">
								<path d="M189.4,36.7L176.9,7.5h-6.5L158,36.7h6.5l2.5-7h12.8l2.7,7H189.4z M177.8,24.6h-8.8l4.3-11.2L177.8,24.6z"></path>
							</g>
						</g>
						<g id="Group_47">
							<g id="Graphic_48">
								<path d="M210.6,36.7v-4.8c-6.7,0-10.5-0.3-11.5-0.9c-1.3-0.7-2-1.9-2.2-3.6l-0.1-2.1l-0.1-1.8V7.5h-6          c0,15.6,0.9,24.4,2.6,26.4c1.8,2,4.6,2.9,8.6,2.9H210.6L210.6,36.7z"></path>
							</g>
						</g>
						<g id="Group_45">
							<g id="Graphic_46">
								<path d="M241.4,7.8V1.7h-30.3v6.1h11.3v28.9h7.7V7.8H241.4z"></path>
							</g>
						</g>
						<g id="Group_43">
							<g id="Graphic_44">
								<path d="M264.3,36.7v-5.1l-10.7-0.1c-0.4,0-0.9-0.1-1.4-0.3c-0.5-0.1-0.9-0.4-1.2-0.7l-1-1.1c-0.3-0.4-0.5-0.7-0.6-1          c-0.1-0.4-0.3-0.8-0.3-1.2c-0.2-0.8-0.3-1.8-0.3-2.9h15.5v-5.1h-15.5c0-4.6,2.1-6.9,6.3-6.9h9.2V7.3          c-7.1,0-11.3,0.1-12.4,0.3c-1.2,0.3-2.2,0.5-2.9,0.7c-1.6,0.6-3,1.8-4.1,3.3c-1,1.4-1.6,3.1-2,5c-0.4,1.8-0.6,4.1-0.6,6.8          c0,1.4,0.1,2.7,0.5,3.9c0.3,1.3,0.7,2.5,1.4,3.6c1.4,2.7,3.5,4.4,6,5.2c0.1,0,0.2,0.1,0.3,0.1c0,0,0.1,0.1,0.3,0.1          c0.3,0.1,0.5,0.1,0.7,0.1l0.9,0.1l2.4,0.1L264.3,36.7L264.3,36.7z"></path>
							</g>
						</g>
						<g id="Group_41">
							<g id="Graphic_42">
								<path d="M292.7,36.7v-5.1l-11.1-0.1l-0.7-0.1l-0.6-0.1c-1.5-0.4-2.6-1.6-3.2-3.4c-0.5-1.4-0.7-3.1-0.7-5          c0-1.8,0.2-3.5,0.5-5.2c0.3-1.6,1-2.9,1.8-3.8c1.1-1.1,2.6-1.6,4.4-1.6h9.5v-5c-7.5,0-11.7,0.1-12.8,0.3          c-1,0.1-2,0.4-2.9,0.7c-1.7,0.6-3.1,1.8-4.2,3.3c-1,1.4-1.6,3.1-2,5c-0.4,1.8-0.6,4.1-0.6,6.9c0,2.6,0.6,5.2,1.9,7.5          c1.4,2.7,3.5,4.4,6.3,5.2c0.1,0,0.2,0.1,0.3,0.1c0,0,0.1,0.1,0.3,0.1c0.3,0.1,0.5,0.1,0.7,0.1l0.9,0.1l2.4,0.1L292.7,36.7          L292.7,36.7L292.7,36.7z"></path>
							</g>
						</g>
						<g id="Group_39">
							<g id="Graphic_40">
								<path d="M322.2,36.7V7.5H316v11.9h-11.3V7.5h-6.2v29.3h6.2V24.5H316v12.3H322.2z"></path>
							</g>
						</g>
					</g>
					<g id="Group_5">
						<g id="Group_32">
							<g id="Graphic_33">
								<path d="M99.8,66V51.3h-4.5l-3.7,11.2l-3.7-11.2h-4.6V66h3.1l-0.3-11.5L89.9,66h3.3l3.7-11.4L96.6,66H99.8z"></path>
							</g>
						</g>
						<g id="Group_30">
							<g id="Graphic_31">
								<path d="M111.8,66c0-5.9-0.3-9.2-1-9.8c-0.7-0.6-1.6-1-2.9-1h-5.2v2.2c3.6,0,5.6,0.1,5.9,0.3c0.4,0.3,0.7,0.9,0.7,1.6          c-3.4,0-5.4,0.2-6,0.7c-0.7,0.5-1.2,1.4-1.2,2.5c0,1.2,0.3,2,0.8,2.5c0.5,0.5,1.3,0.8,2.2,0.8L111.8,66L111.8,66z           M109.2,63.8H106c-0.4,0-0.7-0.1-1-0.2c-0.3-0.2-0.4-0.5-0.4-1s0.1-0.7,0.5-1c0.3-0.1,0.6-0.2,1-0.2h3L109.2,63.8          L109.2,63.8z"></path>
							</g>
						</g>
						<g id="Group_28">
							<g id="Graphic_29">
								<path d="M126.5,66l-5-5.5l5-5.2h-3.6l-4.6,5.2v-9.1h-2.9V66h2.9v-5.2l4.3,5.2H126.5z"></path>
							</g>
						</g>
						<g id="Group_26">
							<g id="Graphic_27">
								<path d="M130.7,54v-2.6h-2.9V54H130.7L130.7,54z M130.7,66V55.2h-2.9V66H130.7z"></path>
							</g>
						</g>
						<g id="Group_24">
							<g id="Graphic_25">
								<path d="M142,66c0-6-0.3-9.3-1.1-9.9c-0.6-0.5-1.6-0.8-2.9-0.8h-4.8V66h2.5v-8.4c2,0,3.2,0.1,3.4,0.3          c0.2,0.3,0.3,0.8,0.3,1.6V66H142z"></path>
							</g>
						</g>
						<g id="Group_22">
							<g id="Graphic_23">
								<path d="M154.5,65.5V55.2h-4.7c-1,0-1.7,0.1-2.3,0.3c-0.6,0.3-1.2,0.7-1.8,1.4c-0.3,0.4-0.6,0.9-0.7,1.5          c-0.1,0.7-0.2,1.5-0.2,2.5s0.3,2,0.9,3.1c0.7,1.1,1.6,1.8,2.7,1.8c0,0,0.1,0,0.2,0.1c0.1,0,0.1,0,0.2,0.1h0.8h0.2h0.3h1.9          c0,1.1-0.5,1.7-1.6,1.7h-4.6v2.2c4.6,0,7.3-0.3,7.9-1.1C154.2,68,154.5,67,154.5,65.5z M151.9,63.7h-1.6h-0.5l-0.5-0.1          c-0.6-0.1-1-0.5-1.4-1c-0.3-0.6-0.4-1.4-0.4-2.3s0.3-1.7,0.7-2.1c0.5-0.5,1.3-0.7,2.4-0.7h1.2h0.1V63.7L151.9,63.7z"></path>
							</g>
						</g>
						<g id="Group_20">
							<g id="Graphic_21">
								<rect x="164.1" y="51.3" width="3.2" height="14.7"></rect>
							</g>
						</g>
						<g id="Group_18">
							<g id="Graphic_19">
								<path d="M181.5,53.9v-2.6h-12.6v2.6h4.7V66h3.2V53.9H181.5z"></path>
							</g>
						</g>
						<g id="Group_16">
							<g id="Graphic_17">
								<path d="M201,62.3c0-1-0.1-1.8-0.2-2.4c-0.1-0.6-0.3-1-0.7-1.3l-0.4-0.3l-0.3-0.3c-0.3-0.2-0.6-0.3-0.9-0.3l-0.4-0.1          l-0.5-0.1h-1.1c-3.1,0-4.8-0.1-5.2-0.4c-0.3-0.3-0.5-0.7-0.5-1.3c0-0.6,0.2-1.1,0.6-1.4c0.4-0.3,1-0.4,1.6-0.4h7.2v-2.6          h-7.7c-1.6,0-2.7,0.3-3.5,1c-0.9,0.7-1.4,2-1.4,3.8s0.7,2.9,2.2,3.5c0.7,0.3,1.7,0.4,3.2,0.4h1h0.7c1.6,0,2.5,0.2,2.9,0.5          c0.1,0.1,0.1,0.1,0.1,0.3c0.1,0.1,0.1,0.2,0.1,0.3c0.1,0.1,0.1,0.5,0.1,1c0,0.4-0.3,0.7-0.7,1c-0.3,0.2-0.8,0.3-1.6,0.3          h-7.3v2.6c6.7,0,10.5-0.3,11.3-1C200.6,64.3,201,63.4,201,62.3z"></path>
							</g>
						</g>
						<g id="Group_14">
							<g id="Graphic_15">
								<path d="M206.8,54v-2.6h-2.9V54H206.8L206.8,54z M206.8,66V55.2h-2.9V66H206.8z"></path>
							</g>
						</g>
						<g id="Group_12">
							<g id="Graphic_13">
								<path d="M223.3,66c0-6-0.3-9.2-1.1-9.9c-0.7-0.5-1.7-0.9-3-0.9h-10V66h2.6v-8.4h3.1V66h2.7v-8.4l0.8-0.1h1          c0.4,0,0.7,0.1,1,0.5c0.3,0.3,0.3,0.8,0.3,1.5V66C220.7,66,223.3,66,223.3,66z"></path>
							</g>
						</g>
						<g id="Group_10">
							<g id="Graphic_11">
								<path d="M237.3,60.7V60l-0.1-0.7c-0.1-0.3-0.1-0.5-0.2-0.7l-0.1-0.5c-0.4-1-1-1.8-1.8-2.2c-0.8-0.5-1.7-0.7-2.8-0.7h-5.2          v14.6h2.7V66h2.2c0.3,0,0.5,0,0.6,0c0,0,0.1,0,0.2,0c0.2,0,0.3-0.1,0.4-0.1l1.1-0.3c0.8-0.3,1.4-0.7,1.8-1.3          c0.5-0.6,0.7-1.2,0.9-1.9c0-0.1,0.1-0.2,0.1-0.3c0-0.1,0-0.1,0-0.1c0-0.1,0-0.2,0.1-0.5L237.3,60.7z M234.5,60.7          c0,1.2-0.3,2-1,2.5c-0.5,0.3-1.4,0.5-2.7,0.5h-1v-6.1l0.9-0.1h1.4c0.7,0,1.2,0.2,1.6,0.7C234.2,58.6,234.5,59.4,234.5,60.7z          "></path>
							</g>
						</g>
						<g id="Group_8">
							<g id="Graphic_9">
								<rect x="239.5" y="51.3" width="2.9" height="14.7"></rect>
							</g>
						</g>
						<g id="Group_6">
							<g id="Graphic_7">
								<path d="M253.2,66v-2.2c-3.2,0-5-0.1-5.4-0.3c-0.5-0.3-0.7-0.9-0.7-1.7h6v-2.2h-6c0-0.8,0.3-1.4,0.7-1.7          c0.3-0.2,1-0.3,1.8-0.3h3.5v-2.2c-4.3,0-6.8,0.5-7.7,1.4c-0.9,1-1.3,2.2-1.3,4s0.5,3.1,1.4,4c0.9,1,2.2,1.4,3.7,1.4          L253.2,66L253.2,66z"></path>
							</g>
						</g>
					</g>
					<g id="Shield">
						<g>
							<path class="st2" d="M0.2,0c8.9,3.7,20.1,5.6,31.4,5.6c0,2.8,0,62.7,0,62.7l0,0h-0.1C0.2,55.1,0.2,46.7,0.2,0z"></path>
						</g>
						<g>
							<path class="st2" d="M63.1,0C54.2,3.7,43,5.6,31.7,5.6c-4.5,6.4,0,62.7,0,62.7l0,0h0.1C63.2,55.1,63.1,46.7,63.1,0z"></path>
						</g>
					</g>
					<g id="Shield_Gradient_Overlay">
						
							<linearGradient id="SVGID_00000032607321775138150650000000082265868654460067_" gradientUnits="userSpaceOnUse" x1="62.6684" y1="-332.5008" x2="61.9874" y2="-331.3212" gradientTransform="matrix(1 0 0 -1 0 -330.6771)">
							<stop offset="9.848500e-02" style="stop-color:#307FE2"></stop>
							<stop offset="0.7601" style="stop-color:#5D8EF0"></stop>
							<stop offset="1" style="stop-color:#6A96F1"></stop>
						</linearGradient>
						<path style="fill:url(#SVGID_00000032607321775138150650000000082265868654460067_);" d="M63.1,0c-0.5,0.7-1,1.6-1.6,2.4        C62.1,1.6,62.6,0.8,63.1,0z"></path>
						
							<linearGradient id="SVGID_00000142873056884300735810000016765031214848372409_" gradientUnits="userSpaceOnUse" x1="53.0098" y1="-387.9167" x2="30.7466" y2="-349.3556" gradientTransform="matrix(1 0 0 -1 0 -330.6771)">
							<stop offset="9.848500e-02" style="stop-color:#307FE2"></stop>
							<stop offset="0.7601" style="stop-color:#5D8EF0"></stop>
							<stop offset="1" style="stop-color:#6A96F1"></stop>
						</linearGradient>
						<path style="fill:url(#SVGID_00000142873056884300735810000016765031214848372409_);" d="M63.1,0c-0.5,0.8-1,1.6-1.6,2.4        C62.1,1.6,62.6,0.7,63.1,0C36.2,40.2,14.8,45.7,4.2,46.8c3.9,9.5,11.9,15,27.5,21.5l0,0l0,0C63.1,55.1,63.1,46.7,63.1,0z"></path>
					</g>
				</g>
			</g>
		</g>
		<g id="Graphic_63">
			<path d="M332.1,13.4v-2.2h1.4c0.2,0,0.4,0,0.6,0.1c0.2,0,0.4,0.1,0.5,0.1s0.3,0.2,0.4,0.3c0.1,0.1,0.1,0.3,0.1,0.5     c0,0.5-0.1,0.8-0.5,1c-0.3,0.1-0.7,0.2-1.2,0.2L332.1,13.4L332.1,13.4z M330.5,9.9v8.3h1.6v-3.5h1l2,3.5h1.7l-2.2-3.6     c0.3,0,0.6-0.1,0.8-0.2c0.3-0.1,0.5-0.2,0.7-0.4c0.2-0.2,0.3-0.4,0.5-0.7c0.1-0.3,0.1-0.6,0.1-1c0-0.9-0.3-1.5-0.8-1.9     c-0.5-0.3-1.4-0.5-2.4-0.5L330.5,9.9L330.5,9.9L330.5,9.9z M327.9,14.1c0-0.8,0.1-1.6,0.4-2.3c0.3-0.7,0.7-1.3,1.2-1.8     c0.5-0.5,1.1-0.9,1.8-1.2c0.7-0.3,1.4-0.4,2.2-0.4s1.5,0.1,2.2,0.4c0.7,0.3,1.3,0.7,1.8,1.2c0.5,0.5,0.9,1.1,1.2,1.8     c0.3,0.7,0.5,1.5,0.5,2.3c0,0.8-0.1,1.6-0.5,2.3c-0.3,0.7-0.7,1.3-1.2,1.8c-0.5,0.5-1.1,1-1.8,1.2c-0.7,0.3-1.4,0.4-2.2,0.4     s-1.5-0.1-2.2-0.4c-0.7-0.3-1.3-0.7-1.8-1.2c-0.5-0.5-0.9-1.2-1.2-1.8C328,15.7,327.9,14.9,327.9,14.1z M325.8,14.1     c0,1.2,0.2,2.2,0.6,3.1s1,1.7,1.7,2.3c0.7,0.6,1.5,1.2,2.4,1.5s1.9,0.5,2.9,0.5c1,0,2-0.2,2.9-0.5c0.9-0.3,1.7-0.8,2.4-1.5     c0.7-0.7,1.2-1.4,1.7-2.3c0.4-0.9,0.6-1.9,0.6-3.1c0-1.1-0.2-2.1-0.6-3.1c-0.4-0.9-1-1.7-1.7-2.3c-0.7-0.6-1.5-1.2-2.4-1.5     c-0.9-0.3-1.9-0.5-2.9-0.5c-1,0-2,0.2-2.9,0.5c-0.9,0.3-1.7,0.8-2.4,1.5c-0.7,0.6-1.2,1.4-1.7,2.3C326.1,12,325.8,13,325.8,14.1z     "></path>
		</g>
	</g>
</g>
<g>
	<path class="st7" d="M49.1,13.8c-1.5-1.5-3.5-2.3-6-2.3c-2.3,0-4.3,0.7-6.1,2c-1.8,1.3-3.2,3.1-4.2,5.4c-0.9,2.1-1.4,4.5-1.5,7   c-0.2-0.3-0.4-0.6-0.6-0.9c-0.9-1-2.1-1.7-3.7-2l6.3-5.9l0.6-3.4H18.1l-0.9,4.2h9.6l-5.6,5.3l-0.7,3.5h2.4c1.3,0,2.2,0.2,2.8,0.6   c0.6,0.4,0.9,1,0.9,1.8c0,1-0.4,1.8-1.3,2.4c-0.8,0.6-2,0.9-3.6,0.9c-1.2,0-2.3-0.2-3.4-0.6c-1.1-0.4-2-0.9-2.7-1.5l-2.5,3.9   c1,0.8,2.2,1.5,3.6,1.9c1.4,0.5,3,0.7,4.7,0.7c2,0,3.8-0.3,5.4-1c1.6-0.7,2.8-1.6,3.7-2.8c0.6-0.9,1-1.8,1.2-2.8   c0.4,1,0.9,1.9,1.6,2.7c1.5,1.5,3.5,2.3,6,2.3c2.3,0,4.3-0.7,6.1-2c1.8-1.3,3.2-3.1,4.2-5.4c1-2.3,1.5-4.8,1.5-7.5   C51.3,17.4,50.5,15.3,49.1,13.8z M45.3,24.9c-0.5,1.6-1.2,3-2.1,4c-0.9,1.1-2,1.6-3.3,1.6c-1.1,0-1.9-0.4-2.5-1.1   c-0.6-0.7-0.9-1.8-0.9-3.2c0-1.5,0.2-3,0.7-4.6c0.5-1.6,1.2-3,2.1-4c0.9-1.1,2-1.6,3.3-1.6c1.1,0,1.9,0.4,2.5,1.1   c0.6,0.7,0.9,1.8,0.9,3.2C46,21.7,45.8,23.3,45.3,24.9z"></path>
	<path class="st7" d="M52.3,37.2c-3.5-0.7-8.3-1.3-12.8-0.8c-8.8,0.8-13.9,3.4-16.1,4.7c0,0,7.1-2.9,14.8-2.9c3.8,0,6.9,0.6,8.9,1.1   L52.3,37.2z"></path>
	<path class="st8" d="M51.9,36.4c0,0-8.8-1.9-17.9,0s-13.8,6-13.8,6l-9-0.8c0,0,9.5-6.7,20.2-7.7S49,35,51.9,36.4z"></path>
	<g>
		<path class="st7" d="M33.5,32.7c-1.5-1.5-2.2-3.6-2.2-6.3c0-2.7,0.5-5.2,1.5-7.5c1-2.3,2.4-4.1,4.2-5.4c1.8-1.3,3.8-2,6.1-2    c2.5,0,4.5,0.8,6,2.3c1.5,1.5,2.2,3.6,2.2,6.3c0,2.7-0.5,5.2-1.5,7.5c-1,2.3-2.4,4.1-4.2,5.4c-1.8,1.3-3.8,2-6.1,2    C36.9,35,34.9,34.2,33.5,32.7z M43.2,28.9c0.9-1.1,1.6-2.4,2.1-4c0.5-1.6,0.7-3.2,0.7-4.6c0-1.4-0.3-2.5-0.9-3.2    c-0.6-0.7-1.4-1.1-2.5-1.1c-1.3,0-2.3,0.5-3.3,1.6c-0.9,1.1-1.6,2.4-2.1,4c-0.5,1.6-0.7,3.2-0.7,4.6c0,1.4,0.3,2.5,0.9,3.2    c0.6,0.7,1.4,1.1,2.5,1.1C41.2,30.5,42.3,30,43.2,28.9z"></path>
	</g>
</g>
<g>
	<path class="st7" d="M15.8,52.3l0.6-3l0.2,1.2l-2.1-5.2h2l1.5,3.8l-1.2,0l3.1-3.8h2l-4.2,5.2l0.7-1.2l-0.6,3H15.8z"></path>
	<path class="st7" d="M23.2,50.8h3.7l-0.3,1.5h-5.6l1.4-7h5.5l-0.3,1.5H24L23.2,50.8z M23.6,48h3.2l-0.3,1.5h-3.2L23.6,48z"></path>
	<path class="st7" d="M26.8,52.3l4.5-7h1.9l1.7,7h-2l-1.2-6.1h0.8l-3.6,6.1H26.8z M28.8,51l0.8-1.5H33l0.2,1.5H28.8z"></path>
	<path class="st7" d="M35.5,52.3l1.4-7h3c0.9,0,1.6,0.2,2.1,0.6c0.5,0.4,0.7,0.9,0.7,1.6c0,0.6-0.1,1.1-0.4,1.5   c-0.3,0.4-0.7,0.8-1.2,1c-0.5,0.2-1.1,0.4-1.8,0.4H37l1.1-0.8l-0.5,2.7H35.5z M38,49.9l-0.7-0.9h2.1c0.4,0,0.8-0.1,1-0.3   c0.2-0.2,0.4-0.5,0.4-0.9c0-0.3-0.1-0.5-0.3-0.7c-0.2-0.1-0.5-0.2-0.8-0.2h-1.9l1.1-0.9L38,49.9z M39.9,52.3l-1.4-2.5h2l1.5,2.5   H39.9z"></path>
	<path class="st7" d="M45.5,52.5c-0.4,0-0.8,0-1.1-0.1c-0.4-0.1-0.7-0.2-1-0.3c-0.3-0.1-0.6-0.2-0.8-0.4l0.8-1.5   c0.2,0.1,0.5,0.3,0.7,0.4c0.3,0.1,0.5,0.2,0.8,0.2c0.3,0.1,0.5,0.1,0.8,0.1c0.3,0,0.5,0,0.6-0.1c0.2-0.1,0.3-0.1,0.4-0.2   c0.1-0.1,0.1-0.2,0.1-0.3c0-0.1-0.1-0.3-0.2-0.3c-0.1-0.1-0.3-0.2-0.5-0.2c-0.2-0.1-0.4-0.1-0.7-0.2c-0.2-0.1-0.5-0.1-0.7-0.2   c-0.2-0.1-0.5-0.2-0.7-0.3c-0.2-0.1-0.4-0.3-0.5-0.5c-0.1-0.2-0.2-0.5-0.2-0.8c0-0.5,0.1-0.9,0.4-1.3s0.7-0.7,1.2-0.9   c0.5-0.2,1.1-0.3,1.8-0.3c0.5,0,1,0.1,1.4,0.2c0.4,0.1,0.8,0.3,1.1,0.4l-0.7,1.5c-0.3-0.2-0.6-0.3-0.9-0.4s-0.7-0.1-1-0.1   c-0.3,0-0.5,0-0.7,0.1c-0.2,0.1-0.3,0.1-0.4,0.2s-0.1,0.2-0.1,0.3c0,0.1,0.1,0.2,0.2,0.3s0.3,0.2,0.5,0.2c0.2,0.1,0.4,0.1,0.7,0.2   c0.2,0.1,0.5,0.1,0.7,0.2c0.2,0.1,0.5,0.2,0.7,0.3c0.2,0.1,0.4,0.3,0.5,0.5c0.1,0.2,0.2,0.5,0.2,0.8c0,0.5-0.1,0.9-0.4,1.3   s-0.7,0.7-1.2,0.9C46.8,52.4,46.2,52.5,45.5,52.5z"></path>
</g>
</svg>
