<?xml version="1.0" encoding="utf-8"?>
<!-- Generator: Adobe Illustrator 26.3.1, SVG Export Plug-In . SVG Version: 6.00 Build 0)  -->
<svg version="1.1" id="Layer_1" xmlns="http://www.w3.org/2000/svg" xmlns:xlink="http://www.w3.org/1999/xlink" x="0px" y="0px"
	 viewBox="0 0 1811.6 1618.1" style="enable-background:new 0 0 1811.6 1618.1;" xml:space="preserve">
<style type="text/css">
	.st0{display:none;}
	.st1{display:none;fill:none;}
	.st2{opacity:0.14;fill:#AEDDF2;}
	.st3{display:none;fill:#FFFFFF;}
	.st4{fill:#418FDE;}
	.st5{fill:#0B2D4E;}
	.st6{fill:#989A9B;}
	.st7{fill:#061F33;}
	.st8{fill:#AAAEAF;}
	.st9{clip-path:url(#SVGID_00000034083026087603733230000003436407904537930410_);fill:#989A9B;}
	.st10{clip-path:url(#SVGID_00000140726649395754883340000000338957199690731432_);fill:#989A9B;}
	.st11{fill:#B8D1CE;}
	.st12{fill:#FFFFFF;}
	.st13{fill:#3F91AC;}
	.st14{fill:#F8A17A;}
	.st15{fill:#E5785C;}
	.st16{opacity:0.2;fill:#FFFFFF;enable-background:new    ;}
	.st17{fill:#1C67B2;}
	.st18{fill:none;stroke:#0B2D4E;stroke-width:4;stroke-miterlimit:10;}
	.st19{fill:#AEDDF2;}
	.st20{fill:#FEDD00;}
	.st21{clip-path:url(#SVGID_00000047042659749609338830000012263498223163779204_);}
	.st22{fill:none;stroke:#CDE7F2;stroke-width:5;stroke-miterlimit:10;}
	.st23{fill:#CDE7F2;}
	.st24{clip-path:url(#SVGID_00000052806341342298238030000009454336621859820168_);}
	.st25{fill:none;stroke:#AEDDF2;stroke-width:5;stroke-miterlimit:10;}
	.st26{opacity:0.1;fill:#231F20;enable-background:new    ;}
	.st27{fill:none;stroke:#FFFFFF;stroke-width:4;stroke-miterlimit:10;}
</style>
<g id="Layer_2_00000018928898769257447870000003186213349216870815_" class="st0">
</g>
<g id="Layer_1_00000105394429283263819280000011336303137387350944_">
	<rect x="-115.1" y="-171.8" class="st1" width="2005" height="2005"/>
	<circle class="st2" cx="887.4" cy="912.6" r="705.5"/>
	<rect x="-115.1" y="1453.3" class="st3" width="2005" height="379.9"/>
	<path class="st2" d="M48.7,158.1c-0.9-5.7,6.6-17.3,14.9-17.1c3.3,0.1,6.5,0.9,9.8,0.8c8.8-0.4,13.3-7.3,16.7-12.9
		c3.4-5.7,10.1-12.1,18.7-10.7c12.3,2.1,18.5,18.3,32.5,6.1c9.2-8,9.8-19.1,20.2-26.9c7.1-5.3,18.7-8.5,28.2-5.5
		c12.5,3.8,17.1,16.2,30.3,18.3c14.7,2.4,25.3-8.8,29.9-16.9c5.7-9.8,7.8-20.4,12.7-30.3c4.5-9.2,13.6-21.6,29.8-21.3
		c13.7,0.2,19.8,8.9,26.5,15.8c8.8,9,27,41.2,47.5,37.3c8-1.5,12-7.8,19.1-10.7c11.6-4.6,26.3,1.7,33.3,9.6s9.7,17.4,17.6,24.9
		c2,1.9,4.5,3.8,7.7,4.6c11,3,21.2-6.2,33-6.9c8.1-0.5,15.7,3.3,20.3,8c4.7,4.7,7.2,10.2,10.8,15.3c1,1.4,2.1,2.9,3.9,3.8
		c5.2,2.8,12.4,0.4,18.8-0.7c15.6-2.7,33.4,4.5,37.8,15.3L48.7,158.1L48.7,158.1z"/>
	<path class="st2" d="M1698,102.6c0.8-5.1-5.9-15.3-13.2-15.1c-2.9,0.1-5.7,0.8-8.6,0.7c-7.7-0.4-11.7-6.4-14.7-11.4
		s-8.9-10.7-16.4-9.4c-10.8,1.8-16.3,16.1-28.6,5.4c-8.1-7-8.7-16.9-17.8-23.7c-6.3-4.7-16.5-7.5-24.9-4.9
		c-11,3.4-15.1,14.3-26.8,16.2c-12.9,2.1-22.3-7.8-26.4-14.9c-5-8.6-6.9-17.9-11.2-26.7c-4-8.1-12-19-26.3-18.8
		c-12.1,0.2-17.5,7.9-23.4,14c-7.7,7.9-23.8,36.4-41.8,32.9c-7-1.3-10.5-6.9-16.9-9.4c-10.2-4-23.2,1.5-29.3,8.5
		c-6.1,6.9-8.6,15.3-15.5,21.9c-1.8,1.7-4,3.3-6.8,4.1c-9.7,2.7-18.7-5.5-29.1-6.1c-7.2-0.4-13.8,2.9-17.9,7.1
		c-4.1,4.1-6.4,9-9.5,13.5c-0.9,1.3-1.9,2.5-3.5,3.4c-4.6,2.4-11,0.4-16.5-0.6c-13.8-2.4-29.4,4-33.3,13.5H1698V102.6z"/>
	<g>
		<path class="st4" d="M713.2,804.3c-32.1,33-3,113.8,48.2,102.1c55-12.6,46.8-98.3-3-112.4C739.1,788.5,723.6,793.7,713.2,804.3z"
			/>
		<path class="st5" d="M968.5,910.9c-12.2,11.8-26.4,21-43.3,24.8c-32.1,7.3-62.2-6.8-89-23c-28.6-17.4-57.1-35-84.1-54.8
			c-19.3-14.2-39-29.3-51-50.5c-13.9-24.6-14.7-54.1-11.9-81.6c1.9-18.7-6.8-35.5-10.6-53.4c-7.5-34.8,0.2-75.8,32.6-95.8
			c16.6-10.2,33.9-8.7,51.3-1.2c13.3,5.7,25.8,13.7,39.8,17.7c29.8,8.5,62-3.2,91.2-9.2c21.1-4.3,44.2-6.6,65,0.3
			c23.2,7.8,34.2,24.7,46.8,44.3c10.8,16.8,27.2,29.4,40.3,44.3c17.5,20,22.8,45.3,16.9,71c-8.6,37.8-30.4,70.3-49.3,103.4
			C1001.2,868.6,987.1,892.8,968.5,910.9z"/>
		<path class="st6" d="M729.8,1269.7c38.5-59.4,62.5-132.2,29-199.2c-3.4-6.8-7.5-14.2-14.7-16.6c-15.5-5.2-36.5,0.4-50,8.3
			c-46.7,27.4-75.3,79-101.6,124.9c-27.3,47.7-51,97.3-78.4,145c-11.1,19.3-22.3,38.8-28.3,60.3c-5.2,18.8-5.8,40.3,1.3,58.7
			c30.8,79.5,115.4-17.9,141.1-47.3C665.1,1361.8,699.4,1316.5,729.8,1269.7z"/>
		<path class="st7" d="M921.7,909.9c-4.1,4.4-8.9,8.1-14.4,10.8c-14,7-30.9,6.6-45.8,2c-15-4.6-28.4-13.1-41.2-22.2
			c-34.6-24.5-77.4-56.8-98-94.4c-12.7-23.2-22.1-50.5-10-75.8c10.4-21.7,31.6-37.8,55.9-40.1c2-0.2,4.1-0.3,5.9,0.6
			c2,1,3.3,3,4.5,4.9c8.8,14.4,15.7,30,26.4,43.1c11.6,14.3,26,24.9,41.7,34.4c25.4,15.4,53.2,26.8,77.1,44.4
			c17.2,12.7,17.7,41.4,13.5,61.3C935,890.4,929.6,901.4,921.7,909.9z"/>
		<g>
			<g>
				<path id="SVGID_1_" class="st8" d="M1115.3,1193.7c12.2-44.5,18.5-90.1-9.1-120.4c-12.5-13.7-34.7-23.2-52.9-30
					c-35.5-13.2-71.8-31-109.8-36.8c-40.1-6.1-84.6-9.8-124.5-1.1c-25.4,5.5-49.1,15.7-71.8,26.8c-30.4,14.8-52.1,24.7-61.9,55.2
					c-10.8,33.8-17.4,68.5-21.1,103.3c-10.7,102.1,3.5,204.4,3.1,306.5c0,10,0.1,20.5,5.2,29.5c10,17.8,37.4,18,57,18
					c64.8-0.1,129.7-0.2,194.5-0.3c27,0,47.6,2.8,72.9,7.3c21.3,3.8,39.6-5.5,49.8-22.6c9.7-16.2,10.4-35.1,11.5-53.3
					c4-70.8,15.7-141.2,34.7-210.2C1098.5,1246.1,1108,1220.6,1115.3,1193.7z"/>
			</g>
			<g>
				<defs>
					<path id="SVGID_00000024696908134857715050000007442412492456863400_" d="M1115.3,1193.7c12.2-44.5,18.5-90.1-9.1-120.4
						c-12.5-13.7-34.7-23.2-52.9-30c-35.5-13.2-71.8-31-109.8-36.8c-40.1-6.1-84.6-9.8-124.5-1.1c-25.4,5.5-49.1,15.7-71.8,26.8
						c-30.4,14.8-52.1,24.7-61.9,55.2c-10.8,33.8-17.4,68.5-21.1,103.3c-10.7,102.1,3.5,204.4,3.1,306.5c0,10,0.1,20.5,5.2,29.5
						c10,17.8,37.4,18,57,18c64.8-0.1,129.7-0.2,194.5-0.3c27,0,47.6,2.8,72.9,7.3c21.3,3.8,39.6-5.5,49.8-22.6
						c9.7-16.2,10.4-35.1,11.5-53.3c4-70.8,15.7-141.2,34.7-210.2C1098.5,1246.1,1108,1220.6,1115.3,1193.7z"/>
				</defs>
				<clipPath id="SVGID_00000010301271601404441110000018181129276588191914_">
					<use xlink:href="#SVGID_00000024696908134857715050000007442412492456863400_"  style="overflow:visible;"/>
				</clipPath>
				<path style="clip-path:url(#SVGID_00000010301271601404441110000018181129276588191914_);fill:#989A9B;" d="M958.5,1064.2
					c13.7-22.1,16.8-49.8-1.1-71.1c-8.2-9.8-22.8-10.8-35.2-11.1c-24.5-0.4-49,2.1-72.8,7.4c-22.7,5.1-45.9,13.7-55.7,35.7
					c-7.3,16.3-4.8,35.2,4.9,50.2c8.7,13.6,23.3,23.6,39.4,27.3c26.1,6,56.7,5.2,81.7-4.9C935.2,1091.5,949.2,1079.1,958.5,1064.2z"
					/>
			</g>
			<g>
				<defs>
					<path id="SVGID_00000002358580333253311290000012802160741297318562_" d="M1115.3,1193.7c12.2-44.5,18.5-90.1-9.1-120.4
						c-12.5-13.7-34.7-23.2-52.9-30c-35.5-13.2-71.8-31-109.8-36.8c-40.1-6.1-84.6-9.8-124.5-1.1c-25.4,5.5-49.1,15.7-71.8,26.8
						c-30.4,14.8-52.1,24.7-61.9,55.2c-10.8,33.8-17.4,68.5-21.1,103.3c-10.7,102.1,3.5,204.4,3.1,306.5c0,10,0.1,20.5,5.2,29.5
						c10,17.8,37.4,18,57,18c64.8-0.1,129.7-0.2,194.5-0.3c27,0,47.6,2.8,72.9,7.3c21.3,3.8,39.6-5.5,49.8-22.6
						c9.7-16.2,10.4-35.1,11.5-53.3c4-70.8,15.7-141.2,34.7-210.2C1098.5,1246.1,1108,1220.6,1115.3,1193.7z"/>
				</defs>
				<clipPath id="SVGID_00000037672051468234012170000001507779664921743780_">
					<use xlink:href="#SVGID_00000002358580333253311290000012802160741297318562_"  style="overflow:visible;"/>
				</clipPath>
				<path style="clip-path:url(#SVGID_00000037672051468234012170000001507779664921743780_);fill:#989A9B;" d="M703.8,1541
					c26.1,12.3,54.6,18.5,83.1,23.3c79.6,13.3,160.8,16.1,241.5,12.3c17.2-0.8,35.9-2.5,48.7-14.2c9.5-8.7,13.9-21.5,17.1-33.9
					c10.8-42.4,10.6-86.7,10.4-130.5c-0.2-34.1-0.3-68.3-0.5-102.4c-0.1-11.9,7.7-84.2-10.8-83.4c-2,0.1-3.8,1.1-5.4,2.3
					c-9.2,6.6-13.9,17.6-18.2,28.1c-13.5,32.8-24.8,85.3-52.8,108.3c-29.5,24.1-63.4,35.3-99.1,46.9c-61.9,20.1-131,28.8-183.4,70
					c-8.7,6.9-17.1,14.5-25.1,22.1c-7.3,6.9-17.3,14-21.6,23.6C680.6,1528.3,691.2,1535.1,703.8,1541z"/>
			</g>
		</g>
		<path class="st8" d="M1255,1299.8c9.8,17.8,19.6,35.6,29.2,53.5c19.5,36.3,55.7,117.1-2.3,137c-29.2,10-45.9,0.2-65.2-21.1
			c-73-80.5-135.3-170.7-184.7-267.5c-18.4-36-67.1-129.9-7.9-151.4c18.7-6.8,40.3-5.2,57.8,4.2c8,4.3,15.1,10.1,21.9,16.2
			c42.8,38.1,73.2,87.3,100.3,137.2C1220.9,1238.8,1238,1269.3,1255,1299.8z"/>
		<path class="st8" d="M959.6,1430.2c5.1-0.9,10.2-1.7,15.3-2.5c24.9-3.9,49.7-8.4,74.3-13.7c48.8-10.5,97.9-19.5,147.6-24.1
			c5.3-0.5,10.5-0.9,15.8-1.3c22.3-1.7,45.6-2.3,66,8.1s36.5,35,31.5,58.7c-3.5,16.7-16.6,29.3-31.1,35.6
			c-14.5,6.4-30.5,7.5-46.1,8.5c-50.7,3.4-101.4,6.8-152.2,10.3c-25.1,1.7-50.2,3.4-75.3,5.2c-24,1.7-48.3,5-72.4,5
			c-10.2,0-21.5-1.8-30.1-8.5c-11.9-9.2-19-28.8-20.1-44.2c-0.6-8,1-17.6,7.3-22.6c3.3-2.6,7.6-3.5,11.7-4.2
			C921.1,1437.1,940.3,1433.4,959.6,1430.2z"/>
		<g>
			<rect x="522.7" y="1448.2" class="st11" width="240.5" height="47.1"/>
			<path class="st11" d="M564,1452.7l-60.7-309c-1.6-8.2-8.8-14-17.1-14H82.7c-5.8,0-10.8,2.9-14,7.2l-0.1-0.1l-18.6,22l16.5-3.6
				l59.8,304.3c1.6,8.2,8.8,14.1,17.1,14.1h403.5C557.9,1473.5,566.1,1463.5,564,1452.7z"/>
			<path class="st12" d="M124.9,1495.3h403.5c11,0,19.2-10,17.1-20.8l-60.7-309c-1.6-8.2-8.8-14-17.1-14H64.2
				c-11,0-19.2,10-17.1,20.8l60.7,309C109.4,1489.4,116.6,1495.3,124.9,1495.3z"/>
			<path class="st11" d="M251.9,1315.7c3.7,20.8,23.6,37.7,44.5,37.7c20.8,0,34.5-16.9,30.5-37.7c-4-20.8-23.9-37.7-44.5-37.7
				S248.1,1294.8,251.9,1315.7z"/>
			<path class="st13" d="M46.8,1165.8"/>
		</g>
		<path class="st14" d="M902.2,1505.9c-12,2.5-21.4,13-33.3,16.5c-8.5,2.5-17.6,1.2-25.8-1.9c-7.5-2.8-15.2-4.3-22.9-6.8
			c-6-1.9-14.1-6-20.6-4.6c-16.9,3.5-33.9,15.6-49.2,23.4c-3.5,1.8-7.2,3.6-11,2.9s-7-5.3-4.8-8.6c-4.4,4.1-10.3,12.4-17.4,9.2
			c-2.9-1.3-4.7-5.2-3.1-7.9c-2.5,2.7-5,5.5-8.4,6.8s-7.8,0.8-9.8-2.3c-0.9-1.4-1.2-3.2-1.3-4.9c-0.3-5.9,1.5-11.7,3.9-17
			c12.1-26.4,39.5-46,62.7-61.7c4.1-2.8,8.3-5.6,13.1-7.1c4.3-1.3,8.8-1.4,13.2-1.5c28.9-0.1,57.8,4.5,85.1,13.8
			c5.9,2,12.4,0.3,18.3-0.8c4.4-0.8,8.9-1.6,13.2-0.4c4.8,1.4,8.5,5.2,11.4,9.2c5.3,7.4,9.4,17.2,8.8,26.6c-0.5,7.1-1,14.7-9.4,16.2
			c-3.4,0.6-6.9,0.2-10.3,0.6C903.9,1505.5,903,1505.7,902.2,1505.9z"/>
		<path class="st14" d="M907.3,1078.8c17.6-5.7,32.2-16.6,37.6-34.1c4.9-15.8-2.8-33.6-4.2-49.6c-1.3-15.3-1.5-30.7-0.5-46
			c0.9-14.2,2.3-28.9,0.1-43c-1.2-8.1-5.7-6.7-13.8-9.9c-8.2-3.2-17.3-3.2-26.2-3.2c-18.2,0-65.5-1.3-76.7,14.7
			c-5.2,7.3-5.6,16.5-5.8,25.2c-0.3,10.5-2.2,24.1-3.9,38.8c-0.8,6.5-0.3,13-1.3,19.5c-1.1,7.3-3.9,14.2-6.3,21.2
			c-9.1,26.3-0.6,51.3,27.9,63.4C854.6,1084.5,883.8,1086.4,907.3,1078.8z"/>
		<path class="st15" d="M940.2,906.2c-1.2-8.1-5.7-6.7-13.8-9.9c-8.2-3.2-17.3-3.2-26.2-3.2c-18.2,0-65.5-1.3-76.7,14.7
			c-5.2,7.3-5.6,16.5-5.8,25.2c-0.3,10.5-2.2,24.1-3.9,38.8c-0.8,6.5-0.3,13-1.3,19.5c-0.9,5.5-2.7,10.9-4.5,16.2
			c17.6,6.5,37.5,8,55.8,3.5c33.1-8.1,58.1-28.7,76-55.5c0.1-2.1,0.2-4.2,0.3-6.2C941.1,935,942.4,920.3,940.2,906.2z"/>
		<path class="st14" d="M966.6,802.5c-0.1-24.2-3.5-47.2-9.7-66.3c-26.9-82.4-129.7-102.8-191.6-43.6c-69,66-42.6,223.7,30.1,279.1
			c19.4,14.8,45.9,20,69.5,13.7C936.3,966.2,967,878.2,966.6,802.5z"/>
		<path class="st15" d="M956.9,736.1c-26.9-82.4-129.7-102.8-191.6-43.6c-7.8,7.5-14.4,16.2-19.8,25.7c3.6,3.1,7.5,5.8,10.9,7.8
			c26.1,15.7,54.4,27.6,83.9,35.1c12.7,3.3,26,5.9,36.4,13.9c6,4.6,10.5,10.5,14.1,17c4.4,7.9,7.5,16.7,10.4,25.2
			c6.4,18.7,9.2,38.4,11.8,57.9c0.3,2,0.6,4.2,2.1,5.6c1.4,1.3,3.5,1.6,5.5,1.6c11.4-0.3,16.9-11.2,25.8-17
			c5.3-3.5,10.7-7,15.7-10.9c3.2-17.3,4.7-35,4.6-52C966.4,778.2,963.1,755.2,956.9,736.1z"/>
		<path class="st5" d="M902.3,788.9c3.3,8.4,5.3,17.5,7.1,26.4c3.9,19.4,4.2,39.3,4.2,59c0,2,0.1,4.3,1.4,5.9c1.2,1.5,3.3,2,5.2,2.2
			c11.3,1.2,18.2-8.9,27.8-13.5c9.9-4.8,19.9-9.6,28.6-16.4c24.6-19.3,19-51.2,18.2-79.5c-0.4-15.6-0.9-31.4-5.5-46.2
			c-5-16.2-14.7-30.7-26.2-43.2c-33.3-36-83.7-54.7-132.4-51.6c-24.1,1.5-51.3,11.7-68.5,29.1c-14.8,15,3.2,35.3,15.4,45
			c23.8,18.9,50.4,34.4,78.7,45.7c12.1,4.9,25,9.3,34.3,18.5C895.9,775.5,899.6,782,902.3,788.9z"/>
		<path class="st14" d="M953.1,804.5c31.6-17.3,41.4,26.5,35.9,48.3c-2.2,9-5.8,17.8-11.4,25.2c-7.5,10-29,26.5-41.4,15.6
			c-5.6-5-6.2-13.4-6.4-20.9C929.3,852.7,931.6,816.3,953.1,804.5z"/>
		<g>
			<g>
				<g>
					<path class="st12" d="M1410.1,1310.8c4.4-9.2,3.7-18.9,0.8-27.6c-2.7-9-7.5-16.7-12.7-25.1c-5.3-8.3-10.6-17.4-13.9-28.3
						c-3.3-11-2.4-23.4,0.7-33.9c6.6-21.4,20.2-37.1,29.6-53.2c4.7-8.1,8.5-16.4,10-25.6c1.7-9.1,1.1-18.7-3.3-27.8
						c7.7,6.8,11.5,17.7,12,28.3c0.5,10.7-2.2,21.6-6.3,31.2c-8.1,19.4-20.3,35.1-25,52.2c-2.7,8.4-3.3,16.6-1.4,24.8
						c1.6,8.4,6,16.8,9.9,26c4.2,9,8.2,19.3,9.1,29.9C1420.3,1292,1417.9,1303.9,1410.1,1310.8z"/>
				</g>
			</g>
			<g>
				<g>
					<path class="st4" d="M1449.2,1494.3h-69.9c-13.8,0-25-11.2-25-25v-146.8h119.9v146.8C1474.2,1483.1,1463,1494.3,1449.2,1494.3z
						"/>
					<path class="st4" d="M1482.6,1361.3c-28.8,0-52.1,23.7-52.1,52.8c0,29.2,23.3,52.8,52.1,52.8c28.8,0,52.1-23.7,52.1-52.8
						S1511.4,1361.3,1482.6,1361.3z M1482.6,1448.2c-18.5,0-33.5-15.2-33.5-34s15-34,33.5-34s33.5,15.2,33.5,34
						S1501.1,1448.2,1482.6,1448.2z"/>
					<path class="st16" d="M1372.2,1429.1L1372.2,1429.1c-3.6,0-6.5-2.9-6.5-6.5V1339c0-3.6,2.9-6.5,6.5-6.5l0,0
						c3.6,0,6.5,2.9,6.5,6.5v83.6C1378.7,1426.2,1375.8,1429.1,1372.2,1429.1z"/>
					<path class="st17" d="M1446.5,1322.5v141.4c0,16.8-13.6,30.4-30.4,30.4h27.7c16.8,0,30.4-13.6,30.4-30.4v-141.4H1446.5z"/>
				</g>
			</g>
		</g>
		<path class="st18" d="M699.7,716.7c-13.6-38-40.8-68.7-25.1-111.4c9.2-25.2,32.8-41.5,59.5-41.9c12.6-0.2,25.1,2.9,36,9.2
			c13,7.5,21.5,19.6,36.6,23.7c35.5,9.6,72.3-17.5,106.2-23.8c33.6-6.2,69.3,4.8,85.8,36.9c6.5,12.7,9.2,27.3,17.8,38.6
			c14.2,19,41.9,25.5,53.2,46.4c18.4,34.1-19.4,83.4-38.6,109.6"/>
		<g>
			<path class="st17" d="M850.1,948.8c-7.8,0-15.6-0.6-23.4-1.7l1.4-9.5c28.4,4.2,56.7,0.2,81.9-11.4c6.8-3.2,12.6-6.5,17.7-10.2
				c9.2-6.7,17.2-15.4,22.9-25.3l8.3,4.8c-6.4,11-15.3,20.7-25.6,28.2c-5.6,4-11.9,7.7-19.3,11.1
				C894.1,944.1,872.3,948.8,850.1,948.8z"/>
		</g>
		<g>
			<path class="st17" d="M799,930c11.6-9.9,37.3-9.1,45.8,1.2c6.3,7.6,4.4,17.3-2.6,23.8c-8.2,7.6-18.3,7.2-28.5,4.9
				C800.9,957,785,942,799,930z"/>
		</g>
		<g>
			<path class="st19" d="M788.9,630.2c2.8,0.1,5.6,0.3,8.3,0.2c2.8,0.1,5.6-0.1,8.3-0.2c5.5-0.3,11.1-0.9,16.6-1.7
				c11-1.5,21.9-3.6,33-5.1s22.4-2.2,33.6-1.5c2.8,0.2,5.6,0.5,8.4,0.9c2.8,0.4,5.6,0.9,8.4,1.7c5.5,1.4,11,3.4,16,6.3
				c2.5,1.5,4.9,3.1,7.1,5c2.2,1.9,4.2,4,6.1,6.2c1.8,2.3,3.4,4.7,4.8,7.3c1.3,2.6,2.4,5.4,3.1,8.2c0.7,2.9,1,5.8,0.9,8.8
				c0,3-0.6,5.8-1.3,8.6c-0.6,2.7-1.3,5.4-1.7,8s-0.5,5.2-0.2,7.9c0.5,5.3,2.5,10.4,4.8,15.4s5.2,9.8,7.8,14.7
				c2.6,5,4.8,10.2,6.1,15.7c0.6,2.7,1,5.6,1,8.4c0,2.8-0.5,5.6-1.4,8.2c1.4-5.4,0.9-11.1-0.6-16.3c-1.6-5.3-4-10.2-6.8-15
				s-5.8-9.5-8.4-14.5c-2.6-5-4.8-10.4-5.5-16.2c-0.4-2.9-0.4-5.9,0-8.7c0.4-2.9,1.1-5.6,1.6-8.3c0.6-2.7,1-5.3,1-7.9
				c0-2.6-0.2-5.2-0.9-7.8c-0.7-2.5-1.6-5-2.8-7.4c-1.2-2.3-2.7-4.5-4.4-6.6c-1.7-2-3.6-3.9-5.6-5.7c-2-1.7-4.2-3.2-6.5-4.6
				c-4.6-2.7-9.7-4.6-15-6c-5.2-1.4-10.7-2.1-16.1-2.6c-11-0.9-22-0.3-33,0.8c-11,1.2-22,2.9-33.2,3.9c-5.6,0.5-11.2,0.8-16.7,0.8
				C800.1,631.3,794.5,630.9,788.9,630.2z"/>
		</g>
		<path class="st4" d="M966.4,792.1c-44.6,11.4-61.9,95.5-12.1,112.3c53.5,18,91.2-59.5,56.1-97.5
			C996.6,792.1,980.7,788.4,966.4,792.1z"/>
		<path class="st17" d="M981,802.9c-30.8,5-49.8,70.4-18,88.4c34.1,19.4,66.2-38.9,46.1-72.5C1001.2,805.7,990.9,801.3,981,802.9z"
			/>
		<g>
			<path class="st4" d="M987.2,798l-11.9-1.4c8.1-69.8,4.6-159-57.6-187.5c-29.5-13.5-56.4-23.2-104.3-13.7
				c-7-0.9-12.4-3.5-12.4-3.5c43.3-21.2,89.9-8.2,121.7,6.4C991.5,629.7,995.8,724.2,987.2,798z"/>
		</g>
		<g>
			<path class="st20" d="M1151.8,724.9h409.3c22.5,0,41-18.4,41-41V467.6c0-22.6-18.5-41-41-41h-409.3c-22.6,0-41,18.4-41,41v216.3
				C1110.8,706.5,1129.2,724.9,1151.8,724.9z"/>
			<polygon class="st20" points="1175.4,803.5 1175.4,666.4 1282.8,724.9 			"/>
			<path class="st12" d="M1419.8,589.2h-225.2c-5,0-9-4.1-9-9v-8c0-5,4-9,9-9h225.2c4.9,0,9,4,9,9v8
				C1428.8,585.2,1424.8,589.2,1419.8,589.2z"/>
			<path class="st12" d="M1518.2,589.2h-61.7c-5,0-9-4.1-9-9v-8c0-5,4-9,9-9h61.7c4.9,0,9,4,9,9v8
				C1527.2,585.2,1523.2,589.2,1518.2,589.2z"/>
			<path class="st12" d="M1293,504.1h225.2c4.9,0,9,4,9,9v8c0,4.9-4.1,9-9,9H1293c-4.9,0-9-4.1-9-9v-8
				C1284,508.1,1288.1,504.1,1293,504.1z"/>
			<path class="st12" d="M1194.6,504.1h61.7c4.9,0,9,4,9,9v8c0,4.9-4.1,9-9,9h-61.7c-5,0-9-4.1-9-9v-8
				C1185.6,508.1,1189.7,504.1,1194.6,504.1z"/>
			<path class="st12" d="M1347.4,643.2h-152.8c-5,0-9-4.1-9-9v-8c0-4.9,4-9,9-9h152.8c4.9,0,9,4.1,9,9v8
				C1356.4,639.2,1352.4,643.2,1347.4,643.2z"/>
		</g>
		<g>
			<g>
				<g>
					<path id="SVGID_00000026877835618918953700000011109088171566277281_" class="st19" d="M1581.9,809.5
						c-11-0.1-21.7-1.5-29.2-12.3c-14.8-21.2-37.4-40.2-62.7-18.7c-14.6,12.4-3.6,38-16.2,50.3c-11.1,10.9-25.3,9.1-30.9,27.1
						c-8.4,26.6,18,49.8,26.5,72.8c7.1,19.3-8.9,26.6-16,41.6c-5.5,11.6-2.7,24,3.3,35c10.6,19.5,34.2,35.2,28.7,60.5
						c-4.6,21.1-8.8,39.9,9.8,55.9c12.8,11,36.4,20.9,34.6,41.2c-0.6,7.2-5.6,13.3-7,20.4c-2.2,11.2,5.1,22.1,13.5,29.8
						c19.2,17.5,36,34,50.3,56c6.1,9.4,30.7,30.6,20.9,43.5c17.8-23.4,36.7-46,52.9-70.6c13.3-20.2,33.4-49.7,19.7-74.6
						c-4.3-7.7-12.2-13.5-14.3-22.1c-3.9-15.5,11.3-29.8,16.9-42.9c8.9-20.6,2.4-44.6-13.3-60.1c-7.4-7.3-15.4-15.4-16.5-25.7
						c-1.2-11.3,5.9-21.8,9.1-32.3c3-9.6,4.8-19.8,5.9-29.8c0.8-7.1,1.1-14.3-0.6-21.2c-3.2-13.1-15-20.4-23.7-29.7
						c-20.8-22.2-9.9-48.2-19-73.9C1616.6,806.5,1598.9,809.6,1581.9,809.5z"/>
				</g>
				<g>
					<defs>
						<path id="SVGID_00000164506618506291792990000014458334989720136360_" d="M1581.9,809.5c-11-0.1-21.7-1.5-29.2-12.3
							c-14.8-21.2-37.4-40.2-62.7-18.7c-14.6,12.4-3.6,38-16.2,50.3c-11.1,10.9-25.3,9.1-30.9,27.1c-8.4,26.6,18,49.8,26.5,72.8
							c7.1,19.3-8.9,26.6-16,41.6c-5.5,11.6-2.7,24,3.3,35c10.6,19.5,34.2,35.2,28.7,60.5c-4.6,21.1-8.8,39.9,9.8,55.9
							c12.8,11,36.4,20.9,34.6,41.2c-0.6,7.2-5.6,13.3-7,20.4c-2.2,11.2,5.1,22.1,13.5,29.8c19.2,17.5,36,34,50.3,56
							c6.1,9.4,30.7,30.6,20.9,43.5c17.8-23.4,36.7-46,52.9-70.6c13.3-20.2,33.4-49.7,19.7-74.6c-4.3-7.7-12.2-13.5-14.3-22.1
							c-3.9-15.5,11.3-29.8,16.9-42.9c8.9-20.6,2.4-44.6-13.3-60.1c-7.4-7.3-15.4-15.4-16.5-25.7c-1.2-11.3,5.9-21.8,9.1-32.3
							c3-9.6,4.8-19.8,5.9-29.8c0.8-7.1,1.1-14.3-0.6-21.2c-3.2-13.1-15-20.4-23.7-29.7c-20.8-22.2-9.9-48.2-19-73.9
							C1616.6,806.5,1598.9,809.6,1581.9,809.5z"/>
					</defs>
					<clipPath id="SVGID_00000071551856606741185880000003755864365619186852_">
						<use xlink:href="#SVGID_00000164506618506291792990000014458334989720136360_"  style="overflow:visible;"/>
					</clipPath>
					<g style="clip-path:url(#SVGID_00000071551856606741185880000003755864365619186852_);">
						<path class="st22" d="M1609.7,1338.8c7.7-88.6,0.6-177.8-15.7-265.1c-15.6-83.2-36.1-166.7-67.1-245.6
							c-10.3-26.1-21.8-51.6-34.9-76.4"/>
						<path class="st22" d="M1422.1,870.6c43.6,15.4,85.2,36.5,123.3,62.5c9.7,6.6,15.1,8.6,23.2,17.1"/>
						<path class="st22" d="M1589.2,1045.1c-41.8-27-89.3-45.4-138.4-53.4"/>
						<path class="st22" d="M1605.8,1159.4c-38.9-33.7-86.4-57.6-136.7-68.6"/>
						<path class="st22" d="M1566.4,947.3c3-46.9,14.7-93.1,34.2-135.8"/>
						<path class="st22" d="M1588.7,1041.3c19.8-42.3,48.4-80.5,83.4-111.4"/>
						<path class="st22" d="M1608.4,1162.6c2.7-13.1,7.5-25.7,14.2-37.3c7.7-13.5,17.8-25.5,28.1-37.1c7.4-8.4,14.9-16.7,22.6-24.9"
							/>
					</g>
					
						<use xlink:href="#SVGID_00000164506618506291792990000014458334989720136360_"  style="overflow:visible;fill:none;stroke:#CDE7F2;stroke-miterlimit:10;"/>
				</g>
			</g>
			<g>
				<g>
					<path id="SVGID_00000003078941438763807370000004802633536532692645_" class="st23" d="M1717,970.9c8,1.5,15.9,1.9,22.9-4.9
						c13.7-13.3,32.7-24,48.1-4.9c8.9,11-2.6,28.1,4.8,38.7c6.6,9.4,17.1,10.1,18.7,24c2.4,20.4-19.9,33.6-29.3,49.1
						c-7.8,13,2.8,20.5,5.9,32.4c2.4,9.2-1.4,17.8-7.3,25c-10.4,12.7-29.7,20.8-29.2,39.9c0.4,15.9,0.9,30.1-14.8,39.2
						c-10.8,6.2-29.3,10.1-30.8,25.1c-0.5,5.3,2.2,10.4,2.2,15.7c0,8.4-6.8,15.3-13.9,19.7c-16.3,10-30.8,19.7-44.3,33.6
						c-5.7,6-26.5,18-21.2,28.6c-9.7-19.4-20.2-38.5-28.6-58.5c-6.9-16.5-17.4-40.7-4-56.9c4.2-5,10.7-8.1,13.5-14
						c5-10.7-4.1-23.2-6.3-33.5c-3.6-16.2,4.5-32.7,17.9-41.8c6.4-4.3,13.3-9,15.5-16.4c2.4-8-1.3-16.7-2.1-24.7
						c-0.8-7.4-0.7-15.1-0.1-22.4c0.4-5.2,1.2-10.5,3.4-15.3c4.1-9.1,13.7-12.7,21.3-18.3c18.2-13.2,13.8-33.6,24-51
						C1692.3,963.9,1704.7,968.6,1717,970.9z"/>
				</g>
				<g>
					<defs>
						<path id="SVGID_00000138556730869771957870000010151443719072744103_" d="M1717,970.9c8,1.5,15.9,1.9,22.9-4.9
							c13.7-13.3,32.7-24,48.1-4.9c8.9,11-2.6,28.1,4.8,38.7c6.6,9.4,17.1,10.1,18.7,24c2.4,20.4-19.9,33.6-29.3,49.1
							c-7.8,13,2.8,20.5,5.9,32.4c2.4,9.2-1.4,17.8-7.3,25c-10.4,12.7-29.7,20.8-29.2,39.9c0.4,15.9,0.9,30.1-14.8,39.2
							c-10.8,6.2-29.3,10.1-30.8,25.1c-0.5,5.3,2.2,10.4,2.2,15.7c0,8.4-6.8,15.3-13.9,19.7c-16.3,10-30.8,19.7-44.3,33.6
							c-5.7,6-26.5,18-21.2,28.6c-9.7-19.4-20.2-38.5-28.6-58.5c-6.9-16.5-17.4-40.7-4-56.9c4.2-5,10.7-8.1,13.5-14
							c5-10.7-4.1-23.2-6.3-33.5c-3.6-16.2,4.5-32.7,17.9-41.8c6.4-4.3,13.3-9,15.5-16.4c2.4-8-1.3-16.7-2.1-24.7
							c-0.8-7.4-0.7-15.1-0.1-22.4c0.4-5.2,1.2-10.5,3.4-15.3c4.1-9.1,13.7-12.7,21.3-18.3c18.2-13.2,13.8-33.6,24-51
							C1692.3,963.9,1704.7,968.6,1717,970.9z"/>
					</defs>
					<clipPath id="SVGID_00000137815650391425351410000001276945840588607419_">
						<use xlink:href="#SVGID_00000138556730869771957870000010151443719072744103_"  style="overflow:visible;"/>
					</clipPath>
					<g style="clip-path:url(#SVGID_00000137815650391425351410000001276945840588607419_);">
						<path class="st25" d="M1623.6,1351c6.7-65.3,24.2-129.1,48.1-190.1c22.8-58.2,49.3-115.9,82.7-168.8
							c11.1-17.5,22.9-34.4,35.9-50.6"/>
						<path class="st25" d="M1824.5,1037.3c-33.8,5.1-66.8,14.7-98.1,28.3c-7.9,3.5-12.1,4.2-19.2,9.2"/>
						<path class="st25" d="M1679.1,1140.8c34.1-13.8,71-20.5,107.8-19.6"/>
						<path class="st25" d="M1651.3,1221.4c32.9-19.1,70.6-29.8,108.7-30.9"/>
						<path class="st25" d="M1709.2,1073c4.3-34.4,2.2-69.6-6-103.3"/>
						<path class="st25" d="M1680,1138.1c-8.5-33.4-23.9-65.1-45.1-92.4"/>
						<path class="st25" d="M1648.9,1223.4c-0.2-9.9-1.9-19.7-5.1-29c-3.7-10.9-9.4-20.9-15.2-30.8c-4.2-7.1-8.5-14.2-12.9-21.2"/>
					</g>
					
						<use xlink:href="#SVGID_00000138556730869771957870000010151443719072744103_"  style="overflow:visible;fill:none;stroke:#AEDDF2;stroke-miterlimit:10;"/>
				</g>
			</g>
			<polygon class="st20" points="1545.9,1328.4 1709.2,1328.4 1680.5,1491.8 1574.5,1491.8 			"/>
			<rect x="1525.8" y="1282.6" class="st20" width="203.3" height="45.9"/>
			<polygon class="st26" points="1705.4,1350.1 1549.7,1350.1 1545.9,1328.4 1709.2,1328.4 			"/>
		</g>
		<path class="st19" d="M1762,1552.4H31.9c-17.6,0-31.9-13.6-31.9-30.4l0,0c0-16.8,14.3-30.4,31.9-30.4H1762
			c17.6,0,31.9,13.6,31.9,30.4l0,0C1793.9,1538.8,1779.6,1552.4,1762,1552.4z"/>
		<g>
			<path class="st19" d="M411.9,467h-64.6c-27.5,0-50,22.5-50,50l0,0c0,17,8.6,32.1,21.7,41.1v35.2l36-26.3h57c27.5,0,50-22.5,50-50
				l0,0C461.8,489.5,439.4,467,411.9,467z"/>
			
				<ellipse transform="matrix(0.229 -0.9734 0.9734 0.229 -238.4699 732.7071)" class="st12" cx="343.3" cy="516.9" rx="7.6" ry="7.6"/>
			
				<ellipse transform="matrix(0.7071 -0.7071 0.7071 0.7071 -254.3226 419.7733)" class="st12" cx="379.5" cy="516.9" rx="7.6" ry="7.6"/>
			
				<ellipse transform="matrix(0.7071 -0.7071 0.7071 0.7071 -243.7201 445.3705)" class="st12" cx="415.7" cy="516.9" rx="7.6" ry="7.6"/>
		</g>
		<path class="st19" d="M1234.9,926c-10-17.1-35.1-25.6-59.4,2.8c-24.3-28.4-49.5-19.9-59.4-2.8c-24.6,42,59.4,91.5,59.4,91.5
			S1259.4,968,1234.9,926z"/>
		<g>
			<path class="st19" d="M821.5,476.3h-125c-6.6,0-12-5.4-12-12v-75.4c0-6.6,5.4-12,12-12h125c6.6,0,12,5.4,12,12v75.4
				C833.5,470.9,828.1,476.3,821.5,476.3z"/>
			<path class="st27" d="M687,380.1l65.2,63.2c3.7,3.6,10,3.6,13.7,0l65.2-63.2"/>
			<line class="st27" x1="687" y1="473.1" x2="740.5" y2="432"/>
			<line class="st27" x1="831.1" y1="473.1" x2="777.6" y2="432"/>
		</g>
		<g>
			<g>
				<path class="st19" d="M568.2,864.1H420.1c-6.6,0-12-5.4-12-12v-95.5c0-6.6,5.4-12,12-12h148.1c6.6,0,12,5.4,12,12v95.5
					C580.2,858.8,574.8,864.1,568.2,864.1z"/>
			</g>
			<g>
				<polygon class="st19" points="494.1,901.9 524.3,861.2 464,861.2 				"/>
			</g>
			<g>
				<path class="st12" d="M539.4,819.8H532v-20.4l0.1-3.3l0.1-3.7c-1.2,1.2-2.1,2-2.6,2.4l-4,3.3l-3.6-4.5l11.3-9h6.1L539.4,819.8
					L539.4,819.8z"/>
			</g>
			<g>
				<path class="st12" d="M484.2,783.3h-24.4c-10.4,0-18.9,8.5-18.9,18.9l0,0c0,6.4,3.2,12.1,8.2,15.5V831l13.6-9.9h21.5
					c10.4,0,18.9-8.5,18.9-18.9l0,0C503.1,791.8,494.6,783.3,484.2,783.3z"/>
			</g>
		</g>
	</g>
</g>
</svg>
