<?xml version="1.0" encoding="utf-8"?>
<!-- Generator: Adobe Illustrator 24.3.0, SVG Export Plug-In . SVG Version: 6.00 Build 0)  -->
<svg version="1.1" id="Layer_1" xmlns="http://www.w3.org/2000/svg" xmlns:xlink="http://www.w3.org/1999/xlink" x="0px" y="0px"
	 viewBox="0 0 63 27" style="enable-background:new 0 0 63 27;" xml:space="preserve">
<style type="text/css">
	.st0{clip-path:url(#SVGID_2_);}
	.st1{fill:#01A982;}
</style>
<g>
	<defs>
		<rect id="SVGID_1_" width="62.8" height="26.2"/>
	</defs>
	<clipPath id="SVGID_2_">
		<use xlink:href="#SVGID_1_"  style="overflow:visible;"/>
	</clipPath>
	<g class="st0">
		<path class="st1" d="M0,0v6.2h21.5V0H0z M20.1,4.8H1.3V1.3h18.8V4.8z"/>
		<path d="M1.3,16.4H0v-6.2h1.3v2.5h2.4v-2.5H5v6.2H3.8v-2.6H1.3V16.4z M8.2,16.5c-0.3,0-0.6,0-0.8-0.1c-0.3-0.1-0.5-0.2-0.7-0.4
			s-0.4-0.4-0.5-0.7C6,15,5.9,14.8,5.9,14.5v-0.3c0-0.3,0-0.6,0.1-0.8c0.1-0.3,0.2-0.5,0.4-0.7s0.4-0.4,0.7-0.5
			c0.3-0.1,0.5-0.2,0.8-0.2H8c1.3,0,1.9,0.9,1.9,2.2v0.5H7.1c0.1,0.3,0.2,0.5,0.5,0.7c0.2,0.2,0.5,0.2,0.8,0.2
			c0.4,0,0.8-0.1,1.2-0.3h0.1v1C9.2,16.4,8.7,16.5,8.2,16.5L8.2,16.5z M7.1,13.7h1.6c-0.1-0.5-0.2-0.8-0.7-0.8
			c-0.2,0-0.4,0.1-0.6,0.2C7.2,13.3,7.1,13.5,7.1,13.7z M13.4,13.8l-0.7,2.6h-1.2L10.1,12V12h1.3l0.7,2.6l0.7-2.6h1l0.7,2.6l0.8-2.6
			h1.3V12l-1.3,4.3h-1.2L13.4,13.8z M18.8,16.5c-1.1,0-1.5-0.4-1.5-1.4v-4.8h1.3v4.7c0,0.3,0.1,0.4,0.4,0.4c0.1,0,0.2,0,0.3-0.1l0,0
			v1.1C19.2,16.4,19,16.5,18.8,16.5z M21.9,16.5c-0.3,0-0.6,0-0.8-0.1c-0.3-0.1-0.5-0.2-0.7-0.4c-0.2-0.2-0.4-0.4-0.5-0.7
			s-0.2-0.5-0.2-0.8v-0.3c0-0.6,0.1-1.1,0.5-1.6c0.4-0.4,0.9-0.7,1.4-0.8h0.2c1.3,0,1.9,0.9,1.9,2.2v0.5h-2.8
			c0.1,0.3,0.2,0.5,0.4,0.7c0.2,0.2,0.5,0.2,0.8,0.2c0.4,0,0.8-0.1,1.2-0.3h0.1v1C23,16.4,22.5,16.5,21.9,16.5L21.9,16.5z
			 M20.9,13.7h1.6c0-0.1,0-0.2,0-0.3s-0.1-0.2-0.2-0.3c-0.1-0.1-0.2-0.1-0.3-0.2c-0.1,0-0.2-0.1-0.3,0c-0.2,0-0.4,0.1-0.6,0.2
			C21,13.3,20.9,13.5,20.9,13.7L20.9,13.7z M29.1,12h1v1h-1v1.8c0,0.4,0.2,0.6,0.6,0.6c0.1,0,0.3,0,0.4-0.1l0,0v1
			c-0.3,0.1-0.5,0.1-0.8,0.1c-1,0-1.5-0.5-1.5-1.6V13h-1.7v1.8c0,0.4,0.2,0.6,0.6,0.6c0.1,0,0.3,0,0.4-0.1v1
			c-0.3,0.1-0.5,0.1-0.8,0.1c-1,0-1.5-0.5-1.5-1.6V13h-0.7v-1h0.7v-1.2h1.3V12h1.7v-1.2h1.3V12z M36.8,12.3c0,1.4-0.9,2.1-2.3,2.1
			h-0.9v2h-1.4v-6.1h2.3C35.9,10.2,36.8,10.9,36.8,12.3L36.8,12.3z M34.4,13.2c0.2,0,0.5,0,0.7-0.2c0.2-0.1,0.3-0.3,0.4-0.6v-0.2
			c0-0.2-0.1-0.5-0.2-0.6c-0.1-0.2-0.4-0.3-0.6-0.3h-1v1.9L34.4,13.2z M39.7,15.9c-0.1,0.2-0.3,0.3-0.5,0.4
			c-0.2,0.1-0.4,0.1-0.6,0.1c-0.2,0-0.4,0-0.6-0.1c-0.2-0.1-0.3-0.1-0.5-0.3c-0.1-0.1-0.3-0.3-0.3-0.4c-0.1-0.2-0.1-0.4-0.1-0.5
			v-0.2c0-0.9,0.7-1.4,1.7-1.4c0.3,0,0.7,0.1,1,0.2v-0.1c0-0.5-0.3-0.7-1-0.7c-0.4,0-0.9,0.1-1.3,0.3h-0.1v-1c0.5-0.2,1-0.4,1.5-0.3
			c1.3,0,2.1,0.6,2.1,1.7v2.8h-1.3L39.7,15.9z M39.7,15v-0.4c-0.2-0.1-0.5-0.2-0.7-0.2c-0.4,0-0.7,0.2-0.7,0.5s0.2,0.5,0.6,0.5
			c0.2,0,0.3,0,0.5-0.1C39.5,15.3,39.6,15.1,39.7,15L39.7,15z M41.6,14.1c0-0.6,0.2-1.1,0.6-1.6c0.4-0.4,0.9-0.7,1.5-0.7h0.2
			c0.4,0,0.9,0.1,1.3,0.3v1.1h-0.1c-0.3-0.2-0.7-0.4-1-0.3c-0.1,0-0.3,0-0.4,0.1c-0.1,0.1-0.3,0.1-0.4,0.2c-0.1,0.1-0.2,0.2-0.2,0.4
			c-0.1,0.1-0.1,0.3-0.1,0.4v0.1c0,0.1,0,0.3,0,0.4c0,0.1,0.1,0.3,0.2,0.4c0.1,0.1,0.2,0.2,0.3,0.3c0.1,0.1,0.3,0.1,0.4,0.1h0.1
			c0.4,0,0.7-0.1,1-0.3h0.1v1.1c-0.4,0.2-0.8,0.3-1.3,0.3c-0.6,0-1.1-0.2-1.6-0.6c-0.4-0.4-0.7-0.9-0.7-1.5L41.6,14.1L41.6,14.1z
			 M47.3,14.4v2H46v-6.2h1.3v3.5l1.3-1.7h1.5V12l-1.6,2l1.6,2.3v0.1h-1.5L47.3,14.4z M53,15.9c-0.1,0.2-0.3,0.3-0.5,0.4
			c-0.2,0.1-0.4,0.1-0.6,0.1c-0.2,0-0.4,0-0.6-0.1c-0.2-0.1-0.3-0.1-0.5-0.3c-0.1-0.1-0.3-0.3-0.3-0.4c-0.1-0.2-0.1-0.4-0.1-0.5
			v-0.2c0-0.9,0.7-1.4,1.7-1.4c0.3,0,0.7,0,1,0.1v-0.1c0-0.5-0.3-0.7-1-0.7c-0.4,0-0.9,0.1-1.3,0.3h-0.1v-1c0.5-0.2,1-0.4,1.5-0.3
			c1.3,0,2.1,0.6,2.1,1.7v2.8H53L53,15.9z M53,15v-0.4c-0.2-0.1-0.5-0.2-0.7-0.2c-0.4,0-0.7,0.2-0.7,0.5s0.2,0.5,0.6,0.5
			c0.2,0,0.3,0,0.5-0.1C52.8,15.3,53,15.2,53,15L53,15z M56.5,12.7c0.1-0.2,0.2-0.4,0.4-0.6c0.2-0.1,0.4-0.2,0.7-0.2
			c0.1,0,0.3,0,0.4,0.1v1.3h-0.1c-0.2-0.1-0.4-0.1-0.6-0.1c-0.2,0-0.4,0.1-0.5,0.2c-0.1,0.1-0.2,0.3-0.3,0.5v2.5h-1.3V12h1.3V12.7z
			 M61.5,15.9c-0.2,0.2-0.4,0.4-0.6,0.5c-0.2,0.1-0.5,0.1-0.7,0.1c-1.1,0-1.8-1-1.8-2.3s0.7-2.3,1.8-2.3c0.2,0,0.5,0,0.7,0.1
			c0.2,0.1,0.4,0.2,0.6,0.4v-2.2h1.3v6.2h-1.3V15.9z M61.5,14.9v-1.4c-0.1-0.1-0.2-0.2-0.3-0.3C61,13,60.8,13,60.7,13
			c-0.6,0-1,0.4-1,1.1s0.4,1.1,1,1.1C61,15.2,61.3,15.1,61.5,14.9L61.5,14.9z M0,18.4h3.8v0.7h-3V21h2.7v0.7H0.9v2.1h3v0.7H0V18.4z
			 M7,20.1c1,0,1.5,0.6,1.5,1.7v2.7H7.7v-2.7c0-0.2,0-0.5-0.2-0.6C7.4,21,7.2,20.9,7,20.9H6.8c-0.2,0-0.5,0.1-0.7,0.2
			c-0.2,0.1-0.3,0.3-0.4,0.6v2.9H4.8v-4.3h0.8v0.6c0.1-0.2,0.3-0.4,0.6-0.5C6.4,20.2,6.7,20.1,7,20.1z M10.7,20.2h1.1v0.7h-1.1v2.3
			c0,0.5,0.3,0.7,0.7,0.7c0.1,0,0.2,0,0.3-0.1l0,0v0.7c-0.2,0.1-0.3,0.1-0.5,0.1c-1,0-1.4-0.5-1.4-1.3v-2.4H9.1v-0.7h0.7v-1.1h0.8
			L10.7,20.2z M14.5,24.6c-0.3,0-0.5,0-0.8-0.1c-0.3-0.1-0.5-0.2-0.7-0.4c-0.2-0.2-0.4-0.4-0.5-0.6c-0.1-0.2-0.2-0.5-0.2-0.8v-0.3
			c0-1.4,0.8-2.3,2-2.3s1.8,0.9,1.8,2.1v0.4h-3c0,0.2,0,0.3,0.1,0.5c0.1,0.2,0.2,0.3,0.3,0.4c0.1,0.1,0.3,0.2,0.4,0.3
			c0.2,0.1,0.3,0.1,0.5,0.1h0.1c0.4,0,0.9-0.1,1.2-0.4v0.7C15.4,24.5,14.9,24.7,14.5,24.6L14.5,24.6z M13.2,21.9h2.2
			c0-0.1,0-0.3,0-0.4c0-0.1-0.1-0.3-0.2-0.4C15,21,14.9,21,14.7,20.9c-0.1-0.1-0.3-0.1-0.4-0.1c-0.3,0-0.6,0.1-0.8,0.3
			C13.3,21.4,13.2,21.6,13.2,21.9L13.2,21.9z M17.9,20.9c0.1-0.2,0.2-0.4,0.4-0.5c0.2-0.1,0.4-0.2,0.7-0.2c0.1,0,0.3,0,0.4,0.1V21
			c-0.2-0.1-0.3-0.1-0.5-0.1c-0.2,0-0.4,0.1-0.6,0.2c-0.2,0.1-0.3,0.3-0.3,0.6v2.9h-0.8v-4.3h0.8L17.9,20.9z M22.2,20.1
			c1.3,0,2,1,2,2.3c0,1.3-0.7,2.3-2,2.3c-0.2,0-0.5-0.1-0.7-0.2c-0.2-0.1-0.4-0.2-0.5-0.4v2.2h-0.8v-6H21v0.5
			c0.1-0.2,0.3-0.3,0.5-0.4C21.7,20.1,21.9,20.1,22.2,20.1L22.2,20.1z M22.1,23.9c0.2,0,0.4,0,0.6-0.1c0.2-0.1,0.3-0.2,0.4-0.3
			c0.1-0.1,0.2-0.3,0.3-0.5c0.1-0.2,0.1-0.4,0-0.6c0-0.9-0.5-1.5-1.3-1.5c-0.2,0-0.4,0.1-0.6,0.2c-0.2,0.1-0.3,0.3-0.4,0.5v1.7
			c0.1,0.2,0.2,0.4,0.4,0.5C21.6,23.8,21.8,23.9,22.1,23.9L22.1,23.9z M25.9,20.9c0.1-0.2,0.2-0.4,0.4-0.5c0.2-0.1,0.4-0.2,0.7-0.2
			c0.1,0,0.3,0,0.4,0.1V21h-0.1c-0.2-0.1-0.3-0.1-0.5-0.1c-0.2,0-0.4,0.1-0.6,0.2c-0.2,0.1-0.3,0.3-0.3,0.6v2.9h-0.8v-4.3h0.8
			L25.9,20.9L25.9,20.9z M28.6,18.4c0.1,0,0.1,0,0.2,0c0.1,0,0.1,0.1,0.2,0.1c0,0,0.1,0.1,0.1,0.2c0,0.1,0,0.1,0,0.2
			c0,0.1,0,0.1,0,0.2c0,0.1-0.1,0.1-0.1,0.2c0,0-0.1,0.1-0.2,0.1c-0.1,0-0.1,0-0.2,0c-0.1,0-0.3-0.1-0.4-0.2
			c-0.1-0.1-0.1-0.2-0.1-0.4c0-0.1,0.1-0.3,0.1-0.4C28.4,18.5,28.5,18.4,28.6,18.4L28.6,18.4z M28.2,20.2h0.9v4.3h-0.9V20.2z M32,22
			c0.6,0.2,1.3,0.5,1.3,1.3c0,0.2-0.1,0.4-0.2,0.6c-0.1,0.2-0.2,0.3-0.4,0.5c-0.2,0.1-0.3,0.2-0.5,0.3s-0.4,0.1-0.6,0
			c-0.5,0-1-0.1-1.5-0.4v-0.8h0.1c0.2,0.2,0.4,0.3,0.7,0.4c0.2,0.1,0.5,0.1,0.8,0.1c0.5,0,0.9-0.2,0.9-0.6c0-0.4-0.3-0.5-1-0.7
			c-0.7-0.2-1.3-0.4-1.3-1.3s0.7-1.3,1.6-1.3c0.5,0,0.9,0.1,1.3,0.4v0.8c-0.4-0.3-0.8-0.5-1.3-0.5c-0.5,0-0.8,0.2-0.8,0.5
			C31,21.7,31.2,21.8,32,22L32,22z M36.1,24.6c-0.3,0-0.5,0-0.8-0.1c-0.3-0.1-0.5-0.2-0.7-0.4c-0.2-0.2-0.4-0.4-0.5-0.6
			C34.1,23.2,34,23,34,22.7v-0.3c0-1.4,0.8-2.3,2-2.3c1.2,0,1.8,0.9,1.8,2.1v0.4h-3c0,0.2,0,0.3,0.1,0.5c0.1,0.2,0.2,0.3,0.3,0.4
			c0.1,0.1,0.3,0.2,0.4,0.3c0.2,0.1,0.3,0.1,0.5,0.1h0.1c0.4,0,0.9-0.1,1.2-0.4h0.1v0.7C37.1,24.5,36.6,24.7,36.1,24.6L36.1,24.6z
			 M34.8,21.9H37c-0.1-0.6-0.3-1.1-1-1.1c-0.3,0-0.6,0.1-0.8,0.4C35,21.3,34.9,21.6,34.8,21.9L34.8,21.9z"/>
	</g>
</g>
</svg>
