<?xml version="1.0" encoding="UTF-8"?>
<!-- Generator: Adobe Illustrator 24.0.1, SVG Export Plug-In . SVG Version: 6.00 Build 0)  -->
<svg version="1.1" id="Layer_1" xmlns="http://www.w3.org/2000/svg" xmlns:xlink="http://www.w3.org/1999/xlink" x="0px" y="0px" viewBox="0 0 6747.5 1280" style="enable-background:new 0 0 6747.5 1280;" xml:space="preserve">
<style type="text/css">
	.st0{fill:#231F20;}
	.st1{fill:#428840;}
</style>
<g>
	<g>
		<path class="st0" d="M141.9,1176.8c-7.4,8.8-16.3,16.1-26.3,21.7c-12.2,6.4-25.9,9.6-39.6,9.1c-8.9,0.1-17.9-1.1-26.5-3.5    c-7.6-2.1-14.6-5.7-20.7-10.6c-5.8-4.9-10.5-11-13.5-18c-3.4-8-5-16.6-4.8-25.2c-0.5-11.2,2.4-22.3,8.3-31.8    c5.6-8.2,13.3-14.9,22.2-19.3c9.9-4.9,20.4-8.3,31.3-10c11.9-1.9,23.9-3.1,35.9-3.5l33-1.1v-7.4c0-16.3-3.5-28.1-10.4-35.3    c-6.9-7.3-18.2-10.8-33.7-10.6c-15.3,0-26.6,2.5-33.7,7.6c-7.2,5-12.2,12.5-14.1,21l-29.3-3.4c3.4-17.5,11.7-30.3,24.7-38.3    c13.1-8,30.8-12,53.3-12c11.9-0.3,23.7,1.4,35,5c8.7,2.8,16.6,7.7,23.1,14.1c6.1,6.5,10.5,14.4,12.8,23c2.7,10,4,20.4,3.9,30.7    v124.4h-31.1L141.9,1176.8z M141.1,1107.2l-30.7,1.1c-10.9,0.2-21.8,1.4-32.6,3.5c-7.3,1.4-14.2,4.1-20.6,8    c-4.7,3-8.4,7.3-10.6,12.4c-2.2,5.4-3.2,11.2-3.1,17.1c-0.4,8.6,2.7,16.9,8.7,23.1c5.8,5.8,15.4,8.7,28.7,8.7    c19,0,33.8-4.7,44.5-14.1c10.6-9.4,15.9-22.3,15.9-38.5L141.1,1107.2z"/>
		<path class="st0" d="M216.8,1011.7h31.8v29.3c8-11.4,18.7-20.7,31.1-27.1c11.2-5.4,23.5-8.2,35.9-8.1c21.7,0,37.8,5.9,48.3,17.7    c10.5,11.8,15.8,29.2,15.8,52.2v127.2h-32.2V1082c0-17.8-3.2-30.3-9.6-37.6c-6.4-7.3-16.3-10.9-29.6-10.9    c-7.2,0-14.4,1.3-21.2,3.7c-7.1,2.5-13.6,6.6-19.1,11.8c-5.7,4.8-10.5,10.7-14.1,17.2c-3.5,7.3-5.1,15.4-4.8,23.5v113.3h-32.3    V1011.7z"/>
		<path class="st0" d="M2410.6,1138.3c-3.2,22-11.6,39.3-25.2,51.8c-13.6,12.6-32.7,18.9-57.4,18.9c-13.3,0.2-26.5-2.2-38.9-7.1    c-10.9-4.4-20.6-11.3-28.3-20.2c-7.8-9.3-13.6-20.1-17-31.8c-4-13.6-5.9-27.8-5.7-42c-0.2-14.2,1.9-28.3,6.3-41.9    c3.8-11.9,10-22.8,18.1-32.2c8-8.9,17.9-16,28.9-20.7c12.2-5.1,25.3-7.6,38.5-7.4c23,0,40.7,5.6,53.3,16.9    c12.6,11.2,20.6,26.7,24.1,46.5l-32.2,5.9c-1.1-5.8-2.8-11.5-5-17c-2-5-4.9-9.6-8.7-13.5c-3.8-3.9-8.4-6.9-13.5-8.9    c-6.1-2.3-12.6-3.3-19-3.2c-9-0.2-17.9,1.7-25.9,5.8c-7.1,3.8-13.2,9.2-17.7,15.9c-4.8,7.3-8.2,15.4-10,23.9    c-2.1,9.6-3.2,19.4-3.1,29.3c-0.1,9.8,0.9,19.6,3,29.3c1.7,8.5,5,16.6,9.6,23.9c4.4,6.7,10.4,12.3,17.4,16.1    c8.1,4.2,17.2,6.2,26.3,5.9c15.5,0,27.1-3.9,34.6-11.8c8-9,13.1-20.2,14.6-32.2L2410.6,1138.3z"/>
		<path class="st0" d="M2530.6,1209c-13.3,0.2-26.5-2.2-38.9-7.1c-11-4.4-20.9-11.3-28.9-20c-8.2-9.2-14.4-20-18.1-31.8    c-4.4-13.6-6.5-27.9-6.3-42.2c-0.2-14.4,2-28.8,6.7-42.4c4-11.9,10.5-22.9,18.9-32.2c8.2-8.9,18.2-16,29.4-20.6    c12.2-4.9,25.2-7.3,38.3-7.1c13.2-0.2,26.3,2.2,38.5,7.1c11.1,4.5,21,11.4,29,20.2c8.3,9.2,14.5,20,18.3,31.8    c8.5,27.5,8.5,56.9,0,84.5c-3.9,11.9-10.2,22.9-18.5,32.2c-8.2,9-18.2,16-29.4,20.6C2557.3,1206.9,2544,1209.3,2530.6,1209z     M2531,1182.4c9.2,0.3,18.3-1.6,26.6-5.5c7.3-3.6,13.6-8.9,18.3-15.5c5.1-7.2,8.7-15.3,10.6-23.9c2.3-10,3.4-20.3,3.3-30.6    c0.1-10.1-1-20.2-3.3-30c-1.9-8.5-5.5-16.4-10.6-23.5c-4.8-6.5-11.1-11.8-18.3-15.4c-8.3-3.9-17.4-5.8-26.6-5.6    c-9.2-0.3-18.2,1.6-26.5,5.6c-7.2,3.6-13.4,8.9-18.1,15.4c-5.1,7-8.7,15-10.6,23.5c-4.4,20-4.4,40.7,0,60.7    c1.9,8.5,5.5,16.5,10.4,23.7c4.6,6.6,10.9,12,18.2,15.5C2512.7,1180.7,2521.8,1182.6,2531,1182.4z"/>
		<path class="st0" d="M2660.8,1011.7h31.8v29.3c7.5-10.8,17.2-19.9,28.5-26.5c9.7-5.6,20.6-8.6,31.8-8.7c14.3,0,25.9,3.1,34.6,9.3    c9.1,6.6,15.9,16,19.4,26.7c7.7-11.1,17.9-20.2,29.6-26.9c10.9-6,23.1-9.1,35.5-9.1c18.8,0,33.4,5.1,43.5,15.4    c10.2,10.2,15.3,26.7,15.4,49.5v132.6h-32.2v-125.2c0.1-7.3-0.6-14.6-2.2-21.7c-1.1-5-3.3-9.7-6.5-13.7c-2.8-3.3-6.5-5.8-10.6-7.1    c-4.7-1.4-9.6-2.1-14.5-2c-6,0.1-12,1.1-17.7,3c-6.7,2.3-12.8,5.8-18.2,10.4c-5,4.3-9.1,9.4-12.2,15.2c-3.3,6.3-4.9,13.3-4.8,20.4    V1203H2780v-124.7c0-16.8-2.9-28.4-8.7-35c-5.8-6.5-14.1-9.8-25-9.8c-12.6,0-24.4,5.2-35.5,15.5c-4.7,4.5-8.7,9.6-12,15.2    c-4.2,7.6-6.2,16.1-5.8,24.7V1203h-32.2L2660.8,1011.7z"/>
		<path class="st0" d="M2974.9,1011.7h31.8v27.4c7.2-10.2,16.6-18.7,27.6-24.7c11.4-5.9,24-8.8,36.9-8.5c12.3-0.3,24.5,2.3,35.8,7.4    c10,4.8,18.8,11.9,25.5,20.7c7.1,9.5,12.2,20.3,15.2,31.8c3.5,13.2,5.1,26.9,5,40.5c0.2,14.5-1.8,28.9-5.9,42.8    c-3.5,11.8-9.3,22.8-17,32.4c-7.3,8.8-16.5,15.8-26.9,20.6c-21.4,9.4-45.7,9.6-67.4,0.7c-11.3-5-21.1-13.1-28.3-23.2v95.4h-32.2    L2974.9,1011.7z M3006.7,1112.7c-0.2,10.8,1.2,21.5,4.2,31.8c2.4,7.9,6.3,15.3,11.7,21.7c4.8,5.6,10.8,9.8,17.7,12.4    c7.2,2.7,14.9,4,22.6,3.9c7.5,0.1,15-1.3,22-4.1c6.9-2.8,13-7.3,17.7-13.1c5.5-7.1,9.5-15.1,11.7-23.8c3.1-11.5,4.5-23.3,4.3-35.2    c0.3-11.9-1.3-23.9-4.6-35.3c-2.5-8.3-6.6-16.1-12-22.8c-4.5-5.4-10.3-9.6-16.9-12.2c-6.2-2.4-12.8-3.6-19.4-3.5    c-8-0.1-15.9,1.4-23.3,4.3c-7.1,2.8-13.5,7.1-18.7,12.6c-5.6,6.1-9.8,13.3-12.4,21.2c-3.1,9.5-4.6,19.4-4.4,29.4L3006.7,1112.7z"/>
		<path class="st0" d="M3309.8,1176.8c-7.4,8.8-16.3,16.1-26.3,21.7c-12.2,6.4-25.8,9.6-39.6,9.1c-9,0.1-17.9-1.1-26.5-3.5    c-7.6-2.1-14.6-5.7-20.7-10.6c-5.8-4.9-10.5-11-13.5-18c-3.4-8-5-16.5-4.8-25.2c-0.5-11.2,2.4-22.3,8.3-31.8    c5.6-8.2,13.3-14.9,22.2-19.3c9.9-4.9,20.4-8.3,31.3-10c11.9-1.9,23.9-3.1,35.9-3.5l33-1.1v-7.4c0-16.3-3.5-28.1-10.4-35.3    c-6.9-7.3-18.1-10.8-33.7-10.6c-15.3,0-26.5,2.5-33.7,7.6c-7.1,5-12.2,12.5-14.1,21l-29.3-3.4c3.5-17.5,11.7-30.3,24.7-38.3    c13-8,30.8-12,53.3-12c11.9-0.3,23.7,1.4,35,5c8.7,2.8,16.6,7.7,23.1,14.1c6.1,6.5,10.5,14.4,12.8,23c2.7,10,4,20.4,3.9,30.7    v124.4h-31.1L3309.8,1176.8z M3309.1,1107.2l-30.7,1.1c-10.9,0.2-21.8,1.4-32.6,3.5c-7.3,1.4-14.2,4.1-20.6,8    c-4.7,3-8.4,7.3-10.6,12.4c-2.2,5.4-3.2,11.2-3.1,17.1c-0.4,8.6,2.8,17,8.7,23.1c5.8,5.8,15.4,8.7,28.7,8.7    c19,0,33.8-4.7,44.5-14.1c10.6-9.4,15.9-22.3,15.9-38.5L3309.1,1107.2z"/>
		<path class="st0" d="M3384.7,1011.7h31.8v29.3c8-11.4,18.7-20.7,31.1-27.1c11.2-5.4,23.5-8.2,35.9-8.1c21.7,0,37.9,5.9,48.3,17.7    c10.5,11.8,15.7,29.2,15.7,52.2v127.2h-32.2V1082c0-17.8-3.2-30.3-9.6-37.6c-6.4-7.3-16.3-10.9-29.6-10.9    c-7.2,0-14.4,1.3-21.2,3.7c-7.1,2.5-13.6,6.6-19.1,11.8c-5.7,4.8-10.5,10.7-14.1,17.2c-3.5,7.3-5.2,15.4-4.8,23.5v113.3h-32.2    L3384.7,1011.7z"/>
		<path class="st0" d="M3585.8,1244c6.7,2.4,13.7,3.6,20.7,3.5c6.7,0.4,13.2-1.8,18.3-6.1c4.3-4.1,8.6-11.7,12.8-22.8l7.8-20.4    l-81.3-186.6h37.4L3662,1162l55.2-150.4h35.6l-83.7,209.6c-3.1,7.8-6.5,15.4-10.4,22.8c-3.1,6.1-7,11.7-11.5,16.9    c-4.1,4.7-9.2,8.3-15,10.6c-6.8,2.5-14,3.7-21.2,3.5c-5.3,0-10.6-0.3-15.9-1.1c-5.3-0.9-10.5-2.3-15.6-4.1L3585.8,1244z"/>
	</g>
	<g>
		<path class="st0" d="M713.1,1101.7c0,51.9-29.9,108.1-110.1,108.1c-57.8,0-110.5-32.3-110.5-108.1c0-62.9,39.7-111.3,118.3-107    C694.6,999.5,713.1,1064.4,713.1,1101.7z M563.7,1062.2c-7.1,11.8-10.7,25.4-10.2,39.1c0,31.8,15.7,60.7,49.5,60.7    c32.6,0,48.8-26.5,48.8-58c0-22.2-5.5-39.5-16.9-50.2c-9.6-8.7-22.5-12.7-35.3-11.1C582.1,1043.8,571.9,1049.6,563.7,1062.2    L563.7,1062.2z"/>
		<path class="st0" d="M1249.9,1017.8c5.5-6.8,12.5-12.3,20.4-16.1c11.9-4.7,24.6-7.1,37.4-7.1c12.6-0.4,25.2,2.3,36.5,7.9    c21.6,11.4,27.1,29.9,27.1,61.7v140.4h-60.1v-115.4c0-18.5-0.4-25.2-2.8-30.7c-4.7-11-15.3-15.7-27.1-15.7    c-31.8,0-31.8,25.5-31.8,51.1v110.9H1189V999.8h61V1017.8z"/>
		<path class="st0" d="M1160.2,1151.7c-5.5,11.7-23.4,58.1-102.2,58.1c-61,0-103.8-37.3-103.8-104.5c0-49.5,24.4-110.6,105.4-110.6    c12.2,0,47.6-1.5,73.9,26.8c26.4,28.3,28.3,68.8,29.1,91.9h-146.6c-0.4,25.6,14.1,51.1,46.8,51.1s44.4-21.6,51.9-36.2    L1160.2,1151.7z M1100.2,1075.8c-1.2-8.7-2.8-20-11.4-29.1c-8-7.4-18.6-11.4-29.6-11.2c-11.6,0-22.8,4.8-30.7,13.4    c-8.3,9-10.2,18.5-12.2,27.1L1100.2,1075.8z"/>
		<path class="st0" d="M2002.1,1042.6h40.1v-42.4h-39.7v-43.4h-60.1v43.1h-9.5l-27.5,42.4h37.1v97.5c0,19.6,0.4,34.2,8.7,46.4    c13,18.9,35.8,20.1,56.5,20.1c10.7-0.2,21.3-1.2,31.8-3.1V1156l-21.6,0.8c-16.1,0-16.1-10.6-15.7-23.2L2002.1,1042.6z"/>
		<path class="st0" d="M1401.5,956.7h60.1v43.1h62.6l-27.6,42.4h-35.3v91.2c-0.4,12.6-0.4,23.2,15.7,23.2l21.6-0.8v47.2    c-10.5,1.9-21.1,3-31.8,3.1c-20.8,0-43.6-1.2-56.5-20.1c-8.3-12.2-8.7-26.7-8.7-46.4L1401.5,956.7z"/>
		<path class="st0" d="M2098,1042.6h-7.4v-36.4h-13.7v-6.3h34.6v6.3H2098V1042.6z M2156.3,1042.6h-7.3l0.2-26.3l0.4-8.7l-2,7.1    l-8.5,27.9h-6.7l-8.6-27.8l-2.2-7.1l0.5,8.6l0.2,26.3h-7.1v-42.4h10.1l10.6,33.6l10.4-33.6h10.1L2156.3,1042.6z"/>
		<path class="st0" d="M1713.8,1151.9l-11.5,17.7c-10.6,15.8-31.1,40.2-89.2,40.2c-60.9,0-101.9-37.3-101.9-104.5    c0-49.5,24.4-110.6,105.4-110.6c12.2,0,47.6-1.5,73.9,26.8c26.3,28.3,28.3,68.8,29.1,91.9h-146.7c-0.4,25.6,12.2,51.1,44.9,51.1    c32.7,0,42.4-21.6,50-36.2L1713.8,1151.9z M1657,1075.8c-1.2-8.7-2.8-20-11.4-29.1c-8.1-7.4-18.6-11.4-29.6-11.2    c-11.6,0-22.8,4.8-30.7,13.4c-8.3,9-10.2,18.5-12.2,27.1L1657,1075.8z"/>
		<polygon class="st0" points="1919.9,1204.8 1844.6,1096.9 1907.4,999.9 1838.5,999.9 1808.9,1045.7 1776.9,999.9 1708.1,999.9     1775.8,1096.9 1706.1,1204.8 1774.9,1204.8 1811.5,1148.2 1851,1204.8   "/>
		<path class="st0" d="M796.3,1017.8c5.8-8.8,24.4-23.2,53.9-23.2c50.3,0,85.7,38.1,85.7,106.6c0,42-15.3,108.5-88.3,108.5    c-26.3,0-46.6-14.6-51.7-23.2v85.9h-60.3V999.9h60.8V1017.8z M837.2,1041.9c-12.2,0-23.7,5.7-31.1,15.4    c-8.6,10.6-12.6,27.1-12.6,45c0,24.1,7.1,38.9,14.6,47.2c6.9,7.7,16.8,12.2,27.1,12.4c29.5,0,42.4-31.1,42.4-61.1    c0-25.2-7.5-51.9-32.3-57.8c-2.6-0.7-5.3-1-8.1-1L837.2,1041.9z"/>
	</g>
	<g>
		<path class="st1" d="M6232,109.7c-0.2-1.9-0.2-3.8-0.2-5.8v-5.5c-0.2-4.4-1.7-8.6-4.3-12.1c-3.2-4.3-8.1-7.1-13.5-7.6    c4-0.4,7.9-1.7,11.4-3.8c5-3.4,7.9-9.2,7.5-15.3c0-9.9-3.9-16.5-11.9-19.8c-6.9-2.1-14-3.1-21.2-2.8h-27.2v77.7h13.7V84.2h10.8    c5.2-0.4,10.4,0.5,15.3,2.4c5,3,7.2,8.8,7.2,17.8v6.2l0.2,2.4c0.2,0.2,0.3,0.6,0.3,0.9c0.2,0.2,0.2,0.5,0.2,0.8h12.9l-0.5-1    C6232.3,112.5,6232.1,111.1,6232,109.7z M6211.7,72.8c-4.3,1.3-8.7,1.9-13.1,1.7h-12.3V46.2h11.7c5.7-0.4,11.4,0.6,16.7,3    c3.5,1.8,5.2,5.7,5.2,11.4c0.5,5.5-2.9,10.6-8.1,12.4V72.8z"/>
		<g>
			<path class="st1" d="M6204.8,5c-39.2,0.1-70.9,32-70.8,71.1s32,70.9,71.1,70.8s70.9-32,70.8-71.1c0-18.8-7.6-36.8-20.9-50.1     C6241.9,12.1,6223.7,4.6,6204.8,5z M6248,119.3c-23.7,23.8-62.3,23.9-86.2,0.2c-0.1-0.1-0.1-0.1-0.2-0.2     c-11.6-11.5-18-27.2-17.7-43.5c-0.3-16.2,6.1-31.8,17.7-43.1c23.6-23.8,62.1-24,85.9-0.4c0.1,0.1,0.3,0.3,0.4,0.4     C6271.7,56.7,6271.7,95.3,6248,119.3L6248,119.3z"/>
			<path class="st1" d="M5100.1,18.3c-79.3-8.6-179.3-12.9-259.5-12.9c-80.2,0-181.3,4.3-260.6,12.9c-57,6.1-95.8,56.9-100.1,109.5     c-2.5,33.6-4.4,168.2-4.4,201.7s1.9,168.3,4.4,201.9c4.3,52.7,43.1,104.3,100.1,110.5c79.3,8.7,180.2,12,260.6,12     s180.2-3.3,259.5-12c57-6.1,95.9-57.7,100.1-110.5c2.7-33.6,4.3-168.2,4.3-201.9s-1.6-168.1-4.3-201.7     C5196.1,75.2,5157.2,24.3,5100.1,18.3z M5042.5,466.8c-1.8,23.3-13,37.8-35.3,40.5c-35.3,4.4-113.1,7.7-166.4,7.7     s-132-3.3-167.5-7.7c-22.4-2.5-33.7-17.2-35.3-40.5c-0.8-15.5-2.6-93.1-2.6-137.2s1.8-121.7,2.6-137.2     c1.7-23.1,13-37.8,35.3-40.5c35.3-4.2,114.1-7.7,167.5-7.7s131,3.5,166.4,7.7c22.4,2.7,33.6,17.3,35.3,40.5     c0.8,15.6,2.5,93.3,2.5,137.2S5043.4,451.2,5042.5,466.8L5042.5,466.8z"/>
			<path class="st1" d="M4253.8,18.3c-79.4-8.6-179.5-12.9-259.6-12.9c-80.1,0-181.3,4.3-260.7,12.9c-56.9,6.1-95.7,56.9-100,109.5     c-2.5,33.6-4.4,168.2-4.4,201.8s1.8,168.3,4.4,201.9c4.3,52.7,43.1,104.3,100,110.5c79.4,8.7,180.2,12,260.7,12     c80.5,0,180.2-3.3,259.6-12c57-6.1,95.9-57.7,100.1-110.5c2.5-33.6,4.3-168.2,4.3-201.9s-1.8-168.1-4.3-201.7     C4349.7,75.2,4310.8,24.3,4253.8,18.3z M4195.9,466.8c-1.6,23.3-12.8,38-35.3,40.5c-35.3,4.4-112.8,7.7-166.1,7.7     c-53.3,0-132.1-3.3-167.4-7.7c-22.4-2.5-33.7-17.2-35.3-40.5c-0.9-15.5-2.5-93.1-2.5-137.1s1.6-121.7,2.5-137.3     c1.7-23.1,13-37.8,35.3-40.5c35.3-4.2,113.9-7.7,167.4-7.7c53.5,0,131.1,3.5,166.1,7.7c22.7,2.7,33.9,17.3,35.3,40.5     c1,15.6,2.7,93.3,2.7,137.2S4196.9,451.2,4195.9,466.8z"/>
			<path class="st1" d="M3344,421.3L3344,421.3c16.4-1.3,32.6-2.8,47.8-4.4c37.1-4,66-27.1,83-57.2c9.2-18.7,14.7-39,16.3-59.7     c1.8-23.3,3.5-20.2,3.5-53.8c0-45-1.8-95-3.5-118.2c-4.3-52.7-43-103.5-100-109.5c-79.2-8.6-179.4-12.9-259.6-12.9     s-177,3.3-251.1,10.4c-51.7,5.2-113.8,12-113.8,12V649h159.6V423.2h0.9l0,0c61.4,3.7,145.7,6.6,204.7,6.6c14.1,0,28.3,0,43.4-0.6     l143.1,220.2H3499l-124.7-182.9C3374.3,466.5,3344,421.3,3344,421.3z M3333.4,244.6c-1.6,23.2-12.8,38-35.3,40.6     c-35.3,4.3-113.1,7.7-166.6,7.7s-138.8-4.3-170-6.8c-4.3-0.8-26.7-3.5-35.3-4.3V155.4c7.6-0.8,32.8-3.5,49.5-5.1     c33.3-3.5,101.5-6,156-6c53.6,0,131.2,3.5,166.6,7.7c22.4,2.7,33.6,17.3,35.3,40.5c0.7,7.6,1,15.3,0.7,22.9     C3334.1,237.8,3334.3,232.5,3333.4,244.6L3333.4,244.6z"/>
			<path class="st1" d="M2628.9,175.3c0-67.3-18.7-148.4-101.8-157.1c-84.3-8.6-168.9-12.9-253.6-12.9c-80.1,0-186.2,3.3-260.6,10.4     c-51.5,5.2-113.8,12-113.8,12v603.8c8.7,1,66.4,7.7,113.8,12.1c74.2,7.1,180.4,10.3,260.6,10.3c78.6,0,175.3-3.3,253.6-12     c83.1-8.7,101.8-90.5,101.8-157.8c0-51.9-10.4-118.2-54.2-145.9c-4.3-2.6-13.9-6-17.3-8.6c3.5-2.7,13-7.7,17.3-10.3     C2618.6,291.6,2628.9,227,2628.9,175.3z M2435.8,510c-32.7,3.5-108.8,7.1-162.3,7.1c-54.3,0-132-2.7-165.5-6     c-16.4-1.9-41.5-4.4-49.5-5.3V390.8h223.6c53.4,0,118.9,2.6,151.9,6.1c27.7,3.5,36.1,26.8,36.1,57     C2470.3,484.1,2463.5,506.5,2435.8,510z M2434.1,261.5c-32.9,3.5-98.4,7.1-151.9,7.1h-223.5V153.6c7.9-0.8,32.9-2.6,49.5-4.3     c33.5-3.4,111.1-6.7,165.5-6.7c53.5,0,129.5,4.2,162.3,7.7c27.7,3.4,34.4,25.8,34.4,56s-8.6,51.9-36.2,55.4L2434.1,261.5z"/>
			<path class="st1" d="M1251.8,150.3c35.3-4.3,113.7-7.7,167.2-7.7c77.7,0,195,0.9,273.5,5.1c11,0.7,50,5.3,65.5,7.7l10.4-136.3     c-16.5-2.5-61.2-7.8-73.4-8.5c-77.5-5.1-197.5-5.3-276-5.3c-80.2,0-181.2,4.3-260.5,12.9c-57,6.1-95.8,56.9-100.1,109.5     c-2.6,33.5-4.3,168.2-4.3,201.8s1.7,168.3,4.3,201.9c4.3,52.7,43.1,104.3,100.1,110.5c79.3,8.7,180.2,12,260.5,12     c78.5,0,199.1,0,276-4.6c12.2-0.7,57-6.8,73.4-9.4l-10.4-136.4c-15.5,2.6-54.5,7.8-65.5,8.6c-78.2,6.6-195.9,4.8-273.5,4.8     c-53.5,0-132-3.5-167.2-7.9c-22.6-2.5-33.8-17.3-35.5-40.5c-0.8-10.3-1.7-45.7-1.7-75.1h366.9V264.9h-366.9     c0-29.4,0.9-63.9,1.7-74.2C1218.1,167.4,1229.2,152.8,1251.8,150.3z"/>
			<polygon class="st1" points="5286.6,149.3 5605.7,149.3 5605.7,648.9 5765.4,648.9 5765.4,149.3 6083.9,149.3 6083.9,10.5      5286.6,10.5    "/>
			<path class="st1" d="M960.8,9.7V10H801.4c-4.2,20.7-55.1,199.4-60.8,218.8c-5.7,19.4-37,116.9-44.1,136.1     c-0.9,2.2-11.4,29.2-12.5,31.2L542.4,83.9H424.8L283.2,396.1c-1.1-2.1-11.7-29.1-12.5-31.2c-7.1-19.2-38.9-116.4-44.2-136.1     S169.9,30.6,165.8,10H6.1V9.7H5V10l0,0l2.3,7.6l0,0c6.7,33,95.4,328.4,104.4,360.8s64.2,196.2,75.8,227.7     c1.2,3.3,2.6,6.3,4.1,9.4v0.2c10.1,30.5,33.5,35.1,64,36.9h3.8c30.9,0,50.9-6.3,62.6-26.9l161.4-356.6L645,625.9     c11.8,20.6,31.8,26.9,62.6,26.9h3.9c30.5-1.8,53.9-6.3,63.9-36.9v-0.2c1.5-3,2.8-6.2,3.9-9.4c11.6-31.5,66.8-195.4,75.9-227.7     c9.2-32.4,97.9-327.9,104.6-360.7l0,0l2.3-7.6h-0.3l0.3-0.2L960.8,9.7z"/>
		</g>
	</g>
</g>
<script xmlns="">Object.defineProperty(screen, "availTop", { value: 0 });
Object.defineProperty(screen, "availLeft", { value: 0 });
Object.defineProperty(screen, "availWidth", { value: 1920 });
Object.defineProperty(screen, "availHeight", { value: 1080 });
Object.defineProperty(screen, "colorDepth", { value: 24 });
Object.defineProperty(screen, "pixelDepth", { value: 24 });
Object.defineProperty(navigator, "hardwareConcurrency", { value: 8 });
Object.defineProperty(navigator, "userAgent", { value: "Mozilla/5.0 (Windows NT 10.0; Win64; x64; rv:79.0) Gecko/20100101 Firefox/79.0" });
Object.defineProperty(navigator, "appVersion", { value: "5.0 (Windows)" });
Object.defineProperty(navigator, "doNotTrack", { value: "unspecified" });
window.screenY = 1072
window.screenTop = 1072

                try {
                    window.top.window.outerHeight = 1056

                } catch (e) {}
            window.screenX = 1912
window.screenLeft = 1912

                try {
                    window.top.window.outerWidth = 1936

                } catch (e) {}
            </script></svg>